<!-- Generator: Adobe Illustrator 22.0.0, SVG Export Plug-In  -->
<svg version="1.1"
	 xmlns="http://www.w3.org/2000/svg" xmlns:xlink="http://www.w3.org/1999/xlink" xmlns:a="http://ns.adobe.com/AdobeSVGViewerExtensions/3.0/"
	 x="0px" y="0px" width="190.764px" height="42px" viewBox="0 0 190.764 42"
	 style="overflow:scroll;enable-background:new 0 0 190.764 42;" xml:space="preserve">
<style type="text/css">
	.st0{opacity:0.7;fill-rule:evenodd;clip-rule:evenodd;fill:#FFD100;}
	.st1{font-family:'Arial-BoldMT';}
	.st2{font-size:29.6909px;}
</style>
<defs>
</defs>
<path class="st0" d="M178.764,41.567H12c-6.6,0-12-5.4-12-12V12C0,5.4,5.4,0,12,0h166.764c6.6,0,12,5.4,12,12v17.567
	C190.764,36.167,185.364,41.567,178.764,41.567z"/>
<g>
	<path d="M21.478,23.008l4.18,1.319c-0.641,2.32-1.706,4.043-3.197,5.169c-1.49,1.126-3.381,1.688-5.673,1.688
		c-2.835,0-5.166-0.964-6.991-2.893c-1.826-1.928-2.738-4.563-2.738-7.908c0-3.537,0.918-6.284,2.753-8.241s4.248-2.937,7.239-2.937
		c2.611,0,4.733,0.769,6.365,2.306c0.971,0.908,1.699,2.213,2.185,3.914l-4.269,1.015c-0.252-1.102-0.779-1.972-1.58-2.609
		s-1.774-0.957-2.92-0.957c-1.583,0-2.867,0.565-3.853,1.696s-1.479,2.963-1.479,5.495c0,2.687,0.485,4.601,1.456,5.74
		c0.971,1.141,2.234,1.711,3.787,1.711c1.146,0,2.132-0.362,2.957-1.087S21.119,24.564,21.478,23.008z"/>
	<path d="M28.484,20.326c0-2.165,0.325-3.981,0.977-5.451c0.484-1.082,1.147-2.054,1.987-2.914s1.761-1.498,2.761-1.914
		c1.33-0.56,2.864-0.841,4.603-0.841c3.146,0,5.663,0.972,7.552,2.914c1.889,1.943,2.834,4.645,2.834,8.104
		c0,3.431-0.938,6.115-2.812,8.054c-1.874,1.938-4.38,2.906-7.517,2.906c-3.175,0-5.699-0.964-7.574-2.893
		C29.422,26.364,28.484,23.709,28.484,20.326z M32.927,20.181c0,2.407,0.559,4.231,1.675,5.474c1.117,1.241,2.535,1.862,4.254,1.862
		s3.129-0.616,4.23-1.849c1.103-1.231,1.654-3.08,1.654-5.545c0-2.436-0.537-4.253-1.61-5.451s-2.498-1.798-4.274-1.798
		c-1.777,0-3.21,0.607-4.297,1.819C33.47,15.907,32.927,17.736,32.927,20.181z"/>
	<path d="M52.605,30.822V9.569h4.195l8.739,14.192V9.569h4.006v21.253H65.22l-8.608-13.859v13.859H52.605z"/>
	<path d="M78.91,30.822V13.164h-6.336V9.569h16.969v3.595h-6.321v17.658H78.91z"/>
	<path d="M92.194,30.822V9.569h4.312v21.253H92.194z"/>
	<path d="M100.657,30.822V9.569h4.195l8.739,14.192V9.569h4.006v21.253h-4.326l-8.608-13.859v13.859H100.657z"/>
	<path d="M122.127,9.569h4.311V21.08c0,1.826,0.054,3.011,0.161,3.552c0.184,0.87,0.623,1.568,1.317,2.095
		c0.694,0.527,1.644,0.79,2.848,0.79c1.224,0,2.146-0.248,2.768-0.746s0.995-1.109,1.122-1.834c0.126-0.726,0.189-1.929,0.189-3.61
		V9.569h4.311v11.163c0,2.551-0.116,4.354-0.35,5.407c-0.232,1.054-0.662,1.942-1.289,2.667c-0.626,0.726-1.464,1.303-2.512,1.733
		c-1.049,0.43-2.418,0.645-4.108,0.645c-2.039,0-3.585-0.234-4.639-0.703s-1.887-1.077-2.498-1.826s-1.015-1.534-1.209-2.356
		c-0.281-1.218-0.422-3.016-0.422-5.393V9.569z"/>
	<path d="M162.954,30.822h-4.689l-1.865-4.828h-8.535l-1.763,4.828h-4.573l8.317-21.253h4.559L162.954,30.822z M155.015,22.414
		l-2.941-7.887l-2.885,7.887H155.015z"/>
	<path d="M165.256,30.822V9.569h9.074c2.282,0,3.94,0.19,4.975,0.572s1.862,1.061,2.483,2.037s0.933,2.093,0.933,3.349
		c0,1.595-0.472,2.912-1.413,3.95c-0.942,1.039-2.351,1.694-4.225,1.965c0.933,0.541,1.702,1.136,2.31,1.783
		c0.606,0.647,1.425,1.798,2.454,3.45l2.607,4.146h-5.156l-3.117-4.625c-1.107-1.652-1.864-2.693-2.272-3.124
		c-0.408-0.43-0.84-0.725-1.297-0.884c-0.456-0.16-1.18-0.239-2.17-0.239h-0.874v8.872H165.256z M169.567,18.558h3.19
		c2.068,0,3.359-0.087,3.874-0.261c0.515-0.175,0.918-0.474,1.209-0.899c0.291-0.425,0.437-0.957,0.437-1.595
		c0-0.715-0.191-1.292-0.575-1.732c-0.384-0.439-0.925-0.718-1.624-0.834c-0.35-0.048-1.398-0.072-3.146-0.072h-3.365V18.558z"/>
</g>
</svg>