<!-- Generator: Adobe Illustrator 22.0.0, SVG Export Plug-In  -->
<svg version="1.1"
	 xmlns="http://www.w3.org/2000/svg" xmlns:xlink="http://www.w3.org/1999/xlink" xmlns:a="http://ns.adobe.com/AdobeSVGViewerExtensions/3.0/"
	 x="0px" y="0px" width="378px" height="46px" viewBox="0 0 378 46" style="overflow:scroll;enable-background:new 0 0 378 46;"
	 xml:space="preserve">
<style type="text/css">
	.st0{opacity:0.7;fill-rule:evenodd;clip-rule:evenodd;fill:#009CA6;}
	.st1{fill-rule:evenodd;clip-rule:evenodd;fill:none;}
	.st2{font-family:'MyriadPro-Regular';}
	.st3{font-size:30px;}
	.st4{letter-spacing:-1;}
</style>
<defs>
</defs>
<path class="st0" d="M366,46H12C5.4,46,0,40.6,0,34V12C0,5.4,5.4,0,12,0h354c6.6,0,12,5.4,12,12v22C378,40.6,372.6,46,366,46z"/>
<g>
	<rect x="11.581" y="11.871" class="st1" width="366.419" height="27.129"/>
	<path d="M13.86,12.952h2.61v18.029h8.64v2.189H13.86V12.952z"/>
	<path d="M29.55,12.952v11.969c0,4.53,2.01,6.45,4.71,6.45c3,0,4.92-1.98,4.92-6.45V12.952h2.64v11.789c0,6.21-3.27,8.76-7.649,8.76
		c-4.14,0-7.26-2.37-7.26-8.64V12.952H29.55z"/>
	<path d="M46.35,33.171V12.952h2.85l6.479,10.229c1.5,2.369,2.67,4.499,3.63,6.569l0.06-0.03c-0.24-2.699-0.3-5.159-0.3-8.31v-8.459
		h2.46v20.219h-2.64l-6.419-10.26c-1.41-2.25-2.76-4.56-3.78-6.75l-0.09,0.03c0.15,2.55,0.21,4.98,0.21,8.34v8.64H46.35z"/>
	<path d="M69.359,26.812l-2.1,6.359h-2.7l6.87-20.219h3.15l6.9,20.219h-2.79l-2.16-6.359H69.359z M75.989,24.771l-1.98-5.82
		c-0.45-1.319-0.75-2.52-1.05-3.689h-0.06c-0.3,1.2-0.63,2.43-1.02,3.66l-1.98,5.85H75.989z"/>
	<path d="M107.849,24.291c-0.15-2.819-0.33-6.21-0.3-8.729h-0.09c-0.69,2.37-1.53,4.89-2.55,7.68l-3.57,9.81h-1.98l-3.27-9.63
		c-0.96-2.85-1.77-5.459-2.34-7.859h-0.06c-0.06,2.52-0.21,5.91-0.39,8.939l-0.54,8.67h-2.49l1.41-20.219h3.33l3.45,9.779
		c0.84,2.49,1.53,4.71,2.04,6.81h0.09c0.51-2.04,1.23-4.26,2.13-6.81l3.6-9.779h3.33l1.26,20.219h-2.55L107.849,24.291z"/>
	<path d="M132.208,22.852c0,6.959-4.229,10.649-9.39,10.649c-5.34,0-9.089-4.14-9.089-10.26c0-6.42,3.99-10.619,9.39-10.619
		C128.638,12.622,132.208,16.852,132.208,22.852z M116.519,23.182c0,4.319,2.34,8.189,6.45,8.189c4.14,0,6.479-3.81,6.479-8.399
		c0-4.021-2.1-8.22-6.45-8.22C118.679,14.752,116.519,18.741,116.519,23.182z"/>
	<path d="M135.599,13.222c1.32-0.27,3.21-0.42,5.01-0.42c2.79,0,4.59,0.51,5.85,1.649c1.02,0.9,1.59,2.28,1.59,3.84
		c0,2.67-1.68,4.44-3.81,5.16v0.09c1.56,0.54,2.49,1.98,2.97,4.08c0.66,2.82,1.14,4.77,1.56,5.55h-2.7
		c-0.33-0.57-0.78-2.31-1.35-4.83c-0.6-2.79-1.68-3.84-4.05-3.93h-2.46v8.76h-2.61V13.222z M138.208,22.432h2.67
		c2.79,0,4.56-1.53,4.56-3.84c0-2.61-1.89-3.75-4.65-3.78c-1.26,0-2.16,0.12-2.58,0.24V22.432z"/>
	<path d="M162.208,23.691h-7.86v7.29h8.76v2.189h-11.37V12.952h10.92v2.189h-8.31v6.39h7.86V23.691z"/>
	<path d="M166.498,33.171V12.952h2.85l6.479,10.229c1.5,2.369,2.67,4.499,3.63,6.569l0.06-0.03c-0.24-2.699-0.3-5.159-0.3-8.31
		v-8.459h2.46v20.219h-2.64l-6.419-10.26c-1.41-2.25-2.76-4.56-3.78-6.75l-0.09,0.03c0.15,2.55,0.21,4.98,0.21,8.34v8.64H166.498z"
		/>
	<path d="M203.517,22.852c0,6.959-4.229,10.649-9.39,10.649c-5.34,0-9.089-4.14-9.089-10.26c0-6.42,3.99-10.619,9.39-10.619
		C199.947,12.622,203.517,16.852,203.517,22.852z M187.828,23.182c0,4.319,2.34,8.189,6.45,8.189c4.14,0,6.48-3.81,6.48-8.399
		c0-4.021-2.1-8.22-6.45-8.22C189.988,14.752,187.828,18.741,187.828,23.182z"/>
	<path d="M204.088,36.86c0.66-1.77,1.47-4.979,1.8-7.169l2.94-0.301c-0.69,2.551-2.01,5.88-2.85,7.29L204.088,36.86z"/>
	<path d="M232.587,32.511c-0.96,0.48-2.88,0.96-5.34,0.96c-5.7,0-9.989-3.6-9.989-10.229c0-6.33,4.29-10.619,10.56-10.619
		c2.52,0,4.11,0.54,4.8,0.899l-0.63,2.13c-0.99-0.479-2.4-0.84-4.08-0.84c-4.74,0-7.89,3.03-7.89,8.34c0,4.95,2.85,8.13,7.77,8.13
		c1.59,0,3.21-0.33,4.26-0.84L232.587,32.511z"/>
	<path d="M246.327,23.691h-7.86v7.29h8.76v2.189h-11.37V12.952h10.919v2.189h-8.31v6.39h7.86V23.691z"/>
	<path d="M264.746,32.511c-0.96,0.48-2.88,0.96-5.34,0.96c-5.7,0-9.989-3.6-9.989-10.229c0-6.33,4.29-10.619,10.56-10.619
		c2.52,0,4.11,0.54,4.8,0.899l-0.63,2.13c-0.99-0.479-2.4-0.84-4.08-0.84c-4.74,0-7.89,3.03-7.89,8.34c0,4.95,2.85,8.13,7.77,8.13
		c1.59,0,3.21-0.33,4.26-0.84L264.746,32.511z"/>
	<path d="M270.626,12.952v20.219h-2.61V12.952H270.626z"/>
	<path d="M275.186,12.952h2.61v18.029h8.64v2.189h-11.25V12.952z"/>
	<path d="M291.955,12.952v20.219h-2.609V12.952H291.955z"/>
	<path d="M299.785,26.812l-2.1,6.359h-2.7l6.87-20.219h3.149l6.899,20.219h-2.789l-2.16-6.359H299.785z M306.415,24.771l-1.98-5.82
		c-0.449-1.319-0.75-2.52-1.05-3.689h-0.06c-0.3,1.2-0.63,2.43-1.021,3.66l-1.979,5.85H306.415z"/>
</g>
</svg>