<!-- Generator: Adobe Illustrator 22.0.0, SVG Export Plug-In  -->
<svg version="1.1"
	 xmlns="http://www.w3.org/2000/svg" xmlns:xlink="http://www.w3.org/1999/xlink" xmlns:a="http://ns.adobe.com/AdobeSVGViewerExtensions/3.0/"
	 x="0px" y="0px" width="202.344px" height="25.051px" viewBox="0 0 202.344 25.051"
	 style="overflow:scroll;enable-background:new 0 0 202.344 25.051;" xml:space="preserve">
<style type="text/css">
	.st0{fill-rule:evenodd;clip-rule:evenodd;fill:#FFD100;}
	.st1{fill-rule:evenodd;clip-rule:evenodd;fill:none;}
	.st2{fill:#FFFFFF;}
	.st3{font-family:'Arial-BoldMT';}
	.st4{font-size:18.218px;}
</style>
<defs>
</defs>
<path class="st0" d="M195.603,24.469H6.8c-3.373,0-6.133-2.76-6.133-6.133V6.133C0.667,2.76,3.427,0,6.8,0l188.803,0
	c3.373,0,6.133,2.76,6.133,6.133v12.203C201.736,21.709,198.976,24.469,195.603,24.469z"/>
<g>
	<rect y="5.148" class="st1" width="202.344" height="19.592"/>
	<path class="st2" d="M7.631,18.192L2.97,5.151h2.855l3.301,9.651l3.193-9.651h2.793l-4.67,13.041H7.631z"/>
	<path class="st2" d="M16.376,18.192V5.151h2.633v13.041H16.376z"/>
	<path class="st2" d="M21.508,5.151h4.813c1.085,0,1.913,0.083,2.481,0.249c0.766,0.226,1.421,0.626,1.967,1.201
		c0.545,0.575,0.961,1.279,1.245,2.112c0.284,0.834,0.427,1.861,0.427,3.083c0,1.073-0.133,1.998-0.4,2.775
		c-0.326,0.948-0.791,1.717-1.396,2.304c-0.457,0.444-1.073,0.792-1.85,1.041c-0.582,0.184-1.359,0.275-2.331,0.275h-4.955V5.151z
		 M24.142,7.357v8.638h1.965c0.736,0,1.267-0.041,1.593-0.124c0.427-0.107,0.781-0.288,1.063-0.543
		c0.281-0.255,0.512-0.675,0.689-1.259s0.266-1.38,0.266-2.389c0-1.008-0.088-1.782-0.266-2.321
		c-0.178-0.54-0.428-0.961-0.748-1.264c-0.32-0.302-0.727-0.507-1.219-0.613c-0.367-0.083-1.088-0.125-2.161-0.125H24.142z"/>
	<path class="st2" d="M34.673,18.192V5.151h9.67v2.206h-7.037v2.892h6.547v2.197h-6.547v3.549h7.286v2.197H34.673z"/>
	<path class="st2" d="M46.292,11.752c0-1.328,0.198-2.443,0.596-3.345c0.297-0.664,0.701-1.26,1.214-1.788
		c0.514-0.527,1.075-0.919,1.687-1.174c0.812-0.344,1.749-0.516,2.811-0.516c1.922,0,3.459,0.596,4.612,1.787
		c1.153,1.192,1.73,2.85,1.73,4.973c0,2.105-0.572,3.753-1.717,4.941c-1.145,1.189-2.675,1.784-4.591,1.784
		c-1.938,0-3.48-0.592-4.625-1.775C46.864,15.457,46.292,13.828,46.292,11.752z M49.004,11.663c0,1.477,0.341,2.596,1.022,3.358
		c0.683,0.762,1.548,1.143,2.598,1.143s1.911-0.378,2.584-1.134c0.674-0.757,1.01-1.891,1.01-3.402c0-1.495-0.327-2.609-0.982-3.345
		s-1.525-1.104-2.611-1.104c-1.085,0-1.96,0.372-2.624,1.116S49.004,10.163,49.004,11.663z"/>
	<path class="st2" d="M60.329,13.949L62.89,13.7c0.154,0.86,0.468,1.491,0.938,1.895c0.472,0.403,1.108,0.605,1.908,0.605
		c0.849,0,1.487-0.18,1.917-0.539c0.431-0.358,0.646-0.778,0.646-1.258c0-0.309-0.091-0.571-0.271-0.788
		c-0.181-0.216-0.497-0.404-0.947-0.564c-0.309-0.106-1.012-0.297-2.108-0.569c-1.411-0.35-2.401-0.779-2.971-1.29
		C61.201,10.474,60.8,9.599,60.8,8.567c0-0.664,0.188-1.285,0.564-1.863c0.377-0.578,0.919-1.019,1.628-1.321
		s1.564-0.453,2.566-0.453c1.637,0,2.869,0.358,3.696,1.076s1.262,1.675,1.303,2.873l-2.633,0.115
		c-0.112-0.67-0.354-1.151-0.725-1.445c-0.371-0.293-0.927-0.44-1.668-0.44c-0.766,0-1.364,0.157-1.797,0.472
		c-0.279,0.202-0.418,0.472-0.418,0.81c0,0.309,0.13,0.572,0.391,0.792c0.332,0.278,1.139,0.569,2.42,0.871
		c1.281,0.303,2.229,0.615,2.842,0.938c0.614,0.323,1.095,0.766,1.441,1.326c0.347,0.56,0.521,1.252,0.521,2.076
		c0,0.748-0.208,1.447-0.623,2.1s-1.002,1.138-1.761,1.455c-0.76,0.316-1.705,0.476-2.838,0.476c-1.648,0-2.915-0.381-3.799-1.144
		C61.029,16.518,60.5,15.408,60.329,13.949z"/>
	<path class="st2" d="M78.2,5.151h4.813c1.085,0,1.913,0.083,2.481,0.249c0.766,0.226,1.421,0.626,1.967,1.201
		c0.545,0.575,0.96,1.279,1.245,2.112c0.284,0.834,0.427,1.861,0.427,3.083c0,1.073-0.134,1.998-0.4,2.775
		c-0.326,0.948-0.792,1.717-1.396,2.304c-0.457,0.444-1.073,0.792-1.851,1.041c-0.581,0.184-1.357,0.275-2.33,0.275H78.2V5.151z
		 M80.833,7.357v8.638h1.966c0.735,0,1.267-0.041,1.593-0.124c0.427-0.107,0.781-0.288,1.063-0.543
		c0.281-0.255,0.511-0.675,0.688-1.259c0.179-0.584,0.268-1.38,0.268-2.389c0-1.008-0.089-1.782-0.268-2.321
		c-0.178-0.54-0.427-0.961-0.747-1.264c-0.32-0.302-0.727-0.507-1.219-0.613c-0.367-0.083-1.088-0.125-2.161-0.125H80.833z"/>
	<path class="st2" d="M91.365,18.192V5.151h9.67v2.206h-7.037v2.892h6.548v2.197h-6.548v3.549h7.286v2.197H91.365z"/>
	<path class="st2" d="M111.513,18.192V7.357h-3.869V5.151h10.363v2.206h-3.861v10.835H111.513z"/>
	<path class="st2" d="M119.706,18.192V5.151h9.67v2.206h-7.037v2.892h6.548v2.197h-6.548v3.549h7.286v2.197H119.706z"/>
	<path class="st2" d="M131.866,18.192V5.151h5.542c1.394,0,2.406,0.117,3.038,0.352s1.137,0.651,1.517,1.25s0.569,1.284,0.569,2.055
		c0,0.979-0.288,1.787-0.863,2.424c-0.575,0.638-1.435,1.04-2.579,1.205c0.569,0.333,1.039,0.697,1.41,1.095
		c0.37,0.397,0.87,1.103,1.498,2.117l1.593,2.544h-3.149l-1.903-2.838c-0.676-1.014-1.139-1.652-1.388-1.917
		c-0.249-0.264-0.513-0.444-0.792-0.542c-0.278-0.099-0.72-0.147-1.325-0.147H134.5v5.444H131.866z M134.5,10.667h1.947
		c1.264,0,2.053-0.054,2.366-0.16c0.314-0.106,0.561-0.291,0.739-0.552c0.178-0.261,0.267-0.587,0.267-0.979
		c0-0.438-0.117-0.793-0.352-1.063c-0.234-0.271-0.564-0.44-0.992-0.512c-0.213-0.03-0.854-0.045-1.921-0.045H134.5V10.667z"/>
	<path class="st2" d="M156.773,18.192h-2.864l-1.139-2.962h-5.213l-1.076,2.962h-2.793l5.079-13.041h2.784L156.773,18.192z
		 M151.925,13.033l-1.797-4.839l-1.762,4.839H151.925z M148.616,4.404l1.228-2.66h2.803l-2.446,2.66H148.616z"/>
	<path class="st2" d="M158.169,18.192V5.151h4.226c1.602,0,2.645,0.065,3.131,0.196c0.748,0.195,1.373,0.621,1.877,1.276
		s0.757,1.502,0.757,2.539c0,0.801-0.146,1.474-0.437,2.02c-0.29,0.546-0.659,0.975-1.107,1.285
		c-0.447,0.312-0.902,0.518-1.365,0.618c-0.629,0.125-1.539,0.188-2.73,0.188h-1.718v4.919H158.169z M160.802,7.357v3.701h1.441
		c1.038,0,1.731-0.068,2.082-0.205c0.35-0.137,0.624-0.35,0.822-0.641c0.199-0.29,0.298-0.628,0.298-1.014
		c0-0.475-0.139-0.866-0.418-1.175c-0.278-0.308-0.631-0.501-1.059-0.578c-0.314-0.059-0.945-0.089-1.895-0.089H160.802z"/>
	<path class="st2" d="M170.241,18.192V5.151h2.634v13.041H170.241z"/>
	<path class="st2" d="M187.142,18.192h-2.864l-1.139-2.962h-5.213l-1.076,2.962h-2.793l5.079-13.041h2.784L187.142,18.192z
		 M182.294,13.033l-1.797-4.839l-1.762,4.839H182.294z"/>
	<path class="st2" d="M187.872,13.949l2.562-0.249c0.154,0.86,0.468,1.491,0.938,1.895c0.472,0.403,1.108,0.605,1.908,0.605
		c0.849,0,1.487-0.18,1.917-0.539c0.431-0.358,0.646-0.778,0.646-1.258c0-0.309-0.091-0.571-0.271-0.788
		c-0.181-0.216-0.497-0.404-0.947-0.564c-0.309-0.106-1.012-0.297-2.108-0.569c-1.411-0.35-2.401-0.779-2.971-1.29
		c-0.801-0.717-1.201-1.592-1.201-2.624c0-0.664,0.188-1.285,0.564-1.863c0.377-0.578,0.919-1.019,1.628-1.321
		s1.564-0.453,2.566-0.453c1.637,0,2.869,0.358,3.696,1.076s1.262,1.675,1.303,2.873l-2.633,0.115
		c-0.112-0.67-0.354-1.151-0.725-1.445c-0.371-0.293-0.927-0.44-1.668-0.44c-0.766,0-1.364,0.157-1.797,0.472
		c-0.279,0.202-0.418,0.472-0.418,0.81c0,0.309,0.13,0.572,0.391,0.792c0.332,0.278,1.139,0.569,2.42,0.871
		c1.281,0.303,2.229,0.615,2.842,0.938c0.614,0.323,1.095,0.766,1.441,1.326c0.347,0.56,0.521,1.252,0.521,2.076
		c0,0.748-0.208,1.447-0.623,2.1s-1.002,1.138-1.761,1.455c-0.76,0.316-1.705,0.476-2.838,0.476c-1.648,0-2.915-0.381-3.799-1.144
		C188.572,16.518,188.043,15.408,187.872,13.949z"/>
</g>
</svg>