<!-- Generator: Adobe Illustrator 22.0.0, SVG Export Plug-In  -->
<svg version="1.1"
	 xmlns="http://www.w3.org/2000/svg" xmlns:xlink="http://www.w3.org/1999/xlink" xmlns:a="http://ns.adobe.com/AdobeSVGViewerExtensions/3.0/"
	 x="0px" y="0px" width="868px" height="368px" viewBox="0 0 868 368" style="overflow:scroll;enable-background:new 0 0 868 368;"
	 xml:space="preserve">
<style type="text/css">
	.st0{opacity:0.4;fill-rule:evenodd;clip-rule:evenodd;fill:#009CA6;}
	.st1{fill:none;}
	.st2{fill:#666666;}
	.st3{fill-rule:evenodd;clip-rule:evenodd;fill:none;stroke:#000000;stroke-width:5;stroke-miterlimit:10;}
	.st4{font-family:'Arial-BoldMT';}
	.st5{font-size:40px;}
	.st6{font-family:'MyriadPro-Regular';}
	.st7{letter-spacing:-1;}
	.st8{font-size:29.6909px;}
</style>
<defs>
</defs>
<path class="st0" d="M512,56H279c-6.6,0-12-5.4-12-12V12c0-6.6,5.4-12,12-12h233c6.6,0,12,5.4,12,12v32C524,50.6,518.6,56,512,56z"
	/>
<g>
	<path d="M295.549,43.524V14.892h12.225c3.074,0,5.308,0.257,6.702,0.771c1.393,0.515,2.508,1.429,3.346,2.744
		c0.837,1.315,1.256,2.819,1.256,4.512c0,2.148-0.635,3.923-1.904,5.322s-3.166,2.282-5.69,2.646c1.256,0.729,2.292,1.53,3.11,2.402
		c0.817,0.872,1.919,2.422,3.306,4.648l3.513,5.586h-6.947l-4.199-6.23c-1.491-2.227-2.512-3.63-3.061-4.209
		s-1.132-0.977-1.747-1.191c-0.615-0.215-1.589-0.322-2.924-0.322h-1.177v11.953H295.549z M301.357,27.001h4.297
		c2.787,0,4.526-0.117,5.22-0.352s1.236-0.638,1.629-1.211c0.392-0.573,0.588-1.289,0.588-2.148c0-0.964-0.258-1.741-0.775-2.334
		c-0.517-0.593-1.246-0.967-2.188-1.123c-0.471-0.065-1.884-0.098-4.239-0.098h-4.533V27.001z"/>
	<path d="M324.552,43.524V14.892h21.33v4.844H330.36v6.348h14.442v4.824H330.36V38.7h16.071v4.824H324.552z"/>
	<path d="M364.74,32.997v-4.824h12.52v11.406c-1.216,1.172-2.979,2.204-5.288,3.096c-2.309,0.892-4.648,1.338-7.016,1.338
		c-3.009,0-5.632-0.628-7.869-1.885c-2.237-1.257-3.918-3.054-5.043-5.391c-1.125-2.337-1.688-4.88-1.688-7.627
		c0-2.981,0.628-5.632,1.884-7.949c1.256-2.317,3.094-4.095,5.514-5.332c1.845-0.95,4.141-1.426,6.888-1.426
		c3.572,0,6.361,0.745,8.369,2.236s3.3,3.552,3.876,6.182l-5.77,1.074c-0.405-1.406-1.167-2.517-2.286-3.33
		c-1.118-0.813-2.515-1.221-4.189-1.221c-2.538,0-4.556,0.801-6.054,2.402s-2.247,3.978-2.247,7.129
		c0,3.398,0.758,5.947,2.276,7.646c1.517,1.699,3.505,2.549,5.965,2.549c1.216,0,2.436-0.237,3.66-0.713
		c1.223-0.476,2.273-1.052,3.149-1.729v-3.633H364.74z"/>
	<path d="M382.439,43.524V14.892h5.809v28.633H382.439z"/>
	<path d="M392.311,34.208l5.651-0.547c0.34,1.888,1.03,3.274,2.07,4.16s2.443,1.328,4.209,1.328c1.871,0,3.28-0.394,4.229-1.182
		s1.423-1.709,1.423-2.764c0-0.677-0.199-1.253-0.599-1.729c-0.398-0.476-1.096-0.889-2.09-1.24c-0.68-0.234-2.23-0.651-4.65-1.25
		c-3.113-0.769-5.298-1.712-6.554-2.832c-1.767-1.575-2.649-3.496-2.649-5.762c0-1.458,0.415-2.822,1.246-4.092
		c0.83-1.27,2.027-2.236,3.591-2.9s3.45-0.996,5.661-0.996c3.611,0,6.329,0.788,8.153,2.363c1.825,1.575,2.783,3.679,2.875,6.309
		l-5.809,0.254c-0.248-1.472-0.781-2.529-1.599-3.174c-0.818-0.645-2.045-0.967-3.68-0.967c-1.688,0-3.009,0.345-3.964,1.035
		c-0.615,0.442-0.922,1.035-0.922,1.777c0,0.677,0.287,1.257,0.863,1.738c0.732,0.612,2.512,1.25,5.337,1.914
		c2.826,0.664,4.916,1.351,6.27,2.061c1.354,0.71,2.414,1.68,3.18,2.91c0.765,1.23,1.147,2.751,1.147,4.561
		c0,1.641-0.458,3.177-1.374,4.609c-0.915,1.433-2.211,2.497-3.885,3.193c-1.675,0.696-3.762,1.045-6.26,1.045
		c-3.637,0-6.43-0.837-8.379-2.51C393.854,39.85,392.689,37.411,392.311,34.208z"/>
	<path d="M427.063,43.524V19.735h-8.536v-4.844h22.861v4.844h-8.517v23.789H427.063z"/>
	<path d="M445.155,43.524V14.892h12.226c3.074,0,5.308,0.257,6.701,0.771c1.393,0.515,2.508,1.429,3.346,2.744
		c0.837,1.315,1.256,2.819,1.256,4.512c0,2.148-0.635,3.923-1.903,5.322c-1.27,1.399-3.166,2.282-5.691,2.646
		c1.256,0.729,2.293,1.53,3.11,2.402s1.92,2.422,3.307,4.648l3.513,5.586h-6.946l-4.199-6.23c-1.492-2.227-2.512-3.63-3.062-4.209
		s-1.132-0.977-1.746-1.191c-0.615-0.215-1.59-0.322-2.924-0.322h-1.178v11.953H445.155z M450.964,27.001h4.298
		c2.786,0,4.525-0.117,5.22-0.352c0.692-0.234,1.235-0.638,1.628-1.211s0.589-1.289,0.589-2.148c0-0.964-0.259-1.741-0.775-2.334
		s-1.246-0.967-2.188-1.123c-0.471-0.065-1.884-0.098-4.238-0.098h-4.533V27.001z"/>
	<path d="M472.98,29.384c0-2.917,0.438-5.364,1.315-7.344c0.653-1.458,1.547-2.767,2.678-3.926c1.132-1.159,2.371-2.019,3.719-2.578
		c1.792-0.755,3.859-1.133,6.201-1.133c4.238,0,7.63,1.309,10.175,3.926c2.544,2.617,3.816,6.257,3.816,10.918
		c0,4.622-1.263,8.239-3.787,10.85c-2.525,2.61-5.9,3.916-10.126,3.916c-4.277,0-7.679-1.299-10.203-3.896
		C474.243,37.519,472.98,33.941,472.98,29.384z M478.966,29.188c0,3.242,0.752,5.7,2.257,7.373c1.504,1.673,3.414,2.51,5.729,2.51
		s4.216-0.83,5.701-2.49c1.484-1.66,2.227-4.15,2.227-7.471c0-3.281-0.723-5.729-2.168-7.344s-3.365-2.422-5.76-2.422
		c-2.394,0-4.323,0.817-5.788,2.451C479.698,23.43,478.966,25.895,478.966,29.188z"/>
</g>
<g>
	<rect y="83.903" class="st1" width="868" height="98.097"/>
	<path class="st2" d="M3.04,85.667c1.68-0.279,3.879-0.52,6.679-0.52c3.439,0,5.959,0.8,7.559,2.239
		c1.479,1.28,2.359,3.239,2.359,5.64c0,2.439-0.72,4.358-2.08,5.759c-1.84,1.96-4.839,2.959-8.239,2.959c-1.04,0-2-0.04-2.799-0.239
		v10.798H3.04V85.667z M6.519,98.665c0.76,0.2,1.72,0.28,2.879,0.28c4.199,0,6.759-2.04,6.759-5.76c0-3.559-2.52-5.278-6.359-5.278
		c-1.52,0-2.68,0.119-3.279,0.279V98.665z"/>
	<path class="st2" d="M33.878,112.303l-0.28-2.439h-0.12c-1.08,1.52-3.16,2.879-5.919,2.879c-3.919,0-5.919-2.759-5.919-5.559
		c0-4.68,4.159-7.239,11.638-7.199v-0.399c0-1.6-0.44-4.479-4.399-4.479c-1.8,0-3.68,0.561-5.039,1.439l-0.8-2.319
		c1.6-1.04,3.919-1.72,6.359-1.72c5.919,0,7.358,4.039,7.358,7.919v7.238c0,1.68,0.08,3.32,0.32,4.64H33.878z M33.358,102.425
		c-3.839-0.08-8.199,0.6-8.199,4.358c0,2.28,1.52,3.36,3.32,3.36c2.52,0,4.119-1.601,4.679-3.24c0.12-0.359,0.2-0.76,0.2-1.119
		V102.425z"/>
	<path class="st2" d="M42.439,98.985c0-2.28-0.04-4.239-0.16-6.039h3.079l0.12,3.799h0.16c0.88-2.6,3-4.239,5.359-4.239
		c0.4,0,0.68,0.04,1,0.12v3.319c-0.36-0.08-0.72-0.12-1.2-0.12c-2.48,0-4.24,1.88-4.719,4.52c-0.08,0.479-0.16,1.04-0.16,1.64
		v10.318h-3.479V98.985z"/>
	<path class="st2" d="M66.038,112.303l-0.28-2.439h-0.12c-1.08,1.52-3.16,2.879-5.919,2.879c-3.919,0-5.919-2.759-5.919-5.559
		c0-4.68,4.159-7.239,11.638-7.199v-0.399c0-1.6-0.44-4.479-4.399-4.479c-1.8,0-3.68,0.561-5.039,1.439l-0.8-2.319
		c1.6-1.04,3.919-1.72,6.359-1.72c5.919,0,7.358,4.039,7.358,7.919v7.238c0,1.68,0.08,3.32,0.32,4.64H66.038z M65.518,102.425
		c-3.839-0.08-8.199,0.6-8.199,4.358c0,2.28,1.52,3.36,3.32,3.36c2.52,0,4.119-1.601,4.679-3.24c0.12-0.359,0.2-0.76,0.2-1.119
		V102.425z"/>
	<path class="st2" d="M96.877,111.583c-0.92,0.479-2.959,1.12-5.559,1.12c-5.839,0-9.639-3.96-9.639-9.879
		c0-5.959,4.08-10.278,10.398-10.278c2.08,0,3.919,0.521,4.879,1l-0.8,2.72c-0.84-0.48-2.159-0.92-4.079-0.92
		c-4.439,0-6.839,3.279-6.839,7.318c0,4.479,2.879,7.239,6.719,7.239c2,0,3.32-0.521,4.319-0.96L96.877,111.583z"/>
	<path class="st2" d="M118.276,102.465c0,7.158-4.959,10.277-9.638,10.277c-5.239,0-9.279-3.839-9.279-9.958
		c0-6.479,4.239-10.278,9.599-10.278C114.517,92.506,118.276,96.545,118.276,102.465z M102.919,102.664
		c0,4.239,2.439,7.439,5.879,7.439c3.359,0,5.879-3.16,5.879-7.52c0-3.279-1.64-7.438-5.799-7.438S102.919,98.985,102.919,102.664z"
		/>
	<path class="st2" d="M122.719,98.186c0-2-0.04-3.64-0.16-5.239h3.119l0.2,3.199h0.08c0.959-1.84,3.199-3.64,6.399-3.64
		c2.679,0,6.839,1.6,6.839,8.239v11.558h-3.52v-11.158c0-3.119-1.16-5.719-4.479-5.719c-2.319,0-4.119,1.64-4.719,3.6
		c-0.16,0.439-0.24,1.039-0.24,1.64v11.638h-3.52V98.186z"/>
	<path class="st2" d="M148.999,87.387v5.56h5.039v2.68h-5.039v10.438c0,2.399,0.68,3.76,2.64,3.76c0.92,0,1.6-0.12,2.04-0.24
		l0.16,2.64c-0.68,0.28-1.76,0.48-3.12,0.48c-1.64,0-2.959-0.521-3.799-1.48c-1-1.04-1.36-2.76-1.36-5.039V95.626h-3v-2.68h3v-4.64
		L148.999,87.387z"/>
	<path class="st2" d="M161.918,87.507c0.04,1.2-0.84,2.16-2.24,2.16c-1.24,0-2.12-0.96-2.12-2.16c0-1.239,0.92-2.199,2.2-2.199
		C161.079,85.308,161.918,86.268,161.918,87.507z M157.999,112.303V92.946h3.52v19.356H157.999z"/>
	<path class="st2" d="M167.359,98.186c0-2-0.04-3.64-0.16-5.239h3.119l0.2,3.199h0.08c0.959-1.84,3.199-3.64,6.399-3.64
		c2.679,0,6.839,1.6,6.839,8.239v11.558h-3.52v-11.158c0-3.119-1.16-5.719-4.479-5.719c-2.319,0-4.119,1.64-4.719,3.6
		c-0.16,0.439-0.24,1.039-0.24,1.64v11.638h-3.52V98.186z"/>
	<path class="st2" d="M205.756,107.023c0,2,0.04,3.76,0.16,5.279h-3.12l-0.2-3.159h-0.08c-0.92,1.56-2.959,3.599-6.399,3.599
		c-3.04,0-6.679-1.68-6.679-8.479V92.946h3.52v10.718c0,3.68,1.12,6.159,4.319,6.159c2.36,0,4-1.64,4.639-3.199
		c0.2-0.521,0.32-1.16,0.32-1.8V92.946h3.52V107.023z"/>
	<path class="st2" d="M222.316,112.303l-0.28-2.439h-0.12c-1.08,1.52-3.16,2.879-5.919,2.879c-3.919,0-5.919-2.759-5.919-5.559
		c0-4.68,4.159-7.239,11.638-7.199v-0.399c0-1.6-0.44-4.479-4.399-4.479c-1.8,0-3.68,0.561-5.039,1.439l-0.8-2.319
		c1.6-1.04,3.919-1.72,6.359-1.72c5.919,0,7.358,4.039,7.358,7.919v7.238c0,1.68,0.08,3.32,0.32,4.64H222.316z M221.796,102.425
		c-3.839-0.08-8.199,0.6-8.199,4.358c0,2.28,1.52,3.36,3.32,3.36c2.52,0,4.119-1.601,4.679-3.24c0.12-0.359,0.2-0.76,0.2-1.119
		V102.425z"/>
	<path class="st2" d="M230.878,98.985c0-2.28-0.04-4.239-0.16-6.039h3.079l0.12,3.799h0.16c0.88-2.6,3-4.239,5.359-4.239
		c0.4,0,0.68,0.04,1,0.12v3.319c-0.36-0.08-0.72-0.12-1.2-0.12c-2.48,0-4.24,1.88-4.719,4.52c-0.08,0.479-0.16,1.04-0.16,1.64
		v10.318h-3.479V98.985z"/>
	<path class="st2" d="M252.437,99.265c0-2.479-0.08-4.479-0.16-6.318h3.159l0.16,3.319h0.08c1.439-2.359,3.719-3.76,6.878-3.76
		c4.679,0,8.199,3.96,8.199,9.839c0,6.959-4.239,10.397-8.798,10.397c-2.56,0-4.799-1.119-5.959-3.039h-0.08v10.519h-3.479V99.265z
		 M255.917,104.424c0,0.521,0.08,1,0.16,1.44c0.64,2.439,2.759,4.119,5.279,4.119c3.72,0,5.879-3.04,5.879-7.479
		c0-3.879-2.04-7.198-5.759-7.198c-2.399,0-4.639,1.72-5.319,4.359c-0.12,0.439-0.24,0.96-0.24,1.439V104.424z"/>
	<path class="st2" d="M292.713,102.465c0,7.158-4.959,10.277-9.638,10.277c-5.239,0-9.279-3.839-9.279-9.958
		c0-6.479,4.24-10.278,9.599-10.278C288.954,92.506,292.713,96.545,292.713,102.465z M277.356,102.664
		c0,4.239,2.439,7.439,5.879,7.439c3.359,0,5.879-3.16,5.879-7.52c0-3.279-1.64-7.438-5.799-7.438S277.356,98.985,277.356,102.664z"
		/>
	<path class="st2" d="M297.156,98.985c0-2.28-0.04-4.239-0.16-6.039h3.079l0.12,3.799h0.16c0.88-2.6,3-4.239,5.359-4.239
		c0.4,0,0.68,0.04,1,0.12v3.319c-0.36-0.08-0.72-0.12-1.2-0.12c-2.48,0-4.24,1.88-4.719,4.52c-0.08,0.479-0.16,1.04-0.16,1.64
		v10.318h-3.479V98.985z"/>
	<path class="st2" d="M319.075,112.303V95.626h-2.719v-2.68h2.719v-0.92c0-2.72,0.6-5.199,2.24-6.759c1.32-1.28,3.08-1.8,4.719-1.8
		c1.24,0,2.32,0.279,3,0.56l-0.48,2.72c-0.52-0.24-1.24-0.44-2.24-0.44c-3,0-3.759,2.64-3.759,5.6v1.04h4.679v2.68h-4.679v16.677
		H319.075z"/>
	<path class="st2" d="M341.113,112.303l-0.28-2.439h-0.12c-1.08,1.52-3.16,2.879-5.919,2.879c-3.919,0-5.919-2.759-5.919-5.559
		c0-4.68,4.159-7.239,11.638-7.199v-0.399c0-1.6-0.44-4.479-4.399-4.479c-1.8,0-3.68,0.561-5.039,1.439l-0.8-2.319
		c1.6-1.04,3.919-1.72,6.359-1.72c5.919,0,7.358,4.039,7.358,7.919v7.238c0,1.68,0.08,3.32,0.32,4.64H341.113z M340.593,102.425
		c-3.839-0.08-8.199,0.6-8.199,4.358c0,2.28,1.52,3.36,3.32,3.36c2.52,0,4.119-1.601,4.679-3.24c0.12-0.359,0.2-0.76,0.2-1.119
		V102.425z"/>
	<path class="st2" d="M350.715,92.946l3.799,10.878c0.64,1.76,1.16,3.359,1.56,4.959h0.12c0.44-1.6,1-3.199,1.64-4.959l3.759-10.878
		h3.68l-7.599,19.356h-3.359l-7.359-19.356H350.715z"/>
	<path class="st2" d="M385.712,102.465c0,7.158-4.959,10.277-9.638,10.277c-5.239,0-9.279-3.839-9.279-9.958
		c0-6.479,4.239-10.278,9.599-10.278C381.953,92.506,385.712,96.545,385.712,102.465z M370.354,102.664
		c0,4.239,2.439,7.439,5.879,7.439c3.359,0,5.879-3.16,5.879-7.52c0-3.279-1.64-7.438-5.799-7.438S370.354,98.985,370.354,102.664z"
		/>
	<path class="st2" d="M390.155,98.985c0-2.28-0.04-4.239-0.16-6.039h3.079l0.12,3.799h0.16c0.88-2.6,2.999-4.239,5.359-4.239
		c0.399,0,0.68,0.04,0.999,0.12v3.319c-0.359-0.08-0.72-0.12-1.199-0.12c-2.479,0-4.239,1.88-4.72,4.52
		c-0.08,0.479-0.159,1.04-0.159,1.64v10.318h-3.479V98.985z"/>
	<path class="st2" d="M415.634,87.507c0.04,1.2-0.84,2.16-2.239,2.16c-1.24,0-2.12-0.96-2.12-2.16c0-1.239,0.92-2.199,2.2-2.199
		C414.794,85.308,415.634,86.268,415.634,87.507z M411.715,112.303V92.946h3.519v19.356H411.715z"/>
	<path class="st2" d="M421.074,98.186c0-2-0.04-3.64-0.16-5.239h3.119l0.2,3.199h0.08c0.96-1.84,3.199-3.64,6.398-3.64
		c2.68,0,6.839,1.6,6.839,8.239v11.558h-3.52v-11.158c0-3.119-1.159-5.719-4.479-5.719c-2.32,0-4.12,1.64-4.72,3.6
		c-0.16,0.439-0.24,1.039-0.24,1.64v11.638h-3.519V98.186z"/>
	<path class="st2" d="M459.951,92.946c-0.08,1.399-0.16,2.959-0.16,5.318v11.238c0,4.439-0.88,7.159-2.76,8.839
		c-1.879,1.76-4.599,2.319-7.038,2.319c-2.32,0-4.88-0.56-6.439-1.6l0.88-2.68c1.28,0.8,3.279,1.52,5.68,1.52
		c3.599,0,6.238-1.879,6.238-6.759v-2.159h-0.08c-1.079,1.8-3.159,3.239-6.158,3.239c-4.8,0-8.239-4.079-8.239-9.438
		c0-6.559,4.279-10.278,8.719-10.278c3.359,0,5.199,1.76,6.039,3.359h0.08l0.16-2.919H459.951z M456.312,100.585
		c0-0.601-0.04-1.12-0.199-1.6c-0.641-2.04-2.36-3.72-4.92-3.72c-3.359,0-5.759,2.84-5.759,7.318c0,3.8,1.92,6.959,5.719,6.959
		c2.16,0,4.12-1.359,4.88-3.6c0.199-0.6,0.279-1.279,0.279-1.879V100.585z"/>
	<path class="st2" d="M465.394,98.985c0-2.28-0.04-4.239-0.16-6.039h3.079l0.12,3.799h0.16c0.88-2.6,2.999-4.239,5.359-4.239
		c0.399,0,0.68,0.04,0.999,0.12v3.319c-0.359-0.08-0.72-0.12-1.199-0.12c-2.479,0-4.239,1.88-4.72,4.52
		c-0.08,0.479-0.159,1.04-0.159,1.64v10.318h-3.479V98.985z"/>
	<path class="st2" d="M480.033,103.265c0.08,4.759,3.12,6.719,6.639,6.719c2.521,0,4.04-0.44,5.359-1l0.601,2.52
		c-1.24,0.56-3.36,1.2-6.439,1.2c-5.959,0-9.519-3.92-9.519-9.759s3.439-10.438,9.079-10.438c6.318,0,7.998,5.56,7.998,9.119
		c0,0.72-0.08,1.279-0.12,1.64H480.033z M490.352,100.745c0.04-2.24-0.92-5.72-4.879-5.72c-3.56,0-5.119,3.279-5.399,5.72H490.352z"
		/>
	<path class="st2" d="M497.634,108.703c1.04,0.68,2.88,1.4,4.64,1.4c2.56,0,3.759-1.28,3.759-2.88c0-1.68-1-2.6-3.599-3.56
		c-3.479-1.239-5.119-3.159-5.119-5.479c0-3.12,2.52-5.68,6.679-5.68c1.959,0,3.679,0.561,4.759,1.2l-0.88,2.56
		c-0.76-0.48-2.159-1.12-3.959-1.12c-2.08,0-3.239,1.2-3.239,2.64c0,1.6,1.159,2.319,3.679,3.279c3.359,1.28,5.079,2.96,5.079,5.839
		c0,3.399-2.64,5.8-7.238,5.8c-2.12,0-4.079-0.521-5.439-1.32L497.634,108.703z"/>
	<path class="st2" d="M524.672,112.303l-0.28-2.439h-0.12c-1.079,1.52-3.159,2.879-5.919,2.879c-3.919,0-5.919-2.759-5.919-5.559
		c0-4.68,4.159-7.239,11.639-7.199v-0.399c0-1.6-0.44-4.479-4.399-4.479c-1.8,0-3.68,0.561-5.039,1.439l-0.8-2.319
		c1.6-1.04,3.919-1.72,6.358-1.72c5.919,0,7.359,4.039,7.359,7.919v7.238c0,1.68,0.08,3.32,0.319,4.64H524.672z M524.152,102.425
		c-3.84-0.08-8.199,0.6-8.199,4.358c0,2.28,1.52,3.36,3.319,3.36c2.52,0,4.12-1.601,4.68-3.24c0.12-0.359,0.2-0.76,0.2-1.119
		V102.425z"/>
	<path class="st2" d="M533.234,98.985c0-2.28-0.04-4.239-0.16-6.039h3.079l0.12,3.799h0.16c0.88-2.6,2.999-4.239,5.359-4.239
		c0.399,0,0.68,0.04,0.999,0.12v3.319c-0.359-0.08-0.72-0.12-1.199-0.12c-2.479,0-4.239,1.88-4.72,4.52
		c-0.08,0.479-0.16,1.04-0.16,1.64v10.318h-3.479V98.985z"/>
	<path class="st2" d="M554.313,108.703c1.04,0.68,2.88,1.4,4.64,1.4c2.56,0,3.759-1.28,3.759-2.88c0-1.68-1-2.6-3.599-3.56
		c-3.479-1.239-5.119-3.159-5.119-5.479c0-3.12,2.52-5.68,6.679-5.68c1.959,0,3.679,0.561,4.759,1.2l-0.88,2.56
		c-0.76-0.48-2.159-1.12-3.959-1.12c-2.08,0-3.239,1.2-3.239,2.64c0,1.6,1.159,2.319,3.679,3.279c3.359,1.28,5.079,2.96,5.079,5.839
		c0,3.399-2.64,5.8-7.238,5.8c-2.12,0-4.079-0.521-5.439-1.32L554.313,108.703z"/>
	<path class="st2" d="M586.831,107.023c0,2,0.04,3.76,0.159,5.279h-3.119l-0.2-3.159h-0.08c-0.92,1.56-2.959,3.599-6.398,3.599
		c-3.04,0-6.679-1.68-6.679-8.479V92.946h3.52v10.718c0,3.68,1.119,6.159,4.319,6.159c2.359,0,3.999-1.64,4.639-3.199
		c0.2-0.521,0.32-1.16,0.32-1.8V92.946h3.52V107.023z"/>
	<path class="st2" d="M601.153,98.186c0-2-0.04-3.64-0.16-5.239h3.119l0.2,3.199h0.08c0.96-1.84,3.199-3.64,6.398-3.64
		c2.68,0,6.839,1.6,6.839,8.239v11.558h-3.52v-11.158c0-3.119-1.159-5.719-4.479-5.719c-2.32,0-4.12,1.64-4.72,3.6
		c-0.16,0.439-0.24,1.039-0.24,1.64v11.638h-3.519V98.186z"/>
	<path class="st2" d="M639.551,107.023c0,2,0.04,3.76,0.159,5.279h-3.119l-0.2-3.159h-0.08c-0.92,1.56-2.959,3.599-6.398,3.599
		c-3.04,0-6.679-1.68-6.679-8.479V92.946h3.52v10.718c0,3.68,1.119,6.159,4.319,6.159c2.359,0,3.999-1.64,4.639-3.199
		c0.2-0.521,0.32-1.16,0.32-1.8V92.946h3.52V107.023z M637.15,84.587l-4.879,5.72h-2.52l3.52-5.72H637.15z"/>
	<path class="st2" d="M645.394,98.186c0-2-0.04-3.64-0.16-5.239h3.079l0.16,3.119h0.12c1.08-1.84,2.879-3.56,6.079-3.56
		c2.64,0,4.639,1.6,5.479,3.88h0.08c0.6-1.08,1.36-1.92,2.16-2.52c1.159-0.88,2.439-1.36,4.279-1.36c2.56,0,6.358,1.68,6.358,8.398
		v11.398h-3.439v-10.958c0-3.72-1.359-5.959-4.199-5.959c-2,0-3.56,1.479-4.159,3.199c-0.16,0.48-0.28,1.12-0.28,1.76v11.958h-3.439
		v-11.598c0-3.08-1.359-5.319-4.039-5.319c-2.199,0-3.799,1.76-4.359,3.52c-0.2,0.52-0.279,1.119-0.279,1.72v11.678h-3.439V98.186z"
		/>
	<path class="st2" d="M680.713,103.265c0.08,4.759,3.12,6.719,6.639,6.719c2.521,0,4.04-0.44,5.359-1l0.601,2.52
		c-1.24,0.56-3.36,1.2-6.439,1.2c-5.959,0-9.519-3.92-9.519-9.759s3.439-10.438,9.079-10.438c6.318,0,7.998,5.56,7.998,9.119
		c0,0.72-0.08,1.279-0.12,1.64H680.713z M691.031,100.745c0.04-2.24-0.92-5.72-4.879-5.72c-3.56,0-5.119,3.279-5.399,5.72H691.031z"
		/>
	<path class="st2" d="M698.794,98.985c0-2.28-0.04-4.239-0.16-6.039h3.079l0.12,3.799h0.16c0.88-2.6,2.999-4.239,5.359-4.239
		c0.399,0,0.68,0.04,0.999,0.12v3.319c-0.359-0.08-0.72-0.12-1.199-0.12c-2.479,0-4.239,1.88-4.72,4.52
		c-0.08,0.479-0.159,1.04-0.159,1.64v10.318h-3.479V98.985z"/>
	<path class="st2" d="M728.991,102.465c0,7.158-4.959,10.277-9.639,10.277c-5.239,0-9.278-3.839-9.278-9.958
		c0-6.479,4.239-10.278,9.599-10.278C725.231,92.506,728.991,96.545,728.991,102.465z M713.634,102.664
		c0,4.239,2.439,7.439,5.879,7.439c3.359,0,5.879-3.16,5.879-7.52c0-3.279-1.64-7.438-5.799-7.438S713.634,98.985,713.634,102.664z"
		/>
	<path class="st2" d="M758.631,83.907v23.396c0,1.72,0.04,3.68,0.16,4.999h-3.16l-0.159-3.359h-0.08
		c-1.08,2.159-3.439,3.799-6.599,3.799c-4.68,0-8.279-3.959-8.279-9.838c-0.04-6.438,3.96-10.398,8.679-10.398
		c2.96,0,4.959,1.4,5.839,2.96h0.08V83.907H758.631z M755.111,100.824c0-0.439-0.04-1.039-0.16-1.479
		c-0.52-2.239-2.439-4.079-5.079-4.079c-3.639,0-5.799,3.199-5.799,7.479c0,3.92,1.92,7.159,5.719,7.159
		c2.36,0,4.52-1.56,5.159-4.199c0.12-0.48,0.16-0.96,0.16-1.52V100.824z"/>
	<path class="st2" d="M766.433,103.265c0.08,4.759,3.12,6.719,6.64,6.719c2.52,0,4.039-0.44,5.358-1l0.601,2.52
		c-1.24,0.56-3.36,1.2-6.439,1.2c-5.959,0-9.519-3.92-9.519-9.759s3.439-10.438,9.079-10.438c6.318,0,7.998,5.56,7.998,9.119
		c0,0.72-0.08,1.279-0.12,1.64H766.433z M776.751,100.745c0.04-2.24-0.92-5.72-4.879-5.72c-3.56,0-5.119,3.279-5.399,5.72H776.751z"
		/>
	<path class="st2" d="M793.112,85.707c2.12-0.319,4.64-0.56,7.399-0.56c4.999,0,8.559,1.159,10.918,3.359
		c2.399,2.199,3.8,5.319,3.8,9.679c0,4.398-1.36,7.998-3.88,10.478c-2.52,2.52-6.679,3.88-11.918,3.88
		c-2.479,0-4.56-0.12-6.319-0.32V85.707z M796.592,109.543c0.88,0.16,2.16,0.2,3.52,0.2c7.439,0,11.479-4.159,11.479-11.438
		c0.04-6.358-3.56-10.397-10.918-10.397c-1.8,0-3.16,0.159-4.08,0.359V109.543z"/>
	<path class="st2" d="M819.752,112.303V85.348h3.8l8.639,13.638c2,3.159,3.56,5.999,4.839,8.758l0.08-0.04
		c-0.32-3.599-0.399-6.879-0.399-11.078V85.348h3.279v26.955h-3.52l-8.559-13.678c-1.88-2.999-3.68-6.079-5.039-8.998l-0.12,0.04
		c0.2,3.399,0.28,6.639,0.28,11.118v11.518H819.752z"/>
	<path class="st2" d="M849.551,85.348v26.955h-3.479V85.348H849.551z"/>
	<path class="st2" d="M854.672,110.223c0-1.479,0.999-2.52,2.399-2.52c1.399,0,2.359,1.04,2.359,2.52c0,1.44-0.92,2.52-2.399,2.52
		C855.631,112.742,854.672,111.663,854.672,110.223z"/>
</g>
<path class="st3" d="M638.5,255.5H382c-6.6,0-12-5.4-12-12V222c0-6.6,5.4-12,12-12h256.5c6.6,0,12,5.4,12,12v21.5
	C650.5,250.1,645.1,255.5,638.5,255.5z"/>
<g>
	<rect x="168.366" y="214.903" class="st1" width="139.634" height="34.097"/>
	<path d="M171.405,243.303v-26.955h3.799l8.639,13.638c2,3.159,3.559,5.999,4.839,8.758l0.08-0.04c-0.32-3.599-0.4-6.879-0.4-11.078
		v-11.277h3.279v26.955h-3.519l-8.559-13.678c-1.88-2.999-3.68-6.079-5.039-8.998l-0.12,0.04c0.2,3.399,0.28,6.639,0.28,11.118
		v11.518H171.405z"/>
	<path d="M206.443,221.106c0,3.239-2.599,5.359-5.359,5.359c-3.12,0-5.239-2.36-5.239-5.159c-0.04-3.08,2.36-5.399,5.319-5.399
		C204.444,215.907,206.443,218.387,206.443,221.106z M198.005,221.307c0,1.84,1.36,3.279,3.12,3.279c1.8,0,3.16-1.479,3.16-3.439
		c0-1.479-0.88-3.359-3.16-3.359C199.045,217.787,198.005,219.587,198.005,221.307z"/>
	<path d="M218.924,216.707c2.12-0.319,4.639-0.56,7.399-0.56c4.999,0,8.558,1.159,10.918,3.359c2.399,2.199,3.799,5.319,3.799,9.679
		c0,4.398-1.36,7.998-3.879,10.478c-2.52,2.52-6.679,3.88-11.918,3.88c-2.479,0-4.559-0.12-6.319-0.32V216.707z M222.404,240.543
		c0.88,0.16,2.16,0.2,3.519,0.2c7.439,0,11.479-4.159,11.479-11.438c0.04-6.358-3.56-10.397-10.918-10.397
		c-1.8,0-3.159,0.159-4.079,0.359V240.543z"/>
	<path d="M245.564,243.303v-26.955h3.799l8.639,13.638c2,3.159,3.559,5.999,4.839,8.758l0.08-0.04c-0.32-3.599-0.4-6.879-0.4-11.078
		v-11.277h3.279v26.955h-3.519l-8.559-13.678c-1.88-2.999-3.68-6.079-5.039-8.998l-0.12,0.04c0.2,3.399,0.28,6.639,0.28,11.118
		v11.518H245.564z"/>
	<path d="M275.363,216.348v26.955h-3.479v-26.955H275.363z"/>
	<path d="M280.483,227.146c0-1.479,1-2.52,2.399-2.52c1.4,0,2.32,1.04,2.36,2.52c0,1.399-0.92,2.479-2.399,2.479
		C281.443,229.625,280.483,228.545,280.483,227.146z M280.483,241.263c0-1.479,1-2.52,2.399-2.52c1.4,0,2.32,1.04,2.36,2.52
		c0,1.4-0.92,2.479-2.399,2.479C281.443,243.742,280.483,242.663,280.483,241.263z"/>
</g>
<path class="st0" d="M582.858,367.567H416.094c-6.6,0-12-5.4-12-12V338c0-6.6,5.4-12,12-12h166.764c6.6,0,12,5.4,12,12v17.567
	C594.858,362.167,589.458,367.567,582.858,367.567z"/>
<g>
	<path d="M425.572,349.008l4.18,1.319c-0.641,2.32-1.706,4.043-3.197,5.169c-1.49,1.126-3.381,1.688-5.673,1.688
		c-2.835,0-5.166-0.964-6.991-2.893c-1.826-1.928-2.738-4.563-2.738-7.908c0-3.537,0.918-6.284,2.753-8.241s4.248-2.937,7.239-2.937
		c2.611,0,4.733,0.769,6.365,2.306c0.971,0.908,1.699,2.213,2.185,3.914l-4.269,1.015c-0.252-1.102-0.779-1.972-1.58-2.609
		s-1.774-0.957-2.92-0.957c-1.583,0-2.867,0.565-3.853,1.696s-1.479,2.963-1.479,5.495c0,2.687,0.485,4.601,1.456,5.74
		c0.971,1.141,2.234,1.711,3.787,1.711c1.146,0,2.132-0.362,2.957-1.087S425.213,350.564,425.572,349.008z"/>
	<path d="M432.578,346.326c0-2.165,0.325-3.981,0.977-5.451c0.484-1.082,1.147-2.054,1.987-2.914s1.761-1.498,2.761-1.914
		c1.33-0.56,2.864-0.841,4.603-0.841c3.146,0,5.663,0.972,7.552,2.914c1.889,1.943,2.834,4.645,2.834,8.104
		c0,3.431-0.938,6.115-2.812,8.054c-1.874,1.938-4.38,2.906-7.517,2.906c-3.175,0-5.699-0.964-7.574-2.893
		C433.516,352.364,432.578,349.709,432.578,346.326z M437.021,346.181c0,2.407,0.559,4.231,1.675,5.474
		c1.117,1.241,2.535,1.862,4.254,1.862s3.129-0.616,4.23-1.849c1.103-1.231,1.654-3.08,1.654-5.545c0-2.436-0.537-4.253-1.61-5.451
		s-2.498-1.798-4.274-1.798c-1.777,0-3.21,0.607-4.297,1.819C437.564,341.907,437.021,343.736,437.021,346.181z"/>
	<path d="M456.699,356.822v-21.253h4.195l8.739,14.192v-14.192h4.006v21.253h-4.326l-8.608-13.859v13.859H456.699z"/>
	<path d="M483.004,356.822v-17.658h-6.336v-3.595h16.969v3.595h-6.321v17.658H483.004z"/>
	<path d="M496.288,356.822v-21.253h4.312v21.253H496.288z"/>
	<path d="M504.751,356.822v-21.253h4.195l8.739,14.192v-14.192h4.006v21.253h-4.326l-8.608-13.859v13.859H504.751z"/>
	<path d="M526.221,335.569h4.311v11.511c0,1.826,0.054,3.011,0.161,3.552c0.184,0.87,0.623,1.568,1.317,2.095
		c0.694,0.527,1.644,0.79,2.848,0.79c1.224,0,2.146-0.248,2.768-0.746s0.995-1.109,1.122-1.834c0.126-0.726,0.189-1.929,0.189-3.61
		v-11.757h4.311v11.163c0,2.551-0.116,4.354-0.35,5.407c-0.232,1.054-0.662,1.942-1.289,2.667c-0.626,0.726-1.464,1.303-2.512,1.733
		c-1.049,0.43-2.418,0.645-4.108,0.645c-2.039,0-3.585-0.234-4.639-0.703s-1.887-1.077-2.498-1.826s-1.015-1.534-1.209-2.356
		c-0.281-1.218-0.422-3.016-0.422-5.393V335.569z"/>
	<path d="M567.048,356.822h-4.689l-1.865-4.828h-8.535l-1.763,4.828h-4.573l8.317-21.253h4.559L567.048,356.822z M559.109,348.414
		l-2.941-7.887l-2.885,7.887H559.109z"/>
	<path d="M569.35,356.822v-21.253h9.074c2.282,0,3.94,0.19,4.975,0.572s1.862,1.061,2.483,2.037s0.933,2.093,0.933,3.349
		c0,1.595-0.472,2.912-1.413,3.95c-0.942,1.039-2.351,1.694-4.225,1.965c0.933,0.541,1.702,1.136,2.31,1.783
		c0.606,0.647,1.425,1.798,2.454,3.45l2.607,4.146h-5.156l-3.117-4.625c-1.107-1.652-1.864-2.693-2.272-3.124
		c-0.408-0.43-0.84-0.725-1.297-0.884c-0.456-0.16-1.18-0.239-2.17-0.239h-0.874v8.872H569.35z M573.661,344.558h3.19
		c2.068,0,3.359-0.087,3.874-0.261c0.515-0.175,0.918-0.474,1.209-0.899c0.291-0.425,0.437-0.957,0.437-1.595
		c0-0.715-0.191-1.292-0.575-1.732c-0.384-0.439-0.925-0.718-1.624-0.834c-0.35-0.048-1.398-0.072-3.146-0.072h-3.365V344.558z"/>
</g>
<path class="st0" d="M375.764,367.567H209c-6.6,0-12-5.4-12-12V338c0-6.6,5.4-12,12-12h166.764c6.6,0,12,5.4,12,12v17.567
	C387.764,362.167,382.364,367.567,375.764,367.567z"/>
<g>
	<path d="M233.721,356.822h-4.69l-1.864-4.828h-8.536l-1.762,4.828h-4.574l8.317-21.253h4.559L233.721,356.822z M225.783,348.414
		l-2.942-7.887l-2.884,7.887H225.783z"/>
	<path d="M236.051,356.822v-21.253h4.195l8.74,14.192v-14.192h4.005v21.253h-4.326l-8.608-13.859v13.859H236.051z"/>
	<path d="M262.357,356.822v-17.658h-6.336v-3.595h16.969v3.595h-6.321v17.658H262.357z"/>
	<path d="M275.772,356.822v-21.253h15.833v3.595h-11.521v4.712h10.72v3.581h-10.72v5.784h11.929v3.581H275.772z"/>
	<path d="M295.684,356.822v-21.253h9.074c2.282,0,3.94,0.19,4.974,0.572s1.862,1.061,2.483,2.037s0.932,2.093,0.932,3.349
		c0,1.595-0.471,2.912-1.413,3.95c-0.942,1.039-2.35,1.694-4.224,1.965c0.932,0.541,1.702,1.136,2.309,1.783s1.425,1.798,2.454,3.45
		l2.607,4.146h-5.156l-3.117-4.625c-1.107-1.652-1.864-2.693-2.272-3.124c-0.408-0.43-0.84-0.725-1.296-0.884
		c-0.457-0.16-1.18-0.239-2.17-0.239h-0.874v8.872H295.684z M299.995,344.558h3.19c2.068,0,3.36-0.087,3.875-0.261
		c0.515-0.175,0.917-0.474,1.209-0.899c0.292-0.425,0.437-0.957,0.437-1.595c0-0.715-0.192-1.292-0.575-1.732
		c-0.384-0.439-0.925-0.718-1.624-0.834c-0.35-0.048-1.398-0.072-3.146-0.072h-3.365V344.558z"/>
	<path d="M317.08,356.822v-21.253h4.312v21.253H317.08z"/>
	<path d="M324.625,346.326c0-2.165,0.325-3.981,0.976-5.451c0.485-1.082,1.148-2.054,1.988-2.914s1.76-1.498,2.76-1.914
		c1.331-0.56,2.865-0.841,4.603-0.841c3.146,0,5.664,0.972,7.552,2.914c1.888,1.943,2.833,4.645,2.833,8.104
		c0,3.431-0.938,6.115-2.811,8.054c-1.875,1.938-4.38,2.906-7.516,2.906c-3.175,0-5.7-0.964-7.574-2.893
		C325.562,352.364,324.625,349.709,324.625,346.326z M329.067,346.181c0,2.407,0.559,4.231,1.675,5.474
		c1.116,1.241,2.534,1.862,4.253,1.862s3.129-0.616,4.231-1.849c1.102-1.231,1.653-3.08,1.653-5.545c0-2.436-0.537-4.253-1.61-5.451
		c-1.073-1.198-2.498-1.798-4.275-1.798s-3.209,0.607-4.297,1.819C329.611,341.907,329.067,343.736,329.067,346.181z"/>
	<path d="M348.717,356.822v-21.253h9.074c2.282,0,3.94,0.19,4.974,0.572s1.862,1.061,2.483,2.037s0.932,2.093,0.932,3.349
		c0,1.595-0.471,2.912-1.413,3.95c-0.942,1.039-2.35,1.694-4.224,1.965c0.932,0.541,1.702,1.136,2.309,1.783s1.425,1.798,2.454,3.45
		l2.607,4.146h-5.156l-3.117-4.625c-1.107-1.652-1.864-2.693-2.272-3.124c-0.408-0.43-0.84-0.725-1.296-0.884
		c-0.457-0.16-1.18-0.239-2.17-0.239h-0.874v8.872H348.717z M353.028,344.558h3.19c2.068,0,3.36-0.087,3.875-0.261
		c0.515-0.175,0.917-0.474,1.209-0.899c0.292-0.425,0.437-0.957,0.437-1.595c0-0.715-0.192-1.292-0.575-1.732
		c-0.384-0.439-0.925-0.718-1.624-0.834c-0.35-0.048-1.398-0.072-3.146-0.072h-3.365V344.558z"/>
</g>
</svg>