<!-- Generator: Adobe Illustrator 22.0.0, SVG Export Plug-In  -->
<svg version="1.1"
	 xmlns="http://www.w3.org/2000/svg" xmlns:xlink="http://www.w3.org/1999/xlink" xmlns:a="http://ns.adobe.com/AdobeSVGViewerExtensions/3.0/"
	 x="0px" y="0px" width="243.757px" height="29.381px" viewBox="0 0 243.757 29.381"
	 style="enable-background:new 0 0 243.757 29.381;" xml:space="preserve">
<style type="text/css">
	.st0{fill-rule:evenodd;clip-rule:evenodd;fill:#FFD100;}
	.st1{fill-rule:evenodd;clip-rule:evenodd;fill:none;}
	.st2{font-family:'MyriadPro-Regular';}
	.st3{font-size:19.1614px;}
	.st4{letter-spacing:-1;}
</style>
<defs>
</defs>
<path class="st0" d="M238.937,29.381H2.496C1.123,29.381,0,28.258,0,26.885L0,2.496C0,1.123,1.123,0,2.496,0l236.441,0
	c1.373,0,2.496,1.123,2.496,2.496v24.389C241.433,28.258,240.31,29.381,238.937,29.381z"/>
<g>
	<rect x="6.397" y="7.538" transform="matrix(1 -0.003 0.003 1 -0.0485 0.3793)" class="st1" width="237.335" height="17.328"/>
	<path d="M16.893,20.361c-0.613,0.307-1.84,0.613-3.412,0.613c-3.641,0-6.382-2.3-6.382-6.535c0-4.044,2.741-6.784,6.746-6.784
		c1.61,0,2.625,0.345,3.066,0.574L16.51,9.59c-0.633-0.307-1.533-0.537-2.606-0.537c-3.028,0-5.041,1.936-5.041,5.328
		c0,3.162,1.821,5.193,4.964,5.193c1.016,0,2.05-0.21,2.721-0.536L16.893,20.361z"/>
	<path d="M21.145,16.719l-1.341,4.063h-1.725l4.389-12.917h2.012l4.408,12.917h-1.782l-1.38-4.063H21.145z M25.381,15.417
		l-1.265-3.718c-0.288-0.844-0.479-1.61-0.671-2.357h-0.038c-0.192,0.767-0.403,1.552-0.652,2.338l-1.265,3.737H25.381z"/>
	<path d="M30.553,18.752c0.748,0.46,1.84,0.843,2.99,0.843c1.706,0,2.702-0.9,2.702-2.203c0-1.208-0.69-1.898-2.434-2.568
		c-2.108-0.748-3.411-1.84-3.411-3.661c0-2.013,1.667-3.507,4.178-3.507c1.323,0,2.281,0.307,2.856,0.633l-0.46,1.36
		c-0.422-0.229-1.284-0.613-2.453-0.613c-1.763,0-2.434,1.054-2.434,1.936c0,1.208,0.786,1.802,2.568,2.491
		c2.185,0.844,3.296,1.897,3.296,3.795c0,1.993-1.476,3.718-4.522,3.718c-1.246,0-2.606-0.364-3.297-0.823L30.553,18.752z"/>
	<path d="M42.682,9.284h-3.929V7.866h9.563v1.418h-3.948v11.499h-1.687V9.284z"/>
	<path d="M49.752,8.038c0.843-0.172,2.051-0.268,3.201-0.268c1.782,0,2.932,0.325,3.737,1.054c0.652,0.575,1.016,1.456,1.016,2.453
		c0,1.706-1.073,2.837-2.434,3.296v0.059c0.997,0.344,1.591,1.264,1.897,2.605c0.421,1.802,0.728,3.048,0.997,3.546h-1.725
		c-0.211-0.364-0.498-1.476-0.862-3.085c-0.383-1.783-1.073-2.453-2.587-2.512H51.42v5.597h-1.667V8.038z M51.42,13.921h1.706
		c1.782,0,2.913-0.978,2.913-2.453c0-1.667-1.208-2.396-2.971-2.415c-0.805,0-1.38,0.077-1.648,0.154V13.921z"/>
	<path d="M71.157,14.19c0,4.446-2.702,6.804-5.999,6.804c-3.412,0-5.807-2.646-5.807-6.555c0-4.101,2.549-6.784,5.999-6.784
		C68.876,7.655,71.157,10.357,71.157,14.19z M61.133,14.401c0,2.76,1.495,5.232,4.121,5.232c2.645,0,4.14-2.435,4.14-5.367
		c0-2.567-1.342-5.251-4.121-5.251C62.513,9.015,61.133,11.565,61.133,14.401z"/>
	<path d="M86.409,20.361c-0.613,0.307-1.84,0.613-3.412,0.613c-3.641,0-6.382-2.3-6.382-6.535c0-4.044,2.741-6.784,6.746-6.784
		c1.61,0,2.625,0.345,3.066,0.574L86.026,9.59c-0.633-0.307-1.533-0.537-2.606-0.537c-3.028,0-5.041,1.936-5.041,5.328
		c0,3.162,1.821,5.193,4.964,5.193c1.016,0,2.05-0.21,2.721-0.536L86.409,20.361z"/>
	<path d="M90.661,16.719l-1.341,4.063h-1.725l4.389-12.917h2.012l4.408,12.917h-1.782l-1.38-4.063H90.661z M94.897,15.417
		l-1.265-3.718c-0.288-0.844-0.479-1.61-0.671-2.357h-0.038c-0.192,0.767-0.403,1.552-0.652,2.338l-1.265,3.737H94.897z"/>
	<path d="M100.068,18.752c0.748,0.46,1.84,0.843,2.99,0.843c1.706,0,2.702-0.9,2.702-2.203c0-1.208-0.69-1.898-2.434-2.568
		c-2.108-0.748-3.411-1.84-3.411-3.661c0-2.013,1.667-3.507,4.178-3.507c1.323,0,2.281,0.307,2.856,0.633l-0.46,1.36
		c-0.422-0.229-1.284-0.613-2.453-0.613c-1.763,0-2.434,1.054-2.434,1.936c0,1.208,0.786,1.802,2.568,2.491
		c2.185,0.844,3.296,1.897,3.296,3.795c0,1.993-1.476,3.718-4.522,3.718c-1.246,0-2.606-0.364-3.297-0.823L100.068,18.752z"/>
	<path d="M111.834,16.719l-1.341,4.063h-1.725l4.389-12.917h2.012l4.408,12.917h-1.782l-1.38-4.063H111.834z M116.069,15.417
		l-1.265-3.718c-0.288-0.844-0.479-1.61-0.671-2.357h-0.038c-0.192,0.767-0.403,1.552-0.652,2.338l-1.265,3.737H116.069z"/>
	<path d="M121.241,18.752c0.748,0.46,1.84,0.843,2.99,0.843c1.706,0,2.702-0.9,2.702-2.203c0-1.208-0.69-1.898-2.434-2.568
		c-2.108-0.748-3.411-1.84-3.411-3.661c0-2.013,1.667-3.507,4.178-3.507c1.323,0,2.281,0.307,2.856,0.633l-0.46,1.36
		c-0.422-0.229-1.284-0.613-2.453-0.613c-1.763,0-2.434,1.054-2.434,1.936c0,1.208,0.786,1.802,2.568,2.491
		c2.185,0.844,3.296,1.897,3.296,3.795c0,1.993-1.476,3.718-4.522,3.718c-1.246,0-2.606-0.364-3.297-0.823L121.241,18.752z"/>
	<path d="M129.768,23.14c0.422-1.131,0.939-3.182,1.15-4.581l1.878-0.191c-0.441,1.629-1.284,3.757-1.821,4.657L129.768,23.14z"/>
	<path d="M141.591,7.866h1.667v8.643c0,3.432-1.687,4.485-3.91,4.485c-0.613,0-1.361-0.134-1.782-0.307l0.249-1.36
		c0.345,0.134,0.843,0.248,1.399,0.248c1.495,0,2.377-0.67,2.377-3.2V7.866z"/>
	<path d="M147.703,7.866v7.646c0,2.895,1.284,4.121,3.009,4.121c1.917,0,3.143-1.266,3.143-4.121V7.866h1.687v7.531
		c0,3.968-2.089,5.597-4.887,5.597c-2.645,0-4.638-1.515-4.638-5.52V7.866H147.703z"/>
	<path d="M159.869,16.719l-1.341,4.063h-1.726l4.39-12.917h2.013l4.407,12.917h-1.782l-1.38-4.063H159.869z M164.106,15.417
		l-1.266-3.718c-0.287-0.844-0.479-1.61-0.67-2.357h-0.039c-0.191,0.767-0.402,1.552-0.651,2.338l-1.265,3.737H164.106z"/>
	<path d="M169.508,20.783V7.866h1.82l4.14,6.535c0.958,1.514,1.706,2.875,2.319,4.197l0.038-0.02
		c-0.153-1.725-0.192-3.297-0.192-5.309V7.866h1.572v12.917h-1.687l-4.102-6.555c-0.901-1.437-1.763-2.913-2.415-4.312l-0.057,0.019
		c0.096,1.63,0.134,3.182,0.134,5.328v5.52H169.508z"/>
	<path d="M186.178,8.019c0.805-0.134,1.858-0.249,3.2-0.249c1.647,0,2.855,0.383,3.622,1.072c0.709,0.613,1.131,1.553,1.131,2.703
		c0,1.169-0.346,2.089-0.996,2.76c-0.883,0.939-2.319,1.418-3.949,1.418c-0.498,0-0.957-0.02-1.341-0.115v5.175h-1.667V8.019z
		 M187.845,14.248c0.364,0.096,0.824,0.134,1.38,0.134c2.012,0,3.238-0.977,3.238-2.76c0-1.705-1.207-2.529-3.047-2.529
		c-0.729,0-1.284,0.057-1.571,0.134V14.248z"/>
	<path d="M196.851,16.719l-1.341,4.063h-1.726l4.389-12.917h2.013l4.408,12.917h-1.783l-1.379-4.063H196.851z M201.086,15.417
		l-1.265-3.718c-0.288-0.844-0.479-1.61-0.671-2.357h-0.038c-0.192,0.767-0.402,1.552-0.651,2.338l-1.266,3.737H201.086z"/>
	<path d="M206.488,8.038c0.729-0.152,1.878-0.268,3.047-0.268c1.668,0,2.741,0.287,3.546,0.938c0.671,0.499,1.073,1.265,1.073,2.28
		c0,1.246-0.824,2.339-2.185,2.837v0.038c1.227,0.307,2.663,1.322,2.663,3.239c0,1.111-0.44,1.955-1.092,2.587
		c-0.9,0.824-2.357,1.208-4.465,1.208c-1.15,0-2.032-0.077-2.588-0.153V8.038z M208.156,13.328h1.514
		c1.763,0,2.798-0.92,2.798-2.166c0-1.514-1.149-2.108-2.837-2.108c-0.766,0-1.207,0.059-1.475,0.115V13.328z M208.156,19.518
		c0.325,0.057,0.805,0.076,1.398,0.076c1.725,0,3.315-0.633,3.315-2.51c0-1.764-1.514-2.492-3.335-2.492h-1.379V19.518z"/>
	<path d="M216.873,7.866h1.668v11.518h5.52v1.399h-7.188V7.866z"/>
	<path d="M236.209,14.19c0,4.446-2.701,6.804-5.998,6.804c-3.412,0-5.807-2.646-5.807-6.555c0-4.101,2.549-6.784,5.998-6.784
		C233.929,7.655,236.209,10.357,236.209,14.19z M226.186,14.401c0,2.76,1.496,5.232,4.121,5.232c2.645,0,4.14-2.435,4.14-5.367
		c0-2.567-1.342-5.251-4.12-5.251C227.567,9.015,226.186,11.565,226.186,14.401z"/>
</g>
</svg>