<!-- Generator: Adobe Illustrator 22.0.0, SVG Export Plug-In  -->
<svg version="1.1"
	 xmlns="http://www.w3.org/2000/svg" xmlns:xlink="http://www.w3.org/1999/xlink" xmlns:a="http://ns.adobe.com/AdobeSVGViewerExtensions/3.0/"
	 x="0px" y="0px" width="216.106px" height="26.299px" viewBox="0 0 216.106 26.299"
	 style="overflow:scroll;enable-background:new 0 0 216.106 26.299;" xml:space="preserve">
<style type="text/css">
	.st0{fill-rule:evenodd;clip-rule:evenodd;fill:#C65911;}
	.st1{fill-rule:evenodd;clip-rule:evenodd;fill:none;}
	.st2{fill:#FFFFFF;}
	.st3{font-family:'Arial-BoldMT';}
	.st4{font-size:17.1513px;}
</style>
<defs>
</defs>
<path class="st0" d="M208.847,26.299H7.259C3.267,26.299,0,23.032,0,19.039l0-11.78C0,3.267,3.267,0,7.259,0l201.587,0
	c3.993,0,7.259,3.267,7.259,7.259v11.78C216.106,23.032,212.84,26.299,208.847,26.299z"/>
<g>
	<rect x="60.621" y="5.787" class="st1" width="101.485" height="15.51"/>
	<path class="st2" d="M64.633,18.067v-10.2h-3.644V5.79h9.757v2.077h-3.635v10.2H64.633z"/>
	<path class="st2" d="M72.345,18.067V5.79h9.103v2.077h-6.624v2.722h6.164v2.068h-6.164v3.342h6.859v2.068H72.345z"/>
	<path class="st2" d="M83.793,18.067V5.79h5.218c1.312,0,2.266,0.11,2.86,0.331c0.594,0.221,1.07,0.613,1.428,1.176
		c0.357,0.564,0.536,1.209,0.536,1.936c0,0.921-0.271,1.682-0.813,2.281c-0.542,0.601-1.352,0.979-2.429,1.135
		c0.536,0.313,0.979,0.656,1.327,1.031c0.349,0.373,0.819,1.037,1.411,1.992l1.499,2.396h-2.965l-1.792-2.671
		c-0.637-0.955-1.072-1.557-1.307-1.805c-0.234-0.249-0.482-0.42-0.745-0.512s-0.679-0.139-1.248-0.139h-0.502v5.126H83.793z
		 M86.272,10.982h1.834c1.189,0,1.932-0.051,2.228-0.15c0.296-0.102,0.527-0.273,0.695-0.52c0.167-0.246,0.251-0.553,0.251-0.922
		c0-0.412-0.11-0.746-0.331-1s-0.531-0.414-0.934-0.482c-0.201-0.027-0.804-0.041-1.809-0.041h-1.935V10.982z"/>
	<path class="st2" d="M107.242,18.067h-2.697l-1.071-2.788h-4.908l-1.013,2.788h-2.63L99.705,5.79h2.621L107.242,18.067z
		 M102.678,13.21l-1.691-4.556l-1.658,4.556H102.678z M99.562,5.087l1.155-2.505h2.639l-2.304,2.505H99.562z"/>
	<path class="st2" d="M108.556,18.067V5.79h3.978c1.508,0,2.49,0.062,2.948,0.185c0.703,0.184,1.292,0.584,1.767,1.201
		s0.712,1.414,0.712,2.391c0,0.754-0.137,1.389-0.41,1.902s-0.621,0.916-1.043,1.209c-0.421,0.293-0.85,0.488-1.285,0.582
		c-0.592,0.117-1.449,0.176-2.571,0.176h-1.616v4.632H108.556z M111.035,7.867v3.484h1.356c0.978,0,1.631-0.064,1.96-0.193
		s0.588-0.329,0.774-0.604c0.188-0.273,0.281-0.592,0.281-0.954c0-0.446-0.132-0.815-0.394-1.105
		c-0.263-0.29-0.595-0.472-0.997-0.544c-0.296-0.057-0.891-0.084-1.784-0.084H111.035z"/>
	<path class="st2" d="M119.921,18.067V5.79h2.479v12.277H119.921z"/>
	<path class="st2" d="M135.833,18.067h-2.697l-1.071-2.788h-4.908l-1.013,2.788h-2.63l4.782-12.277h2.621L135.833,18.067z
		 M131.268,13.21l-1.691-4.556l-1.658,4.556H131.268z"/>
	<path class="st2" d="M136.519,14.072l2.411-0.234c0.146,0.811,0.44,1.404,0.884,1.784c0.444,0.38,1.043,0.569,1.797,0.569
		c0.798,0,1.399-0.169,1.805-0.507c0.404-0.337,0.606-0.732,0.606-1.185c0-0.291-0.085-0.537-0.255-0.741
		c-0.171-0.204-0.468-0.382-0.892-0.532c-0.291-0.1-0.952-0.279-1.985-0.535c-1.329-0.33-2.261-0.734-2.797-1.215
		c-0.754-0.676-1.131-1.499-1.131-2.471c0-0.625,0.178-1.21,0.532-1.754c0.354-0.545,0.865-0.959,1.532-1.244
		s1.473-0.428,2.416-0.428c1.541,0,2.701,0.338,3.479,1.014c0.779,0.676,1.188,1.578,1.228,2.705l-2.479,0.109
		c-0.105-0.631-0.333-1.085-0.683-1.361c-0.349-0.276-0.872-0.414-1.57-0.414c-0.72,0-1.284,0.148-1.691,0.443
		c-0.263,0.189-0.394,0.444-0.394,0.762c0,0.291,0.123,0.539,0.368,0.746c0.313,0.262,1.072,0.535,2.278,0.82
		s2.098,0.58,2.676,0.884s1.03,0.72,1.356,1.248c0.327,0.527,0.49,1.179,0.49,1.955c0,0.704-0.195,1.362-0.587,1.977
		c-0.391,0.614-0.943,1.071-1.658,1.369c-0.714,0.299-1.604,0.448-2.671,0.448c-1.553,0-2.744-0.359-3.576-1.076
		S136.68,15.446,136.519,14.072z"/>
</g>
</svg>