<!-- Generator: Adobe Illustrator 22.0.0, SVG Export Plug-In  -->
<svg version="1.1"
	 xmlns="http://www.w3.org/2000/svg" xmlns:xlink="http://www.w3.org/1999/xlink" xmlns:a="http://ns.adobe.com/AdobeSVGViewerExtensions/3.0/"
	 x="0px" y="0px" width="329.901px" height="164.673px" viewBox="0 0 329.901 164.673"
	 style="overflow:scroll;enable-background:new 0 0 329.901 164.673;" xml:space="preserve">
<style type="text/css">
	.st0{clip-path:url(#SVGID_7_);}
	.st1{fill:#757171;}
	.st2{clip-path:url(#SVGID_8_);}
	.st3{clip-path:url(#SVGID_9_);}
	.st4{clip-path:url(#SVGID_10_);fill-rule:evenodd;clip-rule:evenodd;fill:#D4D4D4;}
	.st5{clip-path:url(#SVGID_10_);fill:none;stroke:#757171;stroke-width:0;stroke-linecap:square;stroke-miterlimit:10;}
	.st6{clip-path:url(#SVGID_10_);fill-rule:evenodd;clip-rule:evenodd;fill:#757171;}
	.st7{clip-path:url(#SVGID_10_);fill:none;stroke:#D4D4D4;stroke-width:0;stroke-linecap:square;stroke-miterlimit:10;}
	.st8{clip-path:url(#SVGID_11_);}
	.st9{clip-path:url(#SVGID_14_);}
	.st10{font-family:'Arial-Black';}
	.st11{font-size:17.7492px;}
	.st12{font-family:'Calibri';}
	.st13{font-size:21.6934px;}
	.st14{clip-path:url(#SVGID_16_);}
	.st15{font-size:15.777px;}
	.st16{clip-path:url(#SVGID_18_);}
	.st17{clip-path:url(#SVGID_20_);fill-rule:evenodd;clip-rule:evenodd;fill:#D4D4D4;}
	.st18{clip-path:url(#SVGID_20_);fill:none;stroke:#757171;stroke-width:0;stroke-linecap:square;stroke-miterlimit:10;}
	.st19{clip-path:url(#SVGID_20_);fill-rule:evenodd;clip-rule:evenodd;fill:#757171;}
	.st20{clip-path:url(#SVGID_20_);fill:none;stroke:#D4D4D4;stroke-width:0;stroke-linecap:square;stroke-miterlimit:10;}
	.st21{clip-path:url(#SVGID_23_);}
</style>
<defs>
</defs>
<g>
	<g>
		<defs>
			<polygon id="SVGID_6_" points="0.991,0.986 328.911,0.986 328.911,163.687 0.991,163.687 0.991,0.986 			"/>
		</defs>
		<clipPath id="SVGID_7_">
			<use xlink:href="#SVGID_6_"  style="overflow:visible;"/>
		</clipPath>
		<g class="st0">
			<path class="st1" d="M5.271,8.009h10.571v2.713H9.224v2.02h6.139v2.591H9.224v2.505h6.81v2.877H5.271V8.009z"/>
			<path class="st1" d="M18.21,8.009h5.859c1.156,0,2.089,0.156,2.8,0.468s1.299,0.76,1.763,1.343
				c0.465,0.584,0.802,1.264,1.011,2.037c0.209,0.774,0.313,1.595,0.313,2.461c0,1.358-0.155,2.411-0.466,3.16
				c-0.311,0.748-0.741,1.375-1.293,1.88c-0.552,0.506-1.144,0.843-1.776,1.01c-0.865,0.231-1.648,0.347-2.352,0.347H18.21V8.009z
				 M22.154,10.886v6.942h0.966c0.824,0,1.411-0.091,1.76-0.273c0.348-0.182,0.621-0.499,0.818-0.953s0.296-1.188,0.296-2.206
				c0-1.346-0.221-2.268-0.661-2.764c-0.441-0.498-1.174-0.746-2.195-0.746H22.154z"/>
			<path class="st1" d="M39.876,18.616h-4.479l-0.621,2.098h-4.028l4.798-12.705h4.303l4.797,12.705h-4.131L39.876,18.616z
				 M39.058,15.869l-1.408-4.567l-1.395,4.567H39.058z"/>
			<path class="st1" d="M45.952,8.009h5.859c1.155,0,2.088,0.156,2.799,0.468s1.299,0.76,1.764,1.343
				c0.465,0.584,0.801,1.264,1.01,2.037c0.209,0.774,0.314,1.595,0.314,2.461c0,1.358-0.156,2.411-0.467,3.16
				c-0.311,0.748-0.741,1.375-1.293,1.88c-0.551,0.506-1.143,0.843-1.775,1.01c-0.865,0.231-1.649,0.347-2.352,0.347h-5.859V8.009z
				 M49.896,10.886v6.942h0.967c0.824,0,1.41-0.091,1.76-0.273c0.348-0.182,0.621-0.499,0.818-0.953s0.295-1.188,0.295-2.206
				c0-1.346-0.221-2.268-0.661-2.764c-0.441-0.498-1.173-0.746-2.194-0.746H49.896z"/>
		</g>
		<g class="st0">
			<path d="M236.597,18.761c0,0.629-0.109,1.195-0.33,1.701c-0.219,0.504-0.535,0.938-0.947,1.297
				c-0.41,0.36-0.918,0.638-1.521,0.832c-0.603,0.193-1.283,0.291-2.043,0.291c-0.461,0-0.893-0.037-1.293-0.111
				s-0.758-0.162-1.07-0.265c-0.312-0.103-0.57-0.208-0.776-0.317s-0.335-0.189-0.388-0.238c-0.054-0.05-0.095-0.1-0.123-0.148
				c-0.028-0.05-0.053-0.109-0.074-0.18c-0.021-0.071-0.037-0.158-0.048-0.26c-0.011-0.103-0.017-0.229-0.017-0.377
				c0-0.254,0.025-0.43,0.076-0.529c0.051-0.099,0.125-0.148,0.219-0.148c0.066,0,0.195,0.057,0.388,0.17s0.44,0.234,0.743,0.365
				c0.301,0.131,0.654,0.252,1.059,0.365s0.854,0.17,1.348,0.17c0.48,0,0.902-0.061,1.267-0.18c0.364-0.121,0.67-0.29,0.917-0.509
				c0.248-0.219,0.434-0.479,0.557-0.778c0.124-0.301,0.186-0.627,0.186-0.98c0-0.389-0.078-0.738-0.236-1.049
				c-0.157-0.311-0.389-0.578-0.691-0.805c-0.305-0.226-0.678-0.398-1.121-0.52c-0.443-0.119-0.947-0.18-1.512-0.18h-1.352
				c-0.059,0-0.116-0.012-0.171-0.037c-0.055-0.024-0.103-0.064-0.144-0.121c-0.039-0.057-0.072-0.131-0.098-0.223
				c-0.026-0.092-0.039-0.212-0.039-0.36c0-0.134,0.011-0.245,0.031-0.333c0.021-0.089,0.053-0.16,0.092-0.213
				c0.038-0.053,0.082-0.092,0.133-0.116c0.049-0.024,0.105-0.037,0.17-0.037h1.203c0.468,0,0.889-0.06,1.261-0.181
				c0.372-0.119,0.688-0.293,0.946-0.519c0.26-0.226,0.458-0.496,0.597-0.81c0.138-0.314,0.208-0.666,0.208-1.055
				c0-0.282-0.047-0.553-0.139-0.811s-0.23-0.481-0.416-0.672c-0.184-0.191-0.42-0.341-0.707-0.451
				c-0.287-0.109-0.619-0.164-0.995-0.164c-0.411,0-0.789,0.063-1.134,0.186c-0.344,0.124-0.65,0.256-0.92,0.397
				s-0.493,0.274-0.67,0.397c-0.178,0.123-0.303,0.186-0.373,0.186c-0.05,0-0.094-0.01-0.133-0.027s-0.071-0.053-0.096-0.105
				c-0.025-0.053-0.043-0.127-0.054-0.223s-0.016-0.221-0.016-0.376c0-0.105,0.003-0.199,0.011-0.28
				c0.007-0.082,0.021-0.152,0.043-0.212c0.021-0.06,0.045-0.114,0.074-0.165c0.027-0.049,0.076-0.107,0.143-0.174
				c0.068-0.067,0.205-0.164,0.41-0.291c0.206-0.127,0.459-0.253,0.762-0.377c0.301-0.123,0.648-0.228,1.043-0.313
				c0.393-0.084,0.816-0.127,1.271-0.127c0.639,0,1.199,0.082,1.682,0.244s0.885,0.392,1.207,0.688
				c0.323,0.296,0.564,0.651,0.725,1.064c0.159,0.413,0.238,0.87,0.238,1.372c0,0.43-0.057,0.831-0.17,1.201
				c-0.113,0.371-0.28,0.699-0.5,0.986c-0.22,0.285-0.49,0.529-0.809,0.73c-0.319,0.201-0.688,0.341-1.107,0.418v0.021
				c0.476,0.049,0.91,0.168,1.305,0.355c0.393,0.187,0.732,0.422,1.016,0.703c0.283,0.283,0.506,0.613,0.666,0.991
				C236.517,17.927,236.597,18.331,236.597,18.761z"/>
			<path d="M247.939,19.164c0,0.593-0.105,1.121-0.318,1.583c-0.213,0.463-0.521,0.854-0.921,1.171
				c-0.401,0.317-0.896,0.558-1.485,0.72c-0.588,0.163-1.262,0.244-2.021,0.244c-0.709,0-1.345-0.074-1.904-0.223
				c-0.561-0.148-1.037-0.367-1.427-0.656s-0.688-0.646-0.894-1.07c-0.206-0.424-0.309-0.907-0.309-1.451
				c0-0.43,0.07-0.826,0.213-1.186c0.142-0.361,0.346-0.692,0.611-0.996s0.594-0.588,0.984-0.854c0.391-0.264,0.83-0.517,1.32-0.757
				c-0.426-0.219-0.803-0.45-1.129-0.694c-0.326-0.243-0.603-0.508-0.83-0.794c-0.227-0.286-0.398-0.591-0.516-0.916
				s-0.176-0.678-0.176-1.06c0-0.48,0.087-0.93,0.261-1.35c0.174-0.421,0.437-0.786,0.788-1.098c0.351-0.311,0.797-0.555,1.34-0.735
				s1.176-0.271,1.9-0.271c0.695,0,1.297,0.084,1.804,0.249c0.507,0.166,0.926,0.392,1.256,0.679
				c0.329,0.285,0.573,0.623,0.729,1.011c0.155,0.389,0.233,0.806,0.233,1.25c0,0.36-0.059,0.706-0.175,1.038
				c-0.117,0.332-0.29,0.646-0.518,0.943c-0.227,0.296-0.505,0.573-0.835,0.831c-0.329,0.258-0.708,0.499-1.134,0.726
				c0.504,0.247,0.953,0.502,1.347,0.763s0.724,0.542,0.989,0.842c0.267,0.3,0.469,0.618,0.607,0.954
				C247.87,18.393,247.939,18.761,247.939,19.164z M246.087,19.355c0-0.324-0.061-0.619-0.181-0.885
				c-0.12-0.264-0.304-0.512-0.548-0.741c-0.245-0.229-0.551-0.452-0.916-0.667s-0.789-0.439-1.271-0.673
				c-0.447,0.22-0.839,0.438-1.176,0.657s-0.613,0.444-0.83,0.678c-0.217,0.232-0.379,0.479-0.49,0.736
				c-0.109,0.258-0.164,0.541-0.164,0.852c0,0.686,0.235,1.215,0.707,1.59c0.473,0.374,1.176,0.561,2.113,0.561
				c0.908,0,1.594-0.188,2.059-0.566C245.855,20.519,246.087,20.005,246.087,19.355z M245.64,12.13c0-0.296-0.051-0.564-0.154-0.805
				c-0.103-0.24-0.254-0.444-0.451-0.614c-0.199-0.169-0.445-0.298-0.74-0.386c-0.295-0.089-0.63-0.133-1.006-0.133
				c-0.766,0-1.346,0.173-1.74,0.519c-0.394,0.347-0.59,0.819-0.59,1.419c0,0.275,0.047,0.532,0.143,0.769
				c0.096,0.237,0.246,0.461,0.447,0.673c0.203,0.212,0.458,0.418,0.767,0.619s0.676,0.412,1.102,0.631
				c0.716-0.367,1.267-0.773,1.649-1.219C245.448,13.158,245.64,12.667,245.64,12.13z"/>
		</g>
		<g class="st0">
			<path class="st1" d="M5.332,36.595h5.86c1.154,0,2.088,0.156,2.799,0.468s1.299,0.76,1.764,1.343
				c0.464,0.584,0.801,1.263,1.01,2.037s0.313,1.595,0.313,2.462c0,1.357-0.155,2.41-0.466,3.158
				c-0.311,0.749-0.742,1.375-1.293,1.881c-0.552,0.506-1.144,0.842-1.776,1.01c-0.865,0.231-1.649,0.347-2.351,0.347h-5.86V36.595z
				 M9.276,39.472v6.942h0.967c0.824,0,1.41-0.091,1.759-0.273c0.349-0.182,0.621-0.499,0.818-0.953
				c0.197-0.453,0.296-1.188,0.296-2.206c0-1.346-0.221-2.268-0.662-2.765c-0.441-0.496-1.172-0.745-2.193-0.745H9.276z"/>
			<path class="st1" d="M19.308,36.595h3.953V49.3h-3.953V36.595z"/>
			<path class="st1" d="M33.938,47.202H29.46L28.838,49.3H24.81l4.799-12.705h4.303L38.707,49.3h-4.13L33.938,47.202z
				 M31.628,33.232h3.048l-2.813,2.592h-1.698L31.628,33.232z M33.12,44.455l-1.409-4.567l-1.395,4.567H33.12z"/>
			<path class="st1" d="M39.97,36.595h7.384c1.23,0,2.175,0.303,2.834,0.91c0.659,0.606,0.988,1.357,0.988,2.253
				c0,0.751-0.235,1.396-0.705,1.933c-0.313,0.358-0.772,0.642-1.376,0.85c0.917,0.22,1.592,0.597,2.024,1.131
				s0.649,1.206,0.649,2.015c0,0.659-0.154,1.251-0.462,1.777c-0.308,0.525-0.729,0.941-1.263,1.248
				c-0.331,0.19-0.83,0.329-1.498,0.416c-0.888,0.115-1.477,0.173-1.768,0.173H39.97V36.595z M43.948,41.578h1.716
				c0.615,0,1.044-0.105,1.284-0.316c0.241-0.211,0.361-0.516,0.361-0.914c0-0.37-0.12-0.659-0.361-0.867
				c-0.24-0.208-0.66-0.312-1.258-0.312h-1.742V41.578z M43.948,46.57h2.012c0.68,0,1.158-0.12,1.438-0.36
				c0.277-0.239,0.418-0.562,0.418-0.966c0-0.376-0.139-0.678-0.414-0.906c-0.275-0.228-0.76-0.342-1.449-0.342h-2.004V46.57z"/>
			<path class="st1" d="M53.823,36.595h10.57v2.713h-6.617v2.019h6.139v2.592h-6.139v2.505h6.809V49.3H53.823V36.595z"/>
			<path class="st1" d="M65.813,36.595h11.989v3.137H73.78V49.3h-3.945v-9.568h-4.022V36.595z"/>
			<path class="st1" d="M79.579,36.595h10.57v2.713h-6.617v2.019h6.139v2.592h-6.139v2.505h6.809V49.3H79.579V36.595z"/>
			<path class="st1" d="M91.778,45.097l3.752-0.234c0.082,0.606,0.247,1.069,0.496,1.387c0.406,0.515,0.987,0.771,1.742,0.771
				c0.563,0,0.997-0.132,1.302-0.395s0.457-0.567,0.457-0.914c0-0.329-0.146-0.624-0.436-0.884c-0.29-0.261-0.964-0.506-2.021-0.737
				c-1.729-0.387-2.963-0.901-3.7-1.542c-0.743-0.642-1.114-1.459-1.114-2.453c0-0.652,0.189-1.27,0.57-1.851
				c0.38-0.58,0.952-1.037,1.715-1.369c0.764-0.332,1.811-0.498,3.14-0.498c1.631,0,2.874,0.302,3.731,0.906
				c0.855,0.604,1.365,1.564,1.527,2.881l-3.718,0.217c-0.099-0.572-0.306-0.988-0.622-1.248s-0.754-0.39-1.311-0.39
				c-0.459,0-0.805,0.097-1.037,0.29s-0.348,0.429-0.348,0.706c0,0.203,0.096,0.385,0.287,0.546
				c0.186,0.168,0.627,0.324,1.324,0.469c1.724,0.369,2.959,0.743,3.704,1.122c0.746,0.378,1.289,0.848,1.628,1.408
				c0.34,0.561,0.51,1.188,0.51,1.881c0,0.814-0.227,1.565-0.68,2.253c-0.452,0.688-1.085,1.209-1.897,1.564
				c-0.813,0.355-1.837,0.533-3.073,0.533c-2.172,0-3.675-0.416-4.511-1.248S91.888,46.379,91.778,45.097z"/>
		</g>
		<g class="st0">
			<path d="M237.122,50.517c0,0.142-0.023,0.261-0.071,0.36c-0.048,0.099-0.11,0.18-0.187,0.243
				c-0.078,0.063-0.164,0.109-0.26,0.138c-0.095,0.028-0.189,0.043-0.285,0.043h-0.605c-0.191,0-0.357-0.02-0.501-0.059
				s-0.278-0.109-0.407-0.212s-0.257-0.242-0.385-0.418c-0.129-0.177-0.266-0.403-0.409-0.679l-4.201-7.796
				c-0.22-0.402-0.44-0.824-0.664-1.266s-0.431-0.87-0.623-1.287h-0.021c0.015,0.509,0.024,1.027,0.032,1.558
				c0.007,0.529,0.011,1.056,0.011,1.578v8.272c0,0.05-0.015,0.097-0.045,0.143c-0.03,0.047-0.081,0.082-0.151,0.106
				c-0.072,0.024-0.165,0.046-0.281,0.063s-0.264,0.026-0.443,0.026s-0.328-0.009-0.443-0.026c-0.117-0.018-0.208-0.039-0.275-0.063
				c-0.068-0.024-0.116-0.06-0.146-0.106c-0.029-0.046-0.045-0.093-0.045-0.143V38.346c0-0.282,0.081-0.483,0.242-0.604
				s0.337-0.181,0.527-0.181h0.9c0.213,0,0.391,0.018,0.533,0.053c0.143,0.036,0.271,0.094,0.384,0.176
				c0.114,0.081,0.224,0.193,0.329,0.338c0.107,0.146,0.219,0.327,0.335,0.547l3.229,6.016c0.199,0.367,0.391,0.726,0.576,1.075
				s0.363,0.694,0.535,1.033c0.171,0.339,0.341,0.672,0.509,1.001c0.168,0.328,0.334,0.658,0.499,0.99h0.01
				c-0.014-0.558-0.022-1.139-0.025-1.742c-0.004-0.604-0.006-1.185-0.006-1.743v-7.436c0-0.05,0.015-0.095,0.045-0.138
				c0.029-0.043,0.08-0.08,0.151-0.111s0.165-0.055,0.28-0.068c0.117-0.015,0.268-0.021,0.455-0.021
				c0.165,0,0.307,0.007,0.427,0.021c0.12,0.014,0.214,0.037,0.281,0.068s0.116,0.068,0.146,0.111
				c0.03,0.043,0.045,0.088,0.045,0.138V50.517z"/>
			<path d="M249.292,46.131c0,0.777-0.102,1.492-0.309,2.146c-0.205,0.653-0.512,1.216-0.92,1.689
				c-0.408,0.473-0.919,0.842-1.533,1.106c-0.613,0.266-1.324,0.397-2.133,0.397c-0.787,0-1.475-0.116-2.06-0.35
				c-0.585-0.232-1.073-0.572-1.464-1.017c-0.39-0.445-0.681-0.985-0.872-1.621c-0.191-0.635-0.287-1.355-0.287-2.16
				c0-0.777,0.101-1.492,0.304-2.146c0.201-0.653,0.506-1.216,0.914-1.689c0.408-0.473,0.918-0.84,1.527-1.102
				c0.61-0.261,1.324-0.392,2.14-0.392c0.787,0,1.474,0.116,2.06,0.35c0.585,0.232,1.072,0.571,1.463,1.017
				c0.391,0.444,0.683,0.985,0.878,1.62C249.194,44.616,249.292,45.333,249.292,46.131z M247.473,46.248
				c0-0.516-0.048-1.003-0.146-1.462c-0.096-0.459-0.256-0.861-0.477-1.208c-0.223-0.346-0.523-0.619-0.902-0.82
				c-0.38-0.201-0.852-0.302-1.418-0.302c-0.522,0-0.972,0.092-1.348,0.275s-0.686,0.442-0.929,0.778
				c-0.243,0.335-0.425,0.732-0.542,1.191c-0.119,0.459-0.178,0.961-0.178,1.504c0,0.522,0.049,1.014,0.146,1.473
				s0.257,0.859,0.483,1.202c0.225,0.343,0.527,0.614,0.906,0.815c0.38,0.201,0.853,0.302,1.418,0.302
				c0.516,0,0.963-0.091,1.342-0.275c0.38-0.184,0.691-0.44,0.936-0.772c0.242-0.332,0.422-0.728,0.536-1.187
				S247.473,46.799,247.473,46.248z"/>
		</g>
		<g class="st0">
			<path class="st1" d="M4.783,71.562c0-2.074,0.581-3.689,1.741-4.845c1.162-1.155,2.777-1.733,4.851-1.733
				c2.124,0,3.761,0.567,4.911,1.703c1.148,1.135,1.724,2.726,1.724,4.771c0,1.485-0.251,2.703-0.753,3.653
				s-1.229,1.689-2.178,2.219c-0.948,0.528-2.131,0.793-3.547,0.793c-1.44,0-2.632-0.229-3.575-0.685
				c-0.943-0.457-1.708-1.179-2.294-2.167S4.783,73.046,4.783,71.562z M8.728,71.579c0,1.282,0.24,2.204,0.719,2.765
				c0.479,0.56,1.131,0.84,1.955,0.84c0.848,0,1.503-0.274,1.967-0.823c0.465-0.549,0.697-1.534,0.697-2.955
				c0-1.196-0.242-2.069-0.727-2.621c-0.485-0.552-1.143-0.828-1.973-0.828c-0.795,0-1.434,0.28-1.916,0.841
				C8.969,69.358,8.728,70.284,8.728,71.579z"/>
			<path class="st1" d="M19.237,65.2h11.99v3.137h-4.023v9.568h-3.943v-9.568h-4.023V65.2z"/>
			<path class="st1" d="M33.065,77.905V65.2h6.573c1.22,0,2.151,0.104,2.796,0.312c0.644,0.208,1.163,0.594,1.559,1.157
				c0.395,0.563,0.592,1.25,0.592,2.059c0,0.705-0.151,1.313-0.453,1.824c-0.303,0.512-0.718,0.926-1.246,1.243
				c-0.337,0.203-0.799,0.37-1.385,0.503c0.469,0.156,0.812,0.313,1.026,0.469c0.146,0.104,0.354,0.326,0.631,0.668
				c0.275,0.341,0.46,0.604,0.552,0.789l1.91,3.682h-4.456l-2.108-3.883c-0.268-0.503-0.506-0.829-0.715-0.979
				c-0.283-0.196-0.605-0.294-0.966-0.294h-0.349v5.156H33.065z M37.026,70.348h1.664c0.18,0,0.527-0.058,1.045-0.173
				c0.261-0.052,0.474-0.185,0.639-0.398c0.166-0.214,0.248-0.46,0.248-0.737c0-0.41-0.13-0.725-0.391-0.944
				c-0.262-0.22-0.752-0.329-1.473-0.329h-1.732V70.348z"/>
			<path class="st1" d="M46.387,71.562c0-2.074,0.581-3.689,1.741-4.845c1.162-1.155,2.777-1.733,4.851-1.733
				c2.124,0,3.761,0.567,4.911,1.703c1.148,1.135,1.724,2.726,1.724,4.771c0,1.485-0.251,2.703-0.753,3.653
				s-1.229,1.689-2.178,2.219c-0.948,0.528-2.131,0.793-3.547,0.793c-1.44,0-2.632-0.229-3.575-0.685
				c-0.943-0.457-1.708-1.179-2.294-2.167S46.387,73.046,46.387,71.562z M50.331,71.579c0,1.282,0.24,2.204,0.719,2.765
				c0.479,0.56,1.131,0.84,1.955,0.84c0.848,0,1.503-0.274,1.967-0.823c0.465-0.549,0.697-1.534,0.697-2.955
				c0-1.196-0.242-2.069-0.727-2.621c-0.485-0.552-1.143-0.828-1.973-0.828c-0.795,0-1.434,0.28-1.916,0.841
				C50.572,69.358,50.331,70.284,50.331,71.579z"/>
		</g>
		<g class="st0">
			<path d="M191.08,79.597c0,0.057-0.015,0.105-0.042,0.148c-0.029,0.042-0.078,0.076-0.149,0.101s-0.165,0.046-0.282,0.063
				s-0.261,0.026-0.432,0.026c-0.184,0-0.333-0.009-0.446-0.026c-0.114-0.018-0.206-0.039-0.276-0.063
				c-0.071-0.024-0.121-0.059-0.149-0.101c-0.028-0.043-0.042-0.092-0.042-0.148v-6.08h-6.269v6.08c0,0.057-0.015,0.105-0.043,0.148
				c-0.028,0.042-0.078,0.076-0.149,0.101c-0.07,0.024-0.164,0.046-0.281,0.063s-0.265,0.026-0.441,0.026
				c-0.171,0-0.316-0.009-0.437-0.026c-0.121-0.018-0.217-0.039-0.288-0.063c-0.07-0.024-0.12-0.059-0.148-0.101
				c-0.028-0.043-0.043-0.092-0.043-0.148V66.441c0-0.056,0.015-0.105,0.043-0.147c0.028-0.043,0.078-0.076,0.148-0.102
				c0.071-0.024,0.167-0.045,0.288-0.063c0.12-0.018,0.266-0.026,0.437-0.026c0.177,0,0.324,0.009,0.441,0.026
				c0.117,0.019,0.211,0.039,0.281,0.063c0.071,0.025,0.121,0.059,0.149,0.102c0.028,0.042,0.043,0.092,0.043,0.147v5.487h6.269
				v-5.487c0-0.056,0.014-0.105,0.042-0.147c0.028-0.043,0.078-0.076,0.149-0.102c0.07-0.024,0.162-0.045,0.276-0.063
				c0.113-0.018,0.263-0.026,0.446-0.026c0.171,0,0.314,0.009,0.432,0.026c0.117,0.019,0.211,0.039,0.282,0.063
				c0.071,0.025,0.12,0.059,0.149,0.102c0.027,0.042,0.042,0.092,0.042,0.147V79.597z"/>
			<path d="M196.78,66.854c0,0.41-0.078,0.688-0.234,0.837s-0.443,0.223-0.861,0.223c-0.412,0-0.693-0.072-0.847-0.217
				c-0.152-0.145-0.229-0.419-0.229-0.821c0-0.409,0.077-0.688,0.233-0.837s0.443-0.223,0.863-0.223c0.41,0,0.693,0.073,0.846,0.218
				S196.78,66.451,196.78,66.854z M196.578,79.608c0,0.057-0.015,0.104-0.042,0.143c-0.029,0.039-0.075,0.072-0.139,0.101
				c-0.064,0.028-0.152,0.05-0.266,0.063c-0.114,0.015-0.26,0.021-0.438,0.021c-0.17,0-0.313-0.007-0.426-0.021
				c-0.113-0.014-0.203-0.035-0.271-0.063c-0.066-0.028-0.113-0.062-0.138-0.101c-0.024-0.038-0.037-0.086-0.037-0.143v-9.533
				c0-0.05,0.013-0.096,0.037-0.138c0.024-0.043,0.071-0.078,0.138-0.106c0.068-0.027,0.158-0.049,0.271-0.063
				c0.113-0.014,0.256-0.021,0.426-0.021c0.178,0,0.323,0.007,0.438,0.021c0.113,0.015,0.201,0.036,0.266,0.063
				c0.063,0.028,0.109,0.063,0.139,0.106c0.027,0.042,0.042,0.088,0.042,0.138V79.608z"/>
			<path d="M208.593,74.692c0,0.833-0.091,1.582-0.271,2.245c-0.182,0.664-0.447,1.228-0.799,1.69
				c-0.351,0.462-0.785,0.818-1.303,1.069c-0.519,0.251-1.111,0.376-1.777,0.376c-0.284,0-0.547-0.028-0.788-0.085
				s-0.478-0.145-0.708-0.265s-0.459-0.271-0.686-0.455c-0.228-0.184-0.469-0.399-0.725-0.646v4.767
				c0,0.057-0.014,0.106-0.042,0.148s-0.075,0.077-0.139,0.105s-0.152,0.05-0.266,0.064c-0.114,0.014-0.259,0.021-0.437,0.021
				c-0.17,0-0.313-0.007-0.426-0.021c-0.113-0.015-0.204-0.036-0.271-0.064s-0.113-0.063-0.139-0.105
				c-0.024-0.042-0.037-0.092-0.037-0.148V70.074c0-0.063,0.011-0.115,0.032-0.153c0.021-0.039,0.063-0.073,0.128-0.102
				c0.063-0.027,0.145-0.047,0.244-0.058s0.221-0.016,0.362-0.016c0.149,0,0.271,0.005,0.367,0.016s0.176,0.03,0.239,0.058
				c0.064,0.028,0.108,0.063,0.133,0.102c0.025,0.038,0.037,0.09,0.037,0.153v1.281c0.291-0.296,0.571-0.554,0.842-0.773
				c0.27-0.219,0.541-0.4,0.813-0.545s0.554-0.254,0.841-0.328s0.591-0.111,0.91-0.111c0.695,0,1.287,0.134,1.777,0.402
				c0.489,0.269,0.889,0.636,1.197,1.102s0.533,1.008,0.676,1.626C208.522,73.346,208.593,74,208.593,74.692z M206.772,74.894
				c0-0.487-0.037-0.959-0.112-1.414s-0.204-0.859-0.386-1.213c-0.182-0.353-0.426-0.636-0.733-0.848
				c-0.307-0.212-0.688-0.317-1.146-0.317c-0.229,0-0.453,0.033-0.675,0.101s-0.446,0.173-0.675,0.317
				c-0.229,0.146-0.467,0.336-0.717,0.572s-0.514,0.528-0.793,0.874v3.792c0.486,0.586,0.946,1.034,1.382,1.346
				c0.435,0.311,0.892,0.466,1.37,0.466c0.443,0,0.822-0.106,1.141-0.318c0.317-0.211,0.574-0.494,0.771-0.847
				c0.195-0.354,0.34-0.749,0.434-1.187C206.726,75.78,206.772,75.339,206.772,74.894z"/>
			<path d="M219.841,74.428c0,0.275-0.07,0.471-0.209,0.588c-0.139,0.116-0.297,0.175-0.476,0.175h-6.308
				c0,0.529,0.053,1.006,0.16,1.43s0.285,0.787,0.535,1.091c0.249,0.304,0.574,0.537,0.973,0.699
				c0.399,0.163,0.888,0.244,1.465,0.244c0.457,0,0.863-0.037,1.22-0.111s0.665-0.157,0.925-0.249s0.475-0.175,0.642-0.249
				c0.168-0.074,0.294-0.111,0.38-0.111c0.05,0,0.094,0.013,0.134,0.037c0.039,0.024,0.069,0.062,0.091,0.111
				s0.037,0.118,0.048,0.206c0.011,0.089,0.017,0.196,0.017,0.323c0,0.092-0.004,0.172-0.012,0.238
				c-0.006,0.067-0.016,0.127-0.025,0.181c-0.012,0.053-0.029,0.101-0.054,0.143c-0.024,0.043-0.057,0.083-0.096,0.122
				s-0.154,0.103-0.347,0.19c-0.191,0.089-0.439,0.175-0.744,0.26s-0.658,0.16-1.059,0.228c-0.401,0.067-0.828,0.101-1.283,0.101
				c-0.787,0-1.477-0.109-2.069-0.328s-1.091-0.544-1.495-0.975s-0.71-0.971-0.916-1.621c-0.205-0.649-0.309-1.404-0.309-2.267
				c0-0.819,0.107-1.555,0.32-2.208s0.52-1.208,0.92-1.663c0.4-0.456,0.885-0.806,1.453-1.049c0.566-0.244,1.202-0.365,1.904-0.365
				c0.752,0,1.393,0.12,1.922,0.359c0.527,0.24,0.963,0.563,1.303,0.97c0.341,0.406,0.591,0.883,0.75,1.43
				c0.16,0.548,0.24,1.132,0.24,1.753V74.428z M218.073,73.908c0.021-0.918-0.184-1.638-0.615-2.16s-1.072-0.784-1.922-0.784
				c-0.436,0-0.817,0.081-1.146,0.243c-0.329,0.163-0.604,0.378-0.825,0.646c-0.221,0.269-0.393,0.581-0.514,0.938
				s-0.189,0.729-0.203,1.117H218.073z"/>
			<path d="M228.153,70.699c0,0.155-0.004,0.286-0.011,0.392c-0.007,0.106-0.021,0.189-0.042,0.249
				c-0.021,0.061-0.049,0.105-0.08,0.138c-0.032,0.032-0.076,0.048-0.133,0.048s-0.127-0.016-0.208-0.048s-0.174-0.063-0.276-0.096
				c-0.104-0.031-0.219-0.062-0.346-0.09c-0.128-0.028-0.267-0.042-0.416-0.042c-0.177,0-0.351,0.035-0.521,0.105
				c-0.17,0.071-0.35,0.188-0.537,0.35c-0.188,0.163-0.385,0.378-0.59,0.646c-0.207,0.269-0.434,0.597-0.682,0.985v6.271
				c0,0.057-0.014,0.104-0.043,0.143c-0.028,0.039-0.074,0.072-0.139,0.101c-0.063,0.028-0.152,0.05-0.266,0.063
				c-0.113,0.015-0.259,0.021-0.436,0.021c-0.171,0-0.313-0.007-0.426-0.021c-0.114-0.014-0.205-0.035-0.271-0.063
				c-0.068-0.028-0.113-0.062-0.139-0.101c-0.025-0.038-0.037-0.086-0.037-0.143v-9.533c0-0.057,0.01-0.104,0.031-0.144
				c0.021-0.038,0.064-0.074,0.129-0.105c0.063-0.032,0.145-0.053,0.244-0.063s0.23-0.016,0.394-0.016
				c0.156,0,0.286,0.005,0.389,0.016s0.183,0.031,0.239,0.063c0.057,0.031,0.098,0.067,0.123,0.105
				c0.024,0.039,0.037,0.087,0.037,0.144v1.388c0.262-0.382,0.509-0.692,0.739-0.933s0.448-0.429,0.654-0.566
				s0.409-0.233,0.612-0.286c0.202-0.053,0.406-0.079,0.611-0.079c0.092,0,0.197,0.005,0.314,0.016s0.239,0.03,0.367,0.059
				c0.127,0.028,0.242,0.06,0.346,0.095c0.104,0.036,0.176,0.071,0.219,0.106c0.042,0.035,0.07,0.068,0.084,0.101
				c0.015,0.031,0.027,0.072,0.038,0.121c0.011,0.05,0.018,0.122,0.021,0.218C228.151,70.407,228.153,70.536,228.153,70.699z"/>
			<path d="M235.462,78.908c0,0.205-0.015,0.367-0.043,0.487c-0.029,0.12-0.071,0.208-0.128,0.265s-0.142,0.109-0.255,0.159
				c-0.114,0.049-0.244,0.09-0.389,0.122c-0.146,0.031-0.3,0.058-0.463,0.079c-0.164,0.021-0.326,0.031-0.49,0.031
				c-0.496,0-0.922-0.065-1.277-0.195c-0.354-0.131-0.645-0.329-0.872-0.594s-0.392-0.6-0.495-1.006
				c-0.103-0.406-0.154-0.885-0.154-1.436V71.25h-1.341c-0.106,0-0.191-0.057-0.255-0.17c-0.064-0.112-0.096-0.296-0.096-0.551
				c0-0.134,0.008-0.247,0.026-0.339c0.018-0.092,0.04-0.168,0.069-0.228c0.027-0.06,0.065-0.103,0.111-0.127
				c0.047-0.025,0.098-0.037,0.154-0.037h1.33v-2.267c0-0.05,0.013-0.096,0.037-0.138c0.025-0.043,0.071-0.08,0.139-0.111
				c0.067-0.032,0.158-0.055,0.271-0.069c0.113-0.014,0.256-0.021,0.426-0.021c0.178,0,0.322,0.008,0.437,0.021
				c0.113,0.015,0.202,0.037,0.266,0.069c0.063,0.031,0.11,0.068,0.139,0.111c0.028,0.042,0.042,0.088,0.042,0.138v2.267h2.459
				c0.057,0,0.106,0.012,0.148,0.037c0.043,0.024,0.08,0.067,0.112,0.127s0.055,0.136,0.069,0.228
				c0.014,0.092,0.021,0.205,0.021,0.339c0,0.255-0.033,0.438-0.096,0.551c-0.064,0.113-0.149,0.17-0.256,0.17h-2.459v5.317
				c0,0.656,0.098,1.152,0.293,1.488c0.195,0.335,0.545,0.503,1.049,0.503c0.162,0,0.309-0.016,0.436-0.048
				c0.128-0.031,0.242-0.065,0.341-0.101s0.185-0.068,0.255-0.101c0.071-0.031,0.135-0.048,0.192-0.048
				c0.035,0,0.069,0.009,0.101,0.026c0.032,0.019,0.057,0.052,0.074,0.101c0.018,0.05,0.034,0.117,0.049,0.202
				C235.454,78.675,235.462,78.781,235.462,78.908z"/>
			<path d="M245.605,74.428c0,0.275-0.069,0.471-0.208,0.588c-0.139,0.116-0.298,0.175-0.477,0.175h-6.307
				c0,0.529,0.053,1.006,0.16,1.43c0.106,0.424,0.285,0.787,0.534,1.091s0.574,0.537,0.974,0.699
				c0.398,0.163,0.887,0.244,1.465,0.244c0.456,0,0.862-0.037,1.219-0.111c0.357-0.074,0.665-0.157,0.926-0.249
				c0.26-0.092,0.474-0.175,0.641-0.249c0.168-0.074,0.295-0.111,0.381-0.111c0.049,0,0.094,0.013,0.133,0.037
				s0.07,0.062,0.092,0.111c0.021,0.05,0.037,0.118,0.047,0.206c0.012,0.089,0.017,0.196,0.017,0.323
				c0,0.092-0.003,0.172-0.011,0.238c-0.007,0.067-0.016,0.127-0.026,0.181c-0.011,0.053-0.028,0.101-0.054,0.143
				c-0.024,0.043-0.057,0.083-0.096,0.122s-0.154,0.103-0.346,0.19c-0.191,0.089-0.439,0.175-0.744,0.26
				c-0.306,0.085-0.658,0.16-1.06,0.228s-0.828,0.101-1.282,0.101c-0.787,0-1.478-0.109-2.07-0.328
				c-0.592-0.219-1.09-0.544-1.495-0.975c-0.404-0.431-0.71-0.971-0.915-1.621c-0.206-0.649-0.309-1.404-0.309-2.267
				c0-0.819,0.106-1.555,0.319-2.208s0.52-1.208,0.921-1.663c0.4-0.456,0.885-0.806,1.452-1.049
				c0.567-0.244,1.202-0.365,1.905-0.365c0.752,0,1.393,0.12,1.921,0.359c0.528,0.24,0.963,0.563,1.304,0.97
				c0.34,0.406,0.59,0.883,0.75,1.43c0.16,0.548,0.239,1.132,0.239,1.753V74.428z M243.839,73.908
				c0.021-0.918-0.184-1.638-0.615-2.16s-1.072-0.784-1.922-0.784c-0.436,0-0.818,0.081-1.146,0.243
				c-0.328,0.163-0.604,0.378-0.824,0.646s-0.393,0.581-0.514,0.938s-0.189,0.729-0.203,1.117H243.839z"/>
			<path d="M256.568,79.608c0,0.057-0.015,0.104-0.042,0.143c-0.029,0.039-0.075,0.072-0.139,0.101
				c-0.064,0.028-0.152,0.05-0.266,0.063c-0.114,0.015-0.256,0.021-0.426,0.021c-0.178,0-0.324-0.007-0.438-0.021
				c-0.113-0.014-0.201-0.035-0.266-0.063c-0.063-0.028-0.109-0.062-0.139-0.101c-0.027-0.038-0.042-0.086-0.042-0.143v-5.582
				c0-0.544-0.042-0.981-0.128-1.313c-0.085-0.332-0.209-0.618-0.373-0.858c-0.162-0.24-0.373-0.424-0.633-0.551
				c-0.259-0.127-0.559-0.19-0.898-0.19c-0.44,0-0.881,0.155-1.32,0.466s-0.9,0.767-1.383,1.366v6.663
				c0,0.057-0.015,0.104-0.043,0.143c-0.029,0.039-0.074,0.072-0.139,0.101c-0.063,0.028-0.152,0.05-0.266,0.063
				c-0.113,0.015-0.26,0.021-0.437,0.021c-0.171,0-0.313-0.007-0.426-0.021c-0.114-0.014-0.204-0.035-0.271-0.063
				s-0.113-0.062-0.138-0.101c-0.025-0.038-0.037-0.086-0.037-0.143v-9.533c0-0.057,0.01-0.104,0.031-0.144
				c0.021-0.038,0.064-0.074,0.128-0.105c0.063-0.032,0.146-0.053,0.245-0.063c0.099-0.011,0.23-0.016,0.393-0.016
				c0.156,0,0.286,0.005,0.389,0.016c0.104,0.011,0.184,0.031,0.24,0.063c0.057,0.031,0.098,0.067,0.122,0.105
				c0.024,0.039,0.037,0.087,0.037,0.144v1.261c0.539-0.601,1.077-1.04,1.612-1.319c0.535-0.278,1.076-0.418,1.623-0.418
				c0.639,0,1.176,0.107,1.612,0.323c0.437,0.215,0.789,0.503,1.06,0.863c0.27,0.359,0.463,0.781,0.579,1.266
				c0.117,0.483,0.176,1.064,0.176,1.742V79.608z"/>
			<path d="M266.22,77.012c0,0.487-0.09,0.922-0.271,1.304c-0.18,0.381-0.438,0.702-0.771,0.964
				c-0.333,0.261-0.73,0.459-1.191,0.593s-0.969,0.201-1.521,0.201c-0.341,0-0.666-0.026-0.975-0.079s-0.585-0.12-0.83-0.201
				c-0.244-0.081-0.451-0.166-0.622-0.255c-0.171-0.088-0.294-0.167-0.372-0.238c-0.078-0.07-0.135-0.169-0.171-0.296
				c-0.035-0.128-0.054-0.301-0.054-0.52c0-0.134,0.008-0.247,0.021-0.339c0.015-0.092,0.032-0.166,0.054-0.223
				s0.052-0.097,0.091-0.122c0.039-0.024,0.083-0.036,0.133-0.036c0.078,0,0.193,0.047,0.346,0.143s0.34,0.199,0.564,0.313
				c0.223,0.113,0.487,0.217,0.793,0.313c0.305,0.096,0.656,0.143,1.053,0.143c0.299,0,0.568-0.031,0.809-0.095
				c0.242-0.063,0.451-0.157,0.629-0.281c0.177-0.123,0.313-0.28,0.409-0.471c0.096-0.191,0.144-0.417,0.144-0.679
				c0-0.268-0.068-0.494-0.207-0.678s-0.321-0.346-0.549-0.487c-0.227-0.141-0.482-0.267-0.766-0.376
				c-0.284-0.109-0.576-0.224-0.878-0.344s-0.597-0.256-0.884-0.408c-0.287-0.151-0.545-0.337-0.771-0.556s-0.41-0.48-0.548-0.784
				s-0.208-0.667-0.208-1.091c0-0.374,0.073-0.732,0.219-1.075c0.145-0.343,0.363-0.643,0.654-0.9s0.654-0.465,1.091-0.62
				s0.945-0.232,1.527-0.232c0.255,0,0.511,0.021,0.767,0.063c0.255,0.042,0.485,0.095,0.691,0.158
				c0.205,0.064,0.381,0.133,0.527,0.207c0.145,0.074,0.255,0.14,0.329,0.196c0.075,0.057,0.124,0.105,0.149,0.148
				c0.024,0.042,0.043,0.09,0.053,0.143c0.011,0.053,0.021,0.118,0.032,0.196c0.011,0.077,0.016,0.173,0.016,0.285
				c0,0.121-0.005,0.225-0.016,0.313c-0.011,0.089-0.028,0.161-0.054,0.218c-0.024,0.057-0.055,0.097-0.09,0.122
				c-0.035,0.024-0.074,0.036-0.117,0.036c-0.064,0-0.156-0.038-0.277-0.116c-0.12-0.077-0.276-0.16-0.468-0.249
				c-0.191-0.088-0.417-0.171-0.676-0.249c-0.259-0.077-0.556-0.116-0.889-0.116c-0.298,0-0.561,0.033-0.788,0.101
				c-0.227,0.067-0.412,0.163-0.559,0.286c-0.145,0.124-0.255,0.271-0.33,0.439c-0.074,0.17-0.111,0.354-0.111,0.551
				c0,0.275,0.071,0.507,0.213,0.694c0.143,0.187,0.326,0.351,0.554,0.492s0.485,0.269,0.776,0.381
				c0.291,0.113,0.588,0.23,0.889,0.35c0.302,0.12,0.6,0.255,0.895,0.403c0.294,0.147,0.555,0.328,0.782,0.54
				c0.227,0.212,0.409,0.466,0.548,0.763C266.151,76.249,266.22,76.603,266.22,77.012z"/>
			<path d="M271.061,66.854c0,0.41-0.078,0.688-0.233,0.837c-0.156,0.148-0.444,0.223-0.863,0.223c-0.411,0-0.693-0.072-0.846-0.217
				s-0.229-0.419-0.229-0.821c0-0.409,0.078-0.688,0.234-0.837s0.443-0.223,0.861-0.223c0.412,0,0.693,0.073,0.846,0.218
				C270.984,66.178,271.061,66.451,271.061,66.854z M270.858,79.608c0,0.057-0.014,0.104-0.043,0.143
				c-0.028,0.039-0.074,0.072-0.139,0.101c-0.063,0.028-0.152,0.05-0.266,0.063c-0.113,0.015-0.259,0.021-0.436,0.021
				c-0.171,0-0.313-0.007-0.426-0.021c-0.114-0.014-0.205-0.035-0.271-0.063c-0.068-0.028-0.113-0.062-0.139-0.101
				c-0.025-0.038-0.037-0.086-0.037-0.143v-9.533c0-0.05,0.012-0.096,0.037-0.138c0.025-0.043,0.07-0.078,0.139-0.106
				c0.066-0.027,0.157-0.049,0.271-0.063c0.113-0.014,0.255-0.021,0.426-0.021c0.177,0,0.322,0.007,0.436,0.021
				c0.113,0.015,0.203,0.036,0.266,0.063c0.064,0.028,0.11,0.063,0.139,0.106c0.029,0.042,0.043,0.088,0.043,0.138V79.608z"/>
			<path d="M282.969,74.734c0,0.777-0.104,1.492-0.309,2.146c-0.206,0.653-0.513,1.216-0.921,1.689
				c-0.408,0.473-0.919,0.842-1.532,1.106c-0.614,0.266-1.325,0.397-2.134,0.397c-0.788,0-1.475-0.116-2.06-0.35
				c-0.585-0.232-1.073-0.572-1.463-1.017c-0.391-0.445-0.682-0.985-0.873-1.621c-0.191-0.635-0.287-1.355-0.287-2.16
				c0-0.777,0.101-1.492,0.304-2.146c0.201-0.653,0.506-1.216,0.915-1.689c0.407-0.473,0.916-0.84,1.526-1.102
				c0.61-0.261,1.323-0.392,2.14-0.392c0.787,0,1.474,0.116,2.06,0.35c0.585,0.232,1.072,0.571,1.463,1.017
				c0.39,0.444,0.683,0.985,0.878,1.62C282.871,73.22,282.969,73.937,282.969,74.734z M281.148,74.852
				c0-0.516-0.048-1.003-0.145-1.462s-0.257-0.861-0.479-1.208c-0.222-0.346-0.522-0.619-0.901-0.82
				c-0.38-0.201-0.853-0.302-1.418-0.302c-0.522,0-0.972,0.092-1.348,0.275s-0.686,0.442-0.929,0.778
				c-0.243,0.335-0.424,0.732-0.542,1.191s-0.178,0.961-0.178,1.504c0,0.522,0.049,1.014,0.146,1.473s0.258,0.859,0.483,1.202
				c0.225,0.343,0.527,0.614,0.907,0.815c0.379,0.201,0.852,0.302,1.417,0.302c0.516,0,0.963-0.091,1.343-0.275
				c0.379-0.184,0.69-0.44,0.934-0.772c0.244-0.332,0.423-0.728,0.537-1.187S281.148,75.402,281.148,74.852z M279.052,65.413
				c0.043-0.077,0.093-0.141,0.149-0.19c0.057-0.049,0.126-0.088,0.207-0.116c0.082-0.028,0.183-0.05,0.304-0.063
				c0.12-0.015,0.266-0.021,0.437-0.021c0.198,0,0.359,0.013,0.484,0.037c0.124,0.024,0.211,0.06,0.261,0.105
				c0.049,0.046,0.07,0.1,0.063,0.159c-0.007,0.061-0.039,0.122-0.096,0.186l-1.927,2.468c-0.057,0.071-0.107,0.127-0.154,0.17
				c-0.046,0.042-0.099,0.075-0.159,0.101c-0.061,0.024-0.139,0.042-0.234,0.053s-0.215,0.016-0.356,0.016
				c-0.156,0-0.28-0.011-0.372-0.031c-0.093-0.021-0.158-0.05-0.197-0.085s-0.053-0.081-0.042-0.138
				c0.01-0.057,0.04-0.124,0.09-0.201L279.052,65.413z"/>
			<path d="M294.194,79.608c0,0.057-0.015,0.104-0.043,0.143c-0.028,0.039-0.074,0.072-0.138,0.101
				c-0.064,0.028-0.153,0.05-0.267,0.063c-0.113,0.015-0.255,0.021-0.426,0.021c-0.177,0-0.322-0.007-0.436-0.021
				c-0.114-0.014-0.202-0.035-0.267-0.063c-0.063-0.028-0.11-0.062-0.139-0.101c-0.028-0.038-0.042-0.086-0.042-0.143v-5.582
				c0-0.544-0.043-0.981-0.128-1.313s-0.209-0.618-0.372-0.858s-0.375-0.424-0.634-0.551s-0.559-0.19-0.899-0.19
				c-0.439,0-0.879,0.155-1.319,0.466c-0.439,0.311-0.901,0.767-1.384,1.366v6.663c0,0.057-0.014,0.104-0.042,0.143
				c-0.028,0.039-0.074,0.072-0.139,0.101c-0.063,0.028-0.152,0.05-0.266,0.063c-0.114,0.015-0.26,0.021-0.437,0.021
				c-0.17,0-0.313-0.007-0.426-0.021c-0.113-0.014-0.204-0.035-0.271-0.063s-0.113-0.062-0.139-0.101
				c-0.024-0.038-0.037-0.086-0.037-0.143v-9.533c0-0.057,0.011-0.104,0.032-0.144c0.021-0.038,0.063-0.074,0.128-0.105
				c0.063-0.032,0.146-0.053,0.244-0.063c0.1-0.011,0.23-0.016,0.395-0.016c0.155,0,0.285,0.005,0.388,0.016
				c0.104,0.011,0.183,0.031,0.24,0.063c0.057,0.031,0.097,0.067,0.122,0.105c0.024,0.039,0.037,0.087,0.037,0.144v1.261
				c0.539-0.601,1.076-1.04,1.612-1.319c0.536-0.278,1.076-0.418,1.623-0.418c0.639,0,1.176,0.107,1.612,0.323
				c0.437,0.215,0.789,0.503,1.059,0.863c0.27,0.359,0.463,0.781,0.58,1.266c0.117,0.483,0.176,1.064,0.176,1.742V79.608z"/>
		</g>
	</g>
	<g>
		<defs>
			<polygon id="SVGID_5_" points="0.991,86.774 145.632,86.774 145.632,162.701 0.991,162.701 0.991,86.774 			"/>
		</defs>
		<clipPath id="SVGID_8_">
			<use xlink:href="#SVGID_5_"  style="overflow:visible;"/>
		</clipPath>
		<g class="st2">
			<path class="st1" d="M5.132,93.231h8.67v2.427H8.654v1.973h4.396v2.28H8.654v4.614H5.132V93.231z"/>
			<path class="st1" d="M15.999,93.231h9.396v2.412h-5.883v1.795h5.457v2.303h-5.457v2.227h6.053v2.558h-9.566V93.231z"/>
			<path class="st1" d="M35.436,99.902l3.073,0.925c-0.207,0.857-0.531,1.573-0.976,2.148s-0.995,1.01-1.652,1.303
				c-0.658,0.292-1.495,0.438-2.512,0.438c-1.233,0-2.241-0.178-3.022-0.535c-0.781-0.356-1.456-0.983-2.023-1.882
				c-0.568-0.898-0.852-2.048-0.852-3.449c0-1.868,0.499-3.304,1.498-4.308c0.998-1.003,2.41-1.505,4.236-1.505
				c1.43,0,2.553,0.288,3.371,0.863s1.426,1.458,1.822,2.649l-3.096,0.686c-0.107-0.344-0.222-0.596-0.34-0.755
				c-0.196-0.267-0.437-0.472-0.721-0.616c-0.283-0.144-0.601-0.216-0.951-0.216c-0.795,0-1.404,0.318-1.826,0.955
				c-0.32,0.472-0.48,1.213-0.48,2.223c0,1.252,0.191,2.11,0.572,2.574c0.383,0.464,0.919,0.696,1.61,0.696
				c0.671,0,1.178-0.188,1.521-0.563C35.032,101.16,35.28,100.616,35.436,99.902z"/>
			<path class="st1" d="M39.798,93.231h3.507v3.952h3.831v-3.952h3.521v11.294h-3.521v-4.568h-3.831v4.568h-3.507V93.231z"/>
			<path class="st1" d="M59.646,102.66h-3.98l-0.553,1.864h-3.58l4.266-11.294h3.824l4.264,11.294h-3.672L59.646,102.66z
				 M58.919,100.218l-1.252-4.06l-1.24,4.06H58.919z"/>
			<path class="st1" d="M69.588,93.231h5.209c1.026,0,1.856,0.139,2.488,0.416s1.154,0.676,1.567,1.194
				c0.412,0.519,0.712,1.122,0.897,1.811c0.187,0.688,0.278,1.417,0.278,2.188c0,1.207-0.138,2.144-0.414,2.809
				c-0.275,0.665-0.658,1.222-1.148,1.671c-0.49,0.45-1.018,0.749-1.58,0.897c-0.768,0.206-1.465,0.309-2.089,0.309h-5.209V93.231z
				 M73.094,95.788v6.171h0.859c0.732,0,1.254-0.081,1.563-0.242c0.31-0.162,0.552-0.444,0.728-0.848
				c0.175-0.403,0.263-1.057,0.263-1.961c0-1.196-0.195-2.016-0.588-2.457s-1.043-0.663-1.95-0.663H73.094z"/>
			<path class="st1" d="M81.435,93.231h9.396v2.412h-5.883v1.795h5.457v2.303h-5.457v2.227h6.053v2.558h-9.566V93.231z"/>
		</g>
		<g class="st2">
			<path class="st1" d="M5.109,118.865h9.396v2.412H8.623v1.795h5.456v2.303H8.623v2.227h6.053v2.558H5.109V118.865z"/>
			<path class="st1" d="M17.015,118.865h3.274l4.272,6.249v-6.249h3.305v11.294h-3.305l-4.249-6.201v6.201h-3.298V118.865z"/>
			<path class="st1" d="M29.082,118.865h10.657v2.789h-3.575v8.505h-3.507v-8.505h-3.575V118.865z"/>
			<path class="st1" d="M41.801,130.159v-11.294h5.843c1.084,0,1.912,0.093,2.485,0.277c0.573,0.186,1.034,0.528,1.386,1.029
				c0.35,0.5,0.525,1.11,0.525,1.829c0,0.627-0.134,1.167-0.402,1.622c-0.269,0.454-0.638,0.822-1.107,1.105
				c-0.299,0.18-0.71,0.328-1.231,0.446c0.418,0.139,0.722,0.277,0.913,0.416c0.129,0.093,0.315,0.291,0.561,0.595
				c0.244,0.303,0.408,0.537,0.491,0.701l1.698,3.272H49l-1.874-3.451c-0.238-0.447-0.449-0.737-0.635-0.87
				c-0.253-0.175-0.539-0.263-0.859-0.263h-0.31v4.584H41.801z M45.322,123.441h1.479c0.159,0,0.47-0.051,0.929-0.154
				c0.232-0.046,0.422-0.164,0.568-0.354c0.147-0.19,0.221-0.409,0.221-0.655c0-0.364-0.115-0.645-0.348-0.84
				s-0.668-0.293-1.309-0.293h-1.54V123.441z"/>
			<path class="st1" d="M53.648,118.865h9.396v2.412h-5.882v1.795h5.456v2.303h-5.456v2.227h6.053v2.558h-9.566V118.865z"/>
			<path class="st1" d="M71.235,126.068v-2.35h5.418v4.815c-1.037,0.703-1.955,1.182-2.752,1.437
				c-0.797,0.254-1.742,0.381-2.836,0.381c-1.348,0-2.445-0.229-3.293-0.686c-0.85-0.457-1.508-1.138-1.975-2.041
				c-0.467-0.904-0.7-1.941-0.7-3.112c0-1.232,0.255-2.305,0.767-3.217c0.51-0.911,1.259-1.604,2.244-2.076
				c0.77-0.364,1.803-0.547,3.104-0.547c1.254,0,2.191,0.113,2.813,0.339c0.622,0.227,1.138,0.577,1.548,1.052
				c0.41,0.476,0.719,1.077,0.926,1.807l-3.383,0.601c-0.14-0.426-0.375-0.752-0.709-0.979c-0.332-0.226-0.757-0.339-1.272-0.339
				c-0.769,0-1.382,0.266-1.839,0.798c-0.456,0.531-0.685,1.372-0.685,2.522c0,1.223,0.231,2.096,0.692,2.619
				c0.463,0.524,1.105,0.786,1.932,0.786c0.393,0,0.766-0.057,1.122-0.17c0.356-0.112,0.764-0.305,1.224-0.577v-1.063H71.235z"/>
			<path class="st1" d="M85.394,128.295h-3.98l-0.553,1.864h-3.58l4.266-11.294h3.824l4.264,11.294h-3.672L85.394,128.295z
				 M84.667,125.853l-1.252-4.06l-1.24,4.06H84.667z"/>
		</g>
		<g class="st2">
			<path class="st1" d="M5.163,144.518h5.209c1.027,0,1.856,0.139,2.488,0.416c0.633,0.277,1.154,0.676,1.568,1.194
				c0.412,0.519,0.711,1.122,0.896,1.811c0.187,0.688,0.279,1.417,0.279,2.188c0,1.207-0.139,2.144-0.414,2.809
				c-0.276,0.665-0.659,1.222-1.149,1.671c-0.49,0.45-1.017,0.749-1.579,0.897c-0.769,0.206-1.465,0.309-2.09,0.309H5.163V144.518z
				 M8.669,147.075v6.171h0.859c0.732,0,1.254-0.081,1.564-0.242c0.309-0.162,0.551-0.444,0.727-0.848s0.264-1.057,0.264-1.961
				c0-1.196-0.196-2.016-0.588-2.457c-0.393-0.441-1.043-0.663-1.951-0.663H8.669z"/>
			<path class="st1" d="M17.011,144.518h9.396v2.412h-5.883v1.795h5.457v2.303h-5.457v2.227h6.053v2.558h-9.566V144.518z"/>
			<path class="st1" d="M33.848,144.518h5.828c1.269,0,2.22,0.301,2.853,0.901c0.631,0.602,0.947,1.456,0.947,2.565
				c0,1.141-0.344,2.031-1.033,2.674c-0.688,0.642-1.74,0.963-3.154,0.963h-1.919v4.19h-3.521V144.518z M37.369,149.333h0.859
				c0.676,0,1.15-0.117,1.424-0.351s0.41-0.533,0.41-0.897c0-0.354-0.118-0.655-0.356-0.901c-0.236-0.247-0.684-0.37-1.338-0.37
				h-0.999V149.333z"/>
			<path class="st1" d="M45.784,155.812v-11.294h5.844c1.084,0,1.912,0.093,2.484,0.277c0.573,0.186,1.035,0.528,1.386,1.029
				c0.351,0.5,0.526,1.11,0.526,1.829c0,0.627-0.135,1.167-0.402,1.622c-0.27,0.454-0.639,0.822-1.107,1.105
				c-0.3,0.18-0.711,0.328-1.232,0.446c0.418,0.139,0.723,0.277,0.913,0.416c0.13,0.093,0.315,0.291,0.562,0.595
				c0.244,0.303,0.408,0.537,0.49,0.701l1.698,3.272h-3.962l-1.874-3.451c-0.237-0.447-0.448-0.737-0.634-0.87
				c-0.254-0.175-0.54-0.263-0.859-0.263h-0.311v4.584H45.784z M49.306,149.094h1.479c0.16,0,0.47-0.051,0.93-0.154
				c0.231-0.046,0.422-0.164,0.568-0.354c0.146-0.19,0.221-0.409,0.221-0.655c0-0.364-0.116-0.645-0.349-0.84
				c-0.231-0.195-0.668-0.293-1.308-0.293h-1.541V149.094z"/>
			<path class="st1" d="M57.198,150.173c0-1.844,0.516-3.279,1.548-4.307s2.47-1.541,4.312-1.541c1.889,0,3.344,0.505,4.365,1.514
				c1.021,1.01,1.532,2.423,1.532,4.241c0,1.32-0.224,2.402-0.669,3.247c-0.447,0.845-1.092,1.502-1.936,1.972
				c-0.844,0.471-1.895,0.705-3.154,0.705c-1.279,0-2.338-0.202-3.177-0.608c-0.839-0.405-1.519-1.048-2.04-1.926
				C57.459,152.592,57.198,151.492,57.198,150.173z M60.704,150.188c0,1.141,0.213,1.96,0.639,2.458s1.005,0.747,1.738,0.747
				c0.753,0,1.336-0.244,1.748-0.731c0.414-0.488,0.619-1.364,0.619-2.627c0-1.063-0.215-1.84-0.646-2.331
				c-0.431-0.49-1.015-0.735-1.753-0.735c-0.707,0-1.275,0.249-1.703,0.747S60.704,149.037,60.704,150.188z M62.995,141.529h2.709
				l-2.5,2.303h-1.509L62.995,141.529z"/>
			<path class="st1" d="M69.73,144.518h10.658v2.789h-3.576v8.505h-3.506v-8.505H69.73V144.518z"/>
			<path class="st1" d="M82.394,144.518h9.396v2.412h-5.883v1.795h5.457v2.303h-5.457v2.227h6.053v2.558h-9.566V144.518z"/>
			<path class="st1" d="M93.665,152.075l3.336-0.208c0.072,0.539,0.22,0.95,0.441,1.232c0.361,0.457,0.877,0.686,1.549,0.686
				c0.5,0,0.886-0.116,1.156-0.351c0.271-0.233,0.406-0.504,0.406-0.813c0-0.293-0.129-0.555-0.387-0.785
				c-0.258-0.231-0.856-0.45-1.795-0.655c-1.538-0.344-2.635-0.801-3.29-1.371c-0.661-0.57-0.991-1.297-0.991-2.181
				c0-0.58,0.17-1.128,0.508-1.645c0.338-0.516,0.846-0.922,1.524-1.217c0.679-0.296,1.608-0.443,2.79-0.443
				c1.45,0,2.556,0.269,3.316,0.806c0.762,0.536,1.215,1.39,1.359,2.562l-3.306,0.192c-0.088-0.509-0.272-0.879-0.554-1.109
				c-0.281-0.231-0.669-0.347-1.164-0.347c-0.408,0-0.715,0.086-0.922,0.258c-0.206,0.172-0.309,0.382-0.309,0.628
				c0,0.18,0.084,0.342,0.255,0.485c0.165,0.149,0.558,0.288,1.177,0.416c1.532,0.329,2.63,0.661,3.293,0.997
				c0.663,0.337,1.146,0.754,1.447,1.252c0.302,0.499,0.453,1.056,0.453,1.672c0,0.725-0.201,1.392-0.604,2.003
				s-0.965,1.075-1.688,1.391s-1.633,0.474-2.732,0.474c-1.93,0-3.266-0.369-4.01-1.109
				C94.185,154.155,93.764,153.216,93.665,152.075z"/>
			<path class="st1" d="M106.292,144.518h3.514v11.294h-3.514V144.518z"/>
			<path class="st1" d="M111.487,152.075l3.336-0.208c0.072,0.539,0.219,0.95,0.441,1.232c0.361,0.457,0.877,0.686,1.548,0.686
				c0.501,0,0.886-0.116,1.157-0.351c0.271-0.233,0.406-0.504,0.406-0.813c0-0.293-0.129-0.555-0.387-0.785
				c-0.258-0.231-0.857-0.45-1.796-0.655c-1.538-0.344-2.634-0.801-3.29-1.371c-0.66-0.57-0.99-1.297-0.99-2.181
				c0-0.58,0.169-1.128,0.507-1.645c0.338-0.516,0.847-0.922,1.524-1.217c0.68-0.296,1.609-0.443,2.791-0.443
				c1.449,0,2.555,0.269,3.316,0.806c0.761,0.536,1.214,1.39,1.358,2.562l-3.306,0.192c-0.088-0.509-0.271-0.879-0.553-1.109
				c-0.281-0.231-0.67-0.347-1.165-0.347c-0.407,0-0.715,0.086-0.921,0.258c-0.207,0.172-0.31,0.382-0.31,0.628
				c0,0.18,0.085,0.342,0.255,0.485c0.166,0.149,0.558,0.288,1.177,0.416c1.532,0.329,2.63,0.661,3.294,0.997
				c0.662,0.337,1.145,0.754,1.447,1.252c0.301,0.499,0.452,1.056,0.452,1.672c0,0.725-0.201,1.392-0.604,2.003
				s-0.965,1.075-1.688,1.391c-0.722,0.315-1.633,0.474-2.731,0.474c-1.93,0-3.267-0.369-4.01-1.109
				C112.006,154.155,111.585,153.216,111.487,152.075z"/>
		</g>
	</g>
	<g>
		<defs>
			<polygon id="SVGID_4_" points="0.991,0.986 328.911,0.986 328.911,163.687 0.991,163.687 0.991,0.986 			"/>
		</defs>
		<clipPath id="SVGID_9_">
			<use xlink:href="#SVGID_4_"  style="overflow:visible;"/>
		</clipPath>
		<g class="st3">
			<path d="M195.56,125.243c0,1.052-0.084,2.013-0.25,2.881c-0.167,0.868-0.443,1.615-0.83,2.24s-0.893,1.108-1.517,1.451
				s-1.394,0.514-2.31,0.514c-0.865,0-1.594-0.153-2.188-0.461c-0.592-0.307-1.068-0.759-1.431-1.355s-0.619-1.331-0.771-2.203
				c-0.153-0.872-0.229-1.873-0.229-3.003c0-1.045,0.086-2.004,0.256-2.876s0.447-1.621,0.83-2.246s0.887-1.108,1.512-1.451
				c0.624-0.342,1.391-0.514,2.299-0.514c0.872,0,1.604,0.154,2.197,0.461c0.592,0.308,1.069,0.76,1.432,1.355
				c0.361,0.598,0.619,1.332,0.771,2.204S195.56,124.113,195.56,125.243z M193.687,125.37c0-0.686-0.025-1.3-0.074-1.844
				c-0.05-0.543-0.123-1.023-0.219-1.44c-0.096-0.416-0.22-0.774-0.372-1.075c-0.153-0.3-0.335-0.547-0.548-0.741
				s-0.456-0.335-0.729-0.424c-0.272-0.088-0.579-0.132-0.921-0.132c-0.603,0-1.092,0.141-1.469,0.424
				c-0.375,0.282-0.672,0.671-0.889,1.165c-0.216,0.494-0.363,1.073-0.441,1.737c-0.078,0.663-0.117,1.377-0.117,2.14
				c0,1.023,0.054,1.894,0.16,2.61s0.275,1.302,0.506,1.753c0.23,0.452,0.525,0.781,0.883,0.985
				c0.358,0.205,0.793,0.308,1.304,0.308c0.397,0,0.747-0.063,1.048-0.191c0.303-0.127,0.561-0.309,0.777-0.545
				s0.396-0.521,0.537-0.853c0.143-0.332,0.256-0.699,0.341-1.102c0.085-0.403,0.144-0.839,0.176-1.309
				S193.687,125.878,193.687,125.37z"/>
			<path d="M206.22,119.205c0,0.127-0.005,0.242-0.016,0.345c-0.011,0.102-0.025,0.201-0.043,0.296
				c-0.018,0.096-0.042,0.188-0.074,0.275c-0.031,0.089-0.068,0.183-0.111,0.281l-4.959,11.376c-0.036,0.085-0.08,0.153-0.133,0.207
				c-0.054,0.053-0.121,0.095-0.203,0.127c-0.082,0.031-0.186,0.053-0.313,0.063s-0.284,0.016-0.468,0.016
				c-0.242,0-0.43-0.011-0.564-0.031c-0.135-0.021-0.232-0.055-0.293-0.102c-0.061-0.045-0.087-0.102-0.08-0.169
				c0.008-0.067,0.032-0.146,0.074-0.238l5.215-11.631h-6.608c-0.135,0-0.235-0.07-0.304-0.212
				c-0.066-0.141-0.101-0.339-0.101-0.593c0-0.134,0.009-0.251,0.026-0.35s0.045-0.182,0.08-0.249s0.078-0.116,0.127-0.148
				c0.051-0.031,0.107-0.048,0.171-0.048h8.024c0.1,0,0.186,0.011,0.261,0.032c0.074,0.021,0.131,0.063,0.17,0.127
				s0.069,0.145,0.091,0.244C206.21,118.923,206.22,119.05,206.22,119.205z"/>
			<path d="M208.888,134.681c-0.028,0.092-0.065,0.164-0.111,0.217c-0.047,0.054-0.105,0.094-0.176,0.122s-0.158,0.05-0.261,0.063
				c-0.103,0.015-0.229,0.021-0.378,0.021c-0.178,0-0.324-0.013-0.441-0.037s-0.207-0.061-0.271-0.106s-0.104-0.102-0.117-0.169
				s0-0.146,0.043-0.238l6.438-17.573c0.028-0.092,0.065-0.164,0.112-0.217c0.045-0.053,0.102-0.096,0.17-0.127
				c0.066-0.032,0.154-0.054,0.26-0.063c0.107-0.011,0.234-0.017,0.384-0.017c0.177,0,0.323,0.013,0.437,0.037
				c0.113,0.025,0.202,0.059,0.266,0.101c0.064,0.043,0.104,0.1,0.117,0.17s0.004,0.151-0.031,0.243L208.888,134.681z"/>
			<path d="M225.862,131.407c0,0.135-0.01,0.248-0.031,0.34s-0.05,0.166-0.086,0.222c-0.035,0.057-0.076,0.098-0.121,0.122
				c-0.047,0.024-0.095,0.037-0.145,0.037h-7.193c-0.051,0-0.096-0.013-0.139-0.037s-0.084-0.065-0.123-0.122
				c-0.039-0.056-0.068-0.13-0.09-0.222s-0.032-0.205-0.032-0.34c0-0.127,0.011-0.236,0.032-0.328s0.048-0.168,0.08-0.228
				c0.031-0.06,0.07-0.105,0.117-0.138c0.045-0.032,0.098-0.048,0.154-0.048h2.873v-10.423l-2.66,1.578
				c-0.135,0.071-0.244,0.113-0.325,0.127c-0.081,0.015-0.147-0.001-0.196-0.047c-0.051-0.046-0.084-0.122-0.102-0.229
				c-0.018-0.105-0.027-0.239-0.027-0.402c0-0.12,0.006-0.223,0.017-0.307c0.011-0.085,0.026-0.155,0.048-0.212
				s0.051-0.106,0.09-0.148c0.039-0.043,0.092-0.085,0.154-0.127l3.172-2.023c0.028-0.021,0.064-0.039,0.106-0.053
				c0.043-0.015,0.097-0.028,0.159-0.043c0.064-0.014,0.139-0.022,0.225-0.026c0.084-0.003,0.191-0.005,0.318-0.005
				c0.171,0,0.313,0.007,0.426,0.021c0.113,0.015,0.203,0.034,0.267,0.059c0.063,0.025,0.106,0.057,0.128,0.096
				s0.031,0.079,0.031,0.121v12.044h2.49c0.057,0,0.11,0.016,0.16,0.048c0.049,0.032,0.09,0.078,0.122,0.138
				s0.057,0.136,0.075,0.228C225.855,131.171,225.862,131.28,225.862,131.407z"/>
			<path d="M236.747,131.344c0,0.128-0.01,0.24-0.027,0.339c-0.018,0.1-0.042,0.183-0.074,0.249
				c-0.031,0.067-0.074,0.117-0.127,0.148c-0.054,0.032-0.112,0.048-0.176,0.048h-7.609c-0.1,0-0.186-0.013-0.261-0.037
				s-0.138-0.065-0.191-0.122c-0.054-0.056-0.093-0.138-0.117-0.243c-0.024-0.106-0.037-0.236-0.037-0.393
				c0-0.141,0.005-0.265,0.017-0.37c0.011-0.106,0.034-0.199,0.07-0.281c0.037-0.081,0.083-0.162,0.138-0.243
				s0.126-0.168,0.214-0.26l2.752-2.817c0.637-0.649,1.146-1.232,1.53-1.748c0.384-0.515,0.681-0.984,0.888-1.408
				c0.209-0.424,0.346-0.809,0.412-1.155c0.066-0.346,0.099-0.671,0.099-0.975c0-0.303-0.052-0.591-0.153-0.863
				c-0.104-0.271-0.252-0.51-0.445-0.715c-0.193-0.204-0.438-0.367-0.73-0.487s-0.629-0.18-1.01-0.18
				c-0.447,0-0.848,0.06-1.203,0.18c-0.354,0.12-0.666,0.251-0.934,0.393c-0.267,0.141-0.49,0.271-0.669,0.392
				s-0.313,0.18-0.401,0.18c-0.051,0-0.097-0.014-0.137-0.042c-0.041-0.028-0.073-0.074-0.1-0.138
				c-0.025-0.063-0.045-0.148-0.06-0.254c-0.015-0.106-0.022-0.233-0.022-0.382c0-0.105,0.004-0.197,0.012-0.275
				c0.006-0.077,0.019-0.145,0.037-0.201c0.018-0.057,0.04-0.109,0.068-0.159c0.028-0.049,0.086-0.11,0.17-0.185
				c0.086-0.074,0.232-0.175,0.442-0.303c0.209-0.127,0.472-0.252,0.788-0.376c0.314-0.123,0.662-0.228,1.043-0.313
				c0.379-0.084,0.777-0.127,1.196-0.127c0.667,0,1.251,0.094,1.751,0.281c0.5,0.187,0.915,0.443,1.245,0.768
				c0.33,0.325,0.576,0.703,0.739,1.134c0.164,0.431,0.245,0.89,0.245,1.377c0,0.438-0.039,0.874-0.117,1.308
				c-0.078,0.435-0.243,0.904-0.495,1.409s-0.615,1.066-1.09,1.685c-0.477,0.617-1.107,1.329-1.895,2.134l-2.182,2.267h5.991
				c0.057,0,0.112,0.017,0.165,0.048c0.053,0.032,0.1,0.08,0.139,0.144s0.066,0.143,0.084,0.238
				C236.737,131.106,236.747,131.217,236.747,131.344z"/>
			<path d="M239.618,134.681c-0.029,0.092-0.066,0.164-0.112,0.217c-0.046,0.054-0.104,0.094-0.176,0.122s-0.157,0.05-0.261,0.063
				c-0.104,0.015-0.229,0.021-0.378,0.021c-0.177,0-0.324-0.013-0.441-0.037s-0.208-0.061-0.271-0.106s-0.103-0.102-0.117-0.169
				s0-0.146,0.043-0.238l6.438-17.573c0.028-0.092,0.065-0.164,0.111-0.217c0.047-0.053,0.104-0.096,0.17-0.127
				c0.068-0.032,0.154-0.054,0.262-0.063c0.105-0.011,0.234-0.017,0.383-0.017c0.178,0,0.322,0.013,0.437,0.037
				c0.113,0.025,0.202,0.059,0.266,0.101c0.063,0.043,0.103,0.1,0.117,0.17s0.003,0.151-0.032,0.243L239.618,134.681z"/>
			<path d="M256.561,131.344c0,0.128-0.009,0.24-0.026,0.339c-0.018,0.1-0.043,0.183-0.074,0.249
				c-0.033,0.067-0.075,0.117-0.129,0.148c-0.053,0.032-0.111,0.048-0.175,0.048h-7.609c-0.1,0-0.187-0.013-0.261-0.037
				s-0.139-0.065-0.191-0.122c-0.053-0.056-0.092-0.138-0.117-0.243c-0.025-0.106-0.037-0.236-0.037-0.393
				c0-0.141,0.006-0.265,0.016-0.37c0.012-0.106,0.035-0.199,0.072-0.281c0.036-0.081,0.082-0.162,0.137-0.243
				s0.126-0.168,0.214-0.26l2.753-2.817c0.636-0.649,1.146-1.232,1.529-1.748c0.384-0.515,0.68-0.984,0.889-1.408
				c0.208-0.424,0.346-0.809,0.411-1.155c0.065-0.346,0.099-0.671,0.099-0.975c0-0.303-0.051-0.591-0.154-0.863
				c-0.102-0.271-0.25-0.51-0.444-0.715c-0.194-0.204-0.438-0.367-0.729-0.487c-0.293-0.12-0.631-0.18-1.011-0.18
				c-0.446,0-0.848,0.06-1.202,0.18c-0.355,0.12-0.666,0.251-0.934,0.393c-0.268,0.141-0.49,0.271-0.67,0.392s-0.313,0.18-0.4,0.18
				c-0.052,0-0.098-0.014-0.138-0.042s-0.073-0.074-0.099-0.138s-0.046-0.148-0.061-0.254c-0.015-0.106-0.021-0.233-0.021-0.382
				c0-0.105,0.003-0.197,0.01-0.275c0.008-0.077,0.02-0.145,0.037-0.201s0.041-0.109,0.069-0.159
				c0.028-0.049,0.085-0.11,0.171-0.185c0.085-0.074,0.232-0.175,0.441-0.303c0.209-0.127,0.472-0.252,0.787-0.376
				c0.316-0.123,0.664-0.228,1.043-0.313c0.38-0.084,0.779-0.127,1.197-0.127c0.667,0,1.25,0.094,1.751,0.281
				c0.5,0.187,0.915,0.443,1.245,0.768c0.33,0.325,0.576,0.703,0.74,1.134c0.162,0.431,0.244,0.89,0.244,1.377
				c0,0.438-0.039,0.874-0.117,1.308c-0.078,0.435-0.243,0.904-0.494,1.409c-0.252,0.505-0.616,1.066-1.092,1.685
				c-0.475,0.617-1.106,1.329-1.895,2.134l-2.182,2.267h5.992c0.057,0,0.111,0.017,0.165,0.048c0.054,0.032,0.099,0.08,0.138,0.144
				s0.068,0.143,0.086,0.238C256.552,131.106,256.561,131.217,256.561,131.344z"/>
			<path d="M267.935,125.243c0,1.052-0.084,2.013-0.25,2.881c-0.168,0.868-0.443,1.615-0.83,2.24s-0.893,1.108-1.518,1.451
				c-0.624,0.343-1.394,0.514-2.309,0.514c-0.865,0-1.595-0.153-2.188-0.461c-0.592-0.307-1.069-0.759-1.432-1.355
				c-0.361-0.597-0.619-1.331-0.771-2.203s-0.229-1.873-0.229-3.003c0-1.045,0.086-2.004,0.256-2.876s0.447-1.621,0.83-2.246
				s0.887-1.108,1.511-1.451c0.624-0.342,1.391-0.514,2.299-0.514c0.872,0,1.604,0.154,2.198,0.461
				c0.592,0.308,1.068,0.76,1.431,1.355c0.362,0.598,0.619,1.332,0.771,2.204C267.858,123.112,267.935,124.113,267.935,125.243z
				 M266.062,125.37c0-0.686-0.025-1.3-0.074-1.844c-0.051-0.543-0.123-1.023-0.219-1.44c-0.096-0.416-0.221-0.774-0.373-1.075
				c-0.152-0.3-0.335-0.547-0.548-0.741c-0.212-0.194-0.456-0.335-0.729-0.424c-0.272-0.088-0.579-0.132-0.92-0.132
				c-0.604,0-1.093,0.141-1.469,0.424c-0.376,0.282-0.672,0.671-0.889,1.165s-0.363,1.073-0.441,1.737
				c-0.078,0.663-0.117,1.377-0.117,2.14c0,1.023,0.053,1.894,0.16,2.61c0.105,0.717,0.274,1.302,0.505,1.753
				c0.23,0.452,0.525,0.781,0.884,0.985c0.357,0.205,0.793,0.308,1.303,0.308c0.398,0,0.747-0.063,1.049-0.191
				c0.302-0.127,0.561-0.309,0.777-0.545c0.216-0.236,0.395-0.521,0.537-0.853c0.142-0.332,0.256-0.699,0.34-1.102
				c0.086-0.403,0.145-0.839,0.176-1.309C266.045,126.367,266.062,125.878,266.062,125.37z"/>
			<path d="M278.424,131.407c0,0.135-0.011,0.248-0.032,0.34c-0.021,0.092-0.049,0.166-0.085,0.222
				c-0.035,0.057-0.076,0.098-0.122,0.122s-0.094,0.037-0.144,0.037h-7.194c-0.05,0-0.096-0.013-0.139-0.037
				s-0.083-0.065-0.122-0.122c-0.039-0.056-0.069-0.13-0.091-0.222s-0.031-0.205-0.031-0.34c0-0.127,0.01-0.236,0.031-0.328
				s0.049-0.168,0.08-0.228c0.032-0.06,0.07-0.105,0.117-0.138c0.046-0.032,0.098-0.048,0.154-0.048h2.873v-10.423l-2.66,1.578
				c-0.135,0.071-0.243,0.113-0.324,0.127c-0.082,0.015-0.148-0.001-0.197-0.047c-0.05-0.046-0.084-0.122-0.102-0.229
				c-0.018-0.105-0.026-0.239-0.026-0.402c0-0.12,0.005-0.223,0.017-0.307c0.01-0.085,0.026-0.155,0.047-0.212
				c0.021-0.057,0.052-0.106,0.091-0.148c0.039-0.043,0.091-0.085,0.154-0.127l3.171-2.023c0.029-0.021,0.064-0.039,0.107-0.053
				c0.043-0.015,0.096-0.028,0.159-0.043c0.063-0.014,0.139-0.022,0.224-0.026c0.085-0.003,0.191-0.005,0.319-0.005
				c0.17,0,0.313,0.007,0.426,0.021c0.113,0.015,0.202,0.034,0.266,0.059c0.064,0.025,0.106,0.057,0.128,0.096
				s0.032,0.079,0.032,0.121v12.044h2.49c0.057,0,0.109,0.016,0.159,0.048s0.091,0.078,0.123,0.138
				c0.031,0.06,0.057,0.136,0.074,0.228S278.424,131.28,278.424,131.407z"/>
			<path d="M289.627,128.611c0,0.593-0.106,1.121-0.319,1.583c-0.213,0.463-0.52,0.854-0.92,1.171
				c-0.401,0.317-0.896,0.558-1.484,0.721c-0.59,0.162-1.264,0.243-2.022,0.243c-0.71,0-1.345-0.074-1.905-0.223
				s-1.035-0.367-1.426-0.656c-0.391-0.29-0.688-0.646-0.894-1.07c-0.206-0.424-0.309-0.907-0.309-1.451
				c0-0.431,0.07-0.826,0.213-1.187c0.142-0.359,0.346-0.691,0.611-0.995c0.267-0.304,0.595-0.588,0.984-0.853
				c0.391-0.265,0.83-0.518,1.32-0.758c-0.426-0.219-0.803-0.45-1.129-0.693c-0.326-0.244-0.603-0.509-0.83-0.795
				c-0.227-0.286-0.398-0.591-0.516-0.916s-0.176-0.678-0.176-1.06c0-0.479,0.087-0.93,0.261-1.351
				c0.174-0.42,0.437-0.785,0.787-1.096c0.352-0.311,0.799-0.557,1.342-0.736c0.542-0.181,1.176-0.271,1.899-0.271
				c0.695,0,1.296,0.083,1.804,0.249c0.507,0.166,0.926,0.393,1.256,0.678c0.33,0.286,0.572,0.624,0.729,1.012
				c0.156,0.389,0.234,0.806,0.234,1.25c0,0.36-0.059,0.706-0.176,1.038s-0.289,0.646-0.516,0.942
				c-0.228,0.297-0.506,0.574-0.836,0.832s-0.707,0.5-1.133,0.726c0.503,0.247,0.952,0.501,1.346,0.763s0.724,0.542,0.99,0.842
				c0.266,0.301,0.468,0.618,0.606,0.953C289.559,127.84,289.627,128.209,289.627,128.611z M287.775,128.802
				c0-0.324-0.061-0.619-0.181-0.885c-0.121-0.265-0.304-0.512-0.548-0.741c-0.245-0.229-0.55-0.452-0.916-0.667
				c-0.365-0.216-0.789-0.439-1.271-0.673c-0.446,0.219-0.839,0.438-1.176,0.657s-0.613,0.444-0.83,0.678
				c-0.217,0.232-0.38,0.479-0.489,0.736c-0.11,0.258-0.165,0.542-0.165,0.853c0,0.685,0.235,1.215,0.707,1.589
				c0.473,0.374,1.177,0.562,2.113,0.562c0.908,0,1.594-0.189,2.059-0.567C287.543,129.966,287.775,129.452,287.775,128.802z
				 M287.328,121.578c0-0.297-0.051-0.565-0.154-0.806c-0.103-0.239-0.253-0.444-0.452-0.614c-0.198-0.169-0.445-0.298-0.739-0.387
				c-0.295-0.088-0.63-0.132-1.006-0.132c-0.767,0-1.346,0.173-1.74,0.519c-0.394,0.347-0.591,0.819-0.591,1.42
				c0,0.275,0.049,0.531,0.145,0.768s0.244,0.461,0.446,0.673s0.458,0.418,0.767,0.619s0.676,0.412,1.102,0.631
				c0.717-0.367,1.267-0.773,1.649-1.219C287.137,122.606,287.328,122.114,287.328,121.578z"/>
		</g>
	</g>
	<g>
		<defs>
			<polygon id="SVGID_3_" points="0,0 328.911,0 328.911,163.687 0,163.687 0,0 			"/>
		</defs>
		<clipPath id="SVGID_10_">
			<use xlink:href="#SVGID_3_"  style="overflow:visible;"/>
		</clipPath>
		<polyline class="st4" points="0,0 0,0 0.991,0 0.991,0 0,0 		"/>
		<polyline class="st4" points="145.632,0 145.632,0 146.623,0 146.623,0 145.632,0 		"/>
		<line class="st5" x1="0.991" y1="0" x2="328.911" y2="0"/>
		<polyline class="st6" points="0.991,0 0.991,0.986 328.911,0.986 328.911,0 0.991,0 		"/>
		<polyline class="st4" points="327.92,0 327.92,0 328.911,0 328.911,0 327.92,0 		"/>
		<line class="st5" x1="0.991" y1="28.596" x2="328.911" y2="28.596"/>
		<polyline class="st6" points="0.991,28.596 0.991,29.582 328.911,29.582 328.911,28.596 0.991,28.596 		"/>
		<line class="st5" x1="0.991" y1="57.192" x2="328.911" y2="57.192"/>
		<polyline class="st6" points="0.991,57.192 0.991,58.178 328.911,58.178 328.911,57.192 0.991,57.192 		"/>
		<line class="st5" x1="0.991" y1="85.788" x2="328.911" y2="85.788"/>
		<polyline class="st6" points="0.991,85.788 0.991,86.774 328.911,86.774 328.911,85.788 0.991,85.788 		"/>
		<line class="st5" x1="0" y1="0" x2="0" y2="163.687"/>
		<polyline class="st6" points="0,0 0,163.687 0.991,163.687 0.991,0 0,0 		"/>
		<line class="st5" x1="145.632" y1="0.986" x2="145.632" y2="163.687"/>
		<polyline class="st6" points="145.632,0.986 145.632,163.687 146.623,163.687 146.623,0.986 145.632,0.986 		"/>
		<line class="st5" x1="0.991" y1="162.701" x2="328.911" y2="162.701"/>
		<polyline class="st6" points="0.991,162.701 0.991,163.687 328.911,163.687 328.911,162.701 0.991,162.701 		"/>
		<line class="st5" x1="327.92" y1="0.986" x2="327.92" y2="163.687"/>
		<polyline class="st6" points="327.92,0.986 327.92,163.687 328.911,163.687 328.911,0.986 327.92,0.986 		"/>
		<line class="st7" x1="0" y1="163.687" x2="0" y2="164.673"/>
		<polyline class="st4" points="0,163.687 0,164.673 0.991,164.673 0.991,163.687 0,163.687 		"/>
		<line class="st7" x1="145.632" y1="163.687" x2="145.632" y2="164.673"/>
		<polyline class="st4" points="145.632,163.687 145.632,164.673 146.623,164.673 146.623,163.687 145.632,163.687 		"/>
		<line class="st7" x1="327.92" y1="163.687" x2="327.92" y2="164.673"/>
		<polyline class="st4" points="327.92,163.687 327.92,164.673 328.911,164.673 328.911,163.687 327.92,163.687 		"/>
		<line class="st7" x1="328.911" y1="0" x2="329.901" y2="0"/>
		<polyline class="st4" points="328.911,0 328.911,0.986 329.901,0.986 329.901,0 328.911,0 		"/>
		<line class="st7" x1="328.911" y1="28.596" x2="329.901" y2="28.596"/>
		<polyline class="st4" points="328.911,28.596 328.911,29.582 329.901,29.582 329.901,28.596 328.911,28.596 		"/>
		<line class="st7" x1="328.911" y1="57.192" x2="329.901" y2="57.192"/>
		<polyline class="st4" points="328.911,57.192 328.911,58.178 329.901,58.178 329.901,57.192 328.911,57.192 		"/>
		<line class="st7" x1="328.911" y1="85.788" x2="329.901" y2="85.788"/>
		<polyline class="st4" points="328.911,85.788 328.911,86.774 329.901,86.774 329.901,85.788 328.911,85.788 		"/>
		<line class="st7" x1="328.911" y1="162.701" x2="329.901" y2="162.701"/>
		<polyline class="st4" points="328.911,162.701 328.911,163.687 329.901,163.687 329.901,162.701 328.911,162.701 		"/>
	</g>
	<g>
		<defs>
			<polygon id="SVGID_2_" points="0.991,0.986 328.911,0.986 328.911,163.687 0.991,163.687 0.991,0.986 			"/>
		</defs>
		<defs>
			<polygon id="SVGID_1_" points="0.991,0.986 328.911,0.986 328.911,163.687 0.991,163.687 0.991,0.986 			"/>
		</defs>
		<clipPath id="SVGID_11_">
			<use xlink:href="#SVGID_2_"  style="overflow:visible;"/>
		</clipPath>
		<clipPath id="SVGID_12_" class="st8">
			<use xlink:href="#SVGID_1_"  style="overflow:visible;"/>
		</clipPath>
	</g>
</g>
</svg>