<!-- Generator: Adobe Illustrator 22.0.0, SVG Export Plug-In  -->
<svg version="1.1"
	 xmlns="http://www.w3.org/2000/svg" xmlns:xlink="http://www.w3.org/1999/xlink" xmlns:a="http://ns.adobe.com/AdobeSVGViewerExtensions/3.0/"
	 x="0px" y="0px" width="257px" height="56.932px" viewBox="0 0 257 56.932"
	 style="overflow:scroll;enable-background:new 0 0 257 56.932;" xml:space="preserve">
<style type="text/css">
	.st0{opacity:0.3;fill-rule:evenodd;clip-rule:evenodd;fill:#009CA6;}
	.st1{font-family:'Arial-BoldMT';}
	.st2{font-size:40px;}
</style>
<defs>
</defs>
<path class="st0" d="M245,56H12C5.4,56,0,50.6,0,44V12C0,5.4,5.4,0,12,0h233c6.6,0,12,5.4,12,12v32C257,50.6,251.6,56,245,56z"/>
<g>
	<path d="M57.451,41.873V13.24h8.693l5.22,19.531l5.161-19.531h8.712v28.633h-5.396V19.334l-5.71,22.539h-5.593l-5.69-22.539v22.539
		H57.451z"/>
	<path d="M91.006,41.873V13.24h21.33v4.844H96.815v6.348h14.443v4.824H96.815v7.793h16.072v4.824H91.006z M98.385,11.6l2.708-5.84
		h6.181l-5.396,5.84H98.385z"/>
	<path d="M117.792,13.24h10.616c2.394,0,4.219,0.184,5.475,0.547c1.688,0.496,3.133,1.375,4.337,2.637
		c1.203,1.264,2.119,2.811,2.747,4.639c0.628,1.83,0.941,4.086,0.941,6.768c0,2.357-0.294,4.389-0.883,6.094
		c-0.719,2.084-1.746,3.77-3.08,5.059c-1.008,0.977-2.369,1.738-4.082,2.285c-1.282,0.404-2.996,0.605-5.141,0.605h-10.931V13.24z
		 M123.6,18.084v18.965h4.338c1.621,0,2.793-0.09,3.512-0.273c0.942-0.234,1.724-0.631,2.346-1.191
		c0.621-0.559,1.128-1.48,1.521-2.764c0.392-1.281,0.589-3.029,0.589-5.244c0-2.213-0.197-3.912-0.589-5.098
		c-0.393-1.184-0.942-2.109-1.648-2.773s-1.603-1.113-2.688-1.348c-0.811-0.182-2.4-0.273-4.769-0.273H123.6z"/>
	<path d="M146.657,41.873V13.24h5.809v28.633H146.657z"/>
	<path d="M176.405,31.346l5.632,1.777c-0.863,3.125-2.299,5.447-4.307,6.963c-2.009,1.518-4.557,2.275-7.644,2.275
		c-3.82,0-6.96-1.299-9.419-3.896c-2.46-2.598-3.689-6.148-3.689-10.654c0-4.766,1.236-8.467,3.709-11.104s5.723-3.955,9.753-3.955
		c3.519,0,6.377,1.035,8.575,3.105c1.308,1.225,2.289,2.982,2.943,5.273l-5.75,1.367c-0.34-1.484-1.05-2.656-2.129-3.516
		s-2.391-1.289-3.935-1.289c-2.132,0-3.862,0.762-5.19,2.285c-1.327,1.523-1.991,3.992-1.991,7.402c0,3.621,0.653,6.199,1.962,7.734
		c1.309,1.537,3.009,2.305,5.103,2.305c1.543,0,2.871-0.488,3.983-1.465C175.123,34.979,175.921,33.443,176.405,31.346z"/>
	<path d="M185.844,27.732c0-2.916,0.438-5.363,1.315-7.344c0.653-1.457,1.547-2.766,2.678-3.926
		c1.132-1.158,2.371-2.018,3.719-2.578c1.792-0.754,3.859-1.133,6.201-1.133c4.238,0,7.63,1.309,10.175,3.926
		c2.544,2.617,3.816,6.258,3.816,10.918c0,4.623-1.263,8.24-3.787,10.85c-2.525,2.611-5.9,3.916-10.126,3.916
		c-4.277,0-7.679-1.299-10.203-3.896C187.106,35.867,185.844,32.291,185.844,27.732z M191.829,27.537
		c0,3.242,0.752,5.701,2.257,7.373c1.504,1.674,3.414,2.51,5.729,2.51s4.216-0.83,5.701-2.49c1.484-1.66,2.227-4.15,2.227-7.471
		c0-3.281-0.723-5.729-2.168-7.344c-1.445-1.613-3.365-2.422-5.76-2.422c-2.394,0-4.323,0.818-5.788,2.451
		C192.562,21.779,191.829,24.244,191.829,27.537z"/>
</g>
</svg>