<!-- Generator: Adobe Illustrator 22.0.0, SVG Export Plug-In  -->
<svg version="1.1"
	 xmlns="http://www.w3.org/2000/svg" xmlns:xlink="http://www.w3.org/1999/xlink" xmlns:a="http://ns.adobe.com/AdobeSVGViewerExtensions/3.0/"
	 x="0px" y="0px" width="380.028px" height="46px" viewBox="0 0 380.028 46"
	 style="overflow:scroll;enable-background:new 0 0 380.028 46;" xml:space="preserve">
<style type="text/css">
	.st0{opacity:0.7;fill-rule:evenodd;clip-rule:evenodd;fill:#009CA6;}
	.st1{fill-rule:evenodd;clip-rule:evenodd;fill:none;}
	.st2{font-family:'MyriadPro-Regular';}
	.st3{font-size:30px;}
	.st4{letter-spacing:-1;}
	.st5{letter-spacing:-2;}
</style>
<defs>
</defs>
<path class="st0" d="M366,46H12C5.4,46,0,40.6,0,34V12C0,5.4,5.4,0,12,0h354c6.6,0,12,5.4,12,12v22C378,40.6,372.6,46,366,46z"/>
<g>
	<rect x="11.581" y="11.8" transform="matrix(1 -0.003 0.003 1 -0.076 0.5937)" class="st1" width="368.408" height="27.129"/>
	<path d="M28.011,31.882c-0.96,0.48-2.88,0.96-5.34,0.96c-5.7,0-9.989-3.6-9.989-10.229c0-6.33,4.29-10.619,10.56-10.619
		c2.52,0,4.11,0.54,4.8,0.899l-0.63,2.13c-0.99-0.479-2.4-0.84-4.08-0.84c-4.74,0-7.89,3.03-7.89,8.34c0,4.95,2.85,8.13,7.77,8.13
		c1.59,0,3.21-0.33,4.26-0.84L28.011,31.882z"/>
	<path d="M34.671,26.183l-2.1,6.359h-2.7l6.87-20.219h3.15l6.9,20.219H44l-2.16-6.359H34.671z M41.301,24.143l-1.98-5.82
		c-0.45-1.319-0.75-2.52-1.05-3.689h-0.06c-0.3,1.2-0.63,2.43-1.02,3.66l-1.98,5.85H41.301z"/>
	<path d="M49.401,29.362c1.17,0.72,2.88,1.319,4.68,1.319c2.67,0,4.23-1.409,4.23-3.449c0-1.891-1.08-2.97-3.81-4.021
		c-3.3-1.17-5.339-2.88-5.339-5.729c0-3.149,2.61-5.489,6.54-5.489c2.07,0,3.57,0.479,4.47,0.989l-0.72,2.13
		c-0.66-0.359-2.01-0.96-3.84-0.96c-2.76,0-3.81,1.65-3.81,3.03c0,1.89,1.23,2.82,4.02,3.899c3.419,1.32,5.16,2.971,5.16,5.94
		c0,3.12-2.31,5.819-7.08,5.819c-1.95,0-4.08-0.569-5.16-1.29L49.401,29.362z"/>
	<path d="M68.391,14.543h-6.149v-2.22H77.21v2.22h-6.18v17.999h-2.64V14.543z"/>
	<path d="M79.46,12.593c1.32-0.27,3.21-0.42,5.01-0.42c2.79,0,4.59,0.51,5.85,1.649c1.02,0.9,1.59,2.28,1.59,3.84
		c0,2.67-1.68,4.44-3.81,5.16v0.09c1.56,0.54,2.49,1.98,2.97,4.08c0.66,2.82,1.14,4.77,1.56,5.55h-2.7
		c-0.33-0.57-0.78-2.31-1.35-4.83c-0.6-2.79-1.68-3.84-4.05-3.93h-2.46v8.76h-2.61V12.593z M82.07,21.803h2.67
		c2.79,0,4.56-1.53,4.56-3.84c0-2.61-1.89-3.75-4.65-3.78c-1.26,0-2.16,0.12-2.58,0.24V21.803z"/>
	<path d="M112.969,22.223c0,6.959-4.229,10.649-9.39,10.649c-5.34,0-9.089-4.14-9.089-10.26c0-6.42,3.99-10.619,9.39-10.619
		C109.399,11.993,112.969,16.223,112.969,22.223z M97.279,22.553c0,4.319,2.34,8.189,6.45,8.189c4.14,0,6.479-3.81,6.479-8.399
		c0-4.021-2.1-8.22-6.45-8.22C99.439,14.123,97.279,18.112,97.279,22.553z"/>
	<path d="M136.849,31.882c-0.96,0.48-2.88,0.96-5.34,0.96c-5.7,0-9.989-3.6-9.989-10.229c0-6.33,4.29-10.619,10.56-10.619
		c2.52,0,4.11,0.54,4.8,0.899l-0.63,2.13c-0.99-0.479-2.4-0.84-4.08-0.84c-4.74,0-7.89,3.03-7.89,8.34c0,4.95,2.85,8.13,7.77,8.13
		c1.59,0,3.21-0.33,4.26-0.84L136.849,31.882z"/>
	<path d="M143.509,26.183l-2.1,6.359h-2.7l6.87-20.219h3.15l6.9,20.219h-2.79l-2.16-6.359H143.509z M150.139,24.143l-1.98-5.82
		c-0.45-1.319-0.75-2.52-1.05-3.689h-0.06c-0.3,1.2-0.63,2.43-1.02,3.66l-1.98,5.85H150.139z"/>
	<path d="M158.239,29.362c1.17,0.72,2.88,1.319,4.68,1.319c2.67,0,4.23-1.409,4.23-3.449c0-1.891-1.08-2.97-3.81-4.021
		c-3.3-1.17-5.339-2.88-5.339-5.729c0-3.149,2.61-5.489,6.54-5.489c2.07,0,3.57,0.479,4.47,0.989l-0.72,2.13
		c-0.66-0.359-2.01-0.96-3.84-0.96c-2.76,0-3.81,1.65-3.81,3.03c0,1.89,1.23,2.82,4.02,3.899c3.419,1.32,5.16,2.971,5.16,5.94
		c0,3.12-2.31,5.819-7.08,5.819c-1.95,0-4.08-0.569-5.16-1.29L158.239,29.362z"/>
	<path d="M176.659,26.183l-2.1,6.359h-2.7l6.87-20.219h3.15l6.9,20.219h-2.79l-2.16-6.359H176.659z M183.289,24.143l-1.98-5.82
		c-0.45-1.319-0.75-2.52-1.05-3.689h-0.06c-0.3,1.2-0.63,2.43-1.02,3.66l-1.98,5.85H183.289z"/>
	<path d="M191.389,29.362c1.17,0.72,2.88,1.319,4.68,1.319c2.67,0,4.23-1.409,4.23-3.449c0-1.891-1.08-2.97-3.81-4.021
		c-3.3-1.17-5.34-2.88-5.34-5.729c0-3.149,2.61-5.489,6.54-5.489c2.07,0,3.57,0.479,4.47,0.989l-0.72,2.13
		c-0.66-0.359-2.01-0.96-3.84-0.96c-2.76,0-3.81,1.65-3.81,3.03c0,1.89,1.23,2.82,4.02,3.899c3.42,1.32,5.16,2.971,5.16,5.94
		c0,3.12-2.31,5.819-7.08,5.819c-1.95,0-4.08-0.569-5.16-1.29L191.389,29.362z"/>
	<path d="M204.739,36.231c0.66-1.77,1.47-4.979,1.8-7.169l2.94-0.301c-0.69,2.551-2.01,5.88-2.85,7.29L204.739,36.231z"/>
	<path d="M223.248,12.323h2.61v13.529c0,5.369-2.64,7.02-6.12,7.02c-0.96,0-2.13-0.21-2.79-0.48l0.39-2.13
		c0.54,0.21,1.32,0.391,2.19,0.391c2.34,0,3.72-1.05,3.72-5.01V12.323z"/>
	<path d="M232.818,12.323v11.969c0,4.53,2.01,6.45,4.71,6.45c3,0,4.92-1.98,4.92-6.45V12.323h2.64v11.789
		c0,6.21-3.27,8.76-7.649,8.76c-4.14,0-7.26-2.37-7.26-8.64V12.323H232.818z"/>
	<path d="M251.868,26.183l-2.1,6.359h-2.7l6.87-20.219h3.15l6.9,20.219h-2.79l-2.16-6.359H251.868z M258.498,24.143l-1.98-5.82
		c-0.45-1.319-0.75-2.52-1.05-3.689h-0.06c-0.3,1.2-0.63,2.43-1.02,3.66l-1.98,5.85H258.498z"/>
	<path d="M266.958,32.542V12.323h2.85l6.479,10.229c1.5,2.369,2.67,4.499,3.63,6.569l0.061-0.03c-0.24-2.699-0.301-5.159-0.301-8.31
		v-8.459h2.46v20.219h-2.64l-6.42-10.26c-1.41-2.25-2.76-4.56-3.78-6.75l-0.09,0.03c0.15,2.55,0.21,4.98,0.21,8.34v8.64H266.958z"/>
	<path d="M293.057,12.563c1.26-0.21,2.909-0.39,5.01-0.39c2.579,0,4.47,0.6,5.67,1.68c1.109,0.96,1.77,2.43,1.77,4.23
		c0,1.829-0.54,3.27-1.56,4.319c-1.381,1.47-3.63,2.22-6.181,2.22c-0.779,0-1.499-0.029-2.1-0.18v8.1h-2.609V12.563z
		 M295.666,22.313c0.57,0.15,1.29,0.21,2.16,0.21c3.149,0,5.069-1.53,5.069-4.32c0-2.67-1.89-3.959-4.77-3.959
		c-1.14,0-2.01,0.09-2.46,0.21V22.313z"/>
	<path d="M309.767,26.183l-2.1,6.359h-2.7l6.87-20.219h3.149l6.899,20.219h-2.79l-2.159-6.359H309.767z M316.396,24.143l-1.98-5.82
		c-0.449-1.319-0.75-2.52-1.05-3.689h-0.06c-0.3,1.2-0.63,2.43-1.021,3.66l-1.979,5.85H316.396z"/>
	<path d="M324.857,12.593c1.14-0.24,2.939-0.42,4.77-0.42c2.609,0,4.29,0.45,5.55,1.47c1.05,0.78,1.68,1.98,1.68,3.57
		c0,1.949-1.29,3.659-3.42,4.439v0.061c1.92,0.479,4.17,2.069,4.17,5.069c0,1.74-0.689,3.06-1.71,4.05
		c-1.41,1.29-3.689,1.89-6.989,1.89c-1.8,0-3.181-0.12-4.05-0.239V12.593z M327.467,20.872h2.37c2.76,0,4.38-1.439,4.38-3.39
		c0-2.37-1.8-3.3-4.439-3.3c-1.2,0-1.891,0.09-2.311,0.18V20.872z M327.467,30.563c0.51,0.09,1.26,0.119,2.19,0.119
		c2.699,0,5.189-0.989,5.189-3.93c0-2.76-2.37-3.899-5.22-3.899h-2.16V30.563z"/>
	<path d="M341.117,12.323h2.609v18.029h8.64v2.189h-11.249V12.323z"/>
	<path d="M371.386,22.223c0,6.959-4.23,10.649-9.39,10.649c-5.34,0-9.09-4.14-9.09-10.26c0-6.42,3.989-10.619,9.39-10.619
		C367.815,11.993,371.386,16.223,371.386,22.223z M355.696,22.553c0,4.319,2.34,8.189,6.449,8.189c4.14,0,6.479-3.81,6.479-8.399
		c0-4.021-2.1-8.22-6.449-8.22C357.855,14.123,355.696,18.112,355.696,22.553z"/>
</g>
</svg>