<!-- Generator: Adobe Illustrator 22.0.0, SVG Export Plug-In  -->
<svg version="1.1"
	 xmlns="http://www.w3.org/2000/svg" xmlns:xlink="http://www.w3.org/1999/xlink" xmlns:a="http://ns.adobe.com/AdobeSVGViewerExtensions/3.0/"
	 x="0px" y="0px" width="257px" height="56.583px" viewBox="0 0 257 56.583"
	 style="overflow:scroll;enable-background:new 0 0 257 56.583;" xml:space="preserve">
<style type="text/css">
	.st0{opacity:0.3;fill-rule:evenodd;clip-rule:evenodd;fill:#FFD100;}
	.st1{font-family:'Arial-BoldMT';}
	.st2{font-size:40px;}
</style>
<defs>
</defs>
<path class="st0" d="M245,56H12C5.4,56,0,50.6,0,44V12C0,5.4,5.4,0,12,0h233c6.6,0,12,5.4,12,12v32C257,50.6,251.6,56,245,56z"/>
<g>
	<path d="M31.529,41.524V12.892h9.32c3.533,0,5.835,0.144,6.908,0.43c1.648,0.43,3.028,1.364,4.141,2.803
		c1.111,1.438,1.668,3.298,1.668,5.576c0,1.758-0.321,3.235-0.962,4.434c-0.642,1.198-1.456,2.139-2.442,2.822
		c-0.988,0.684-1.992,1.136-3.013,1.357c-1.388,0.273-3.396,0.41-6.024,0.41h-3.787v10.801H31.529z M37.338,17.735v8.125h3.179
		c2.289,0,3.819-0.149,4.592-0.449s1.377-0.769,1.815-1.406c0.438-0.638,0.657-1.38,0.657-2.227c0-1.042-0.308-1.901-0.923-2.578
		s-1.393-1.101-2.334-1.27c-0.694-0.13-2.088-0.195-4.18-0.195H37.338z"/>
	<path d="M84.276,41.524h-6.319l-2.512-6.504H63.947l-2.375,6.504H55.41l11.205-28.633h6.143L84.276,41.524z M73.582,30.196
		l-3.965-10.625l-3.885,10.625H73.582z"/>
	<path d="M105.764,30.997l5.631,1.777c-0.863,3.125-2.299,5.446-4.307,6.963s-4.556,2.275-7.643,2.275
		c-3.82,0-6.961-1.299-9.42-3.896s-3.689-6.149-3.689-10.654c0-4.766,1.236-8.467,3.709-11.104s5.724-3.955,9.753-3.955
		c3.519,0,6.378,1.035,8.575,3.105c1.309,1.224,2.289,2.981,2.943,5.273l-5.75,1.367c-0.34-1.484-1.049-2.656-2.129-3.516
		c-1.078-0.859-2.391-1.289-3.934-1.289c-2.133,0-3.863,0.762-5.19,2.285c-1.328,1.523-1.991,3.991-1.991,7.402
		c0,3.62,0.653,6.198,1.961,7.734c1.309,1.536,3.01,2.305,5.103,2.305c1.544,0,2.872-0.488,3.983-1.465
		S105.279,33.094,105.764,30.997z"/>
	<path d="M116.203,41.524V12.892h5.809v28.633H116.203z"/>
	<path d="M127.545,41.524V12.892h21.33v4.844h-15.521v6.348h14.442v4.824h-14.442V36.7h16.071v4.824H127.545z"/>
	<path d="M154.408,41.524V12.892h5.651l11.774,19.121V12.892h5.396v28.633h-5.828l-11.598-18.672v18.672H154.408z"/>
	<path d="M189.848,41.524V17.735h-8.536v-4.844h22.861v4.844h-8.517v23.789H189.848z"/>
	<path d="M207.921,41.524V12.892h21.33v4.844h-15.521v6.348h14.442v4.824h-14.442V36.7h16.071v4.824H207.921z"/>
</g>
</svg>