<!-- Generator: Adobe Illustrator 22.0.0, SVG Export Plug-In  -->
<svg version="1.1"
	 xmlns="http://www.w3.org/2000/svg" xmlns:xlink="http://www.w3.org/1999/xlink" xmlns:a="http://ns.adobe.com/AdobeSVGViewerExtensions/3.0/"
	 x="0px" y="0px" width="328.715px" height="164.08px" viewBox="0 0 328.715 164.08"
	 style="overflow:scroll;enable-background:new 0 0 328.715 164.08;" xml:space="preserve">
<style type="text/css">
	.st0{clip-path:url(#SVGID_7_);}
	.st1{fill:#757171;}
	.st2{clip-path:url(#SVGID_8_);}
	.st3{clip-path:url(#SVGID_9_);}
	.st4{clip-path:url(#SVGID_10_);fill-rule:evenodd;clip-rule:evenodd;fill:#D4D4D4;}
	.st5{clip-path:url(#SVGID_10_);fill:none;stroke:#757171;stroke-width:0;stroke-linecap:square;stroke-miterlimit:10;}
	.st6{clip-path:url(#SVGID_10_);fill-rule:evenodd;clip-rule:evenodd;fill:#757171;}
	.st7{clip-path:url(#SVGID_10_);fill:none;stroke:#D4D4D4;stroke-width:0;stroke-linecap:square;stroke-miterlimit:10;}
	.st8{clip-path:url(#SVGID_11_);}
	.st9{clip-path:url(#SVGID_14_);}
	.st10{font-family:'Arial-Black';}
	.st11{font-size:17.6853px;}
	.st12{font-family:'Calibri';}
	.st13{font-size:21.6154px;}
	.st14{clip-path:url(#SVGID_16_);}
	.st15{font-size:15.7203px;}
	.st16{clip-path:url(#SVGID_18_);}
	.st17{clip-path:url(#SVGID_20_);fill-rule:evenodd;clip-rule:evenodd;fill:#D4D4D4;}
	.st18{clip-path:url(#SVGID_20_);fill:none;stroke:#757171;stroke-width:0;stroke-linecap:square;stroke-miterlimit:10;}
	.st19{clip-path:url(#SVGID_20_);fill-rule:evenodd;clip-rule:evenodd;fill:#757171;}
	.st20{clip-path:url(#SVGID_20_);fill:none;stroke:#D4D4D4;stroke-width:0;stroke-linecap:square;stroke-miterlimit:10;}
	.st21{clip-path:url(#SVGID_23_);}
</style>
<defs>
</defs>
<g>
	<g>
		<defs>
			<polygon id="SVGID_6_" points="0.987,0.983 327.728,0.983 327.728,163.098 0.987,163.098 0.987,0.983 			"/>
		</defs>
		<clipPath id="SVGID_7_">
			<use xlink:href="#SVGID_6_"  style="overflow:visible;"/>
		</clipPath>
		<g class="st0">
			<path class="st1" d="M5.25,7.979h10.532v2.702H9.188v2.013h6.117v2.582H9.188v2.495h6.785v2.867H5.25V7.979z"/>
			<path class="st1" d="M18.143,7.979h5.839c1.151,0,2.081,0.155,2.789,0.466c0.709,0.312,1.294,0.757,1.757,1.339
				c0.463,0.581,0.799,1.258,1.007,2.029s0.313,1.589,0.313,2.452c0,1.354-0.155,2.402-0.465,3.147
				c-0.31,0.746-0.738,1.37-1.288,1.874s-1.14,0.839-1.77,1.006c-0.862,0.23-1.643,0.346-2.343,0.346h-5.839V7.979z M22.072,10.845
				v6.917h0.964c0.821,0,1.405-0.09,1.752-0.271c0.348-0.182,0.619-0.498,0.815-0.95c0.197-0.452,0.295-1.185,0.295-2.197
				c0-1.342-0.22-2.26-0.659-2.755s-1.168-0.743-2.187-0.743H22.072z"/>
			<path class="st1" d="M39.73,18.548h-4.462l-0.62,2.09h-4.013l4.78-12.659h4.287l4.779,12.659h-4.116L39.73,18.548z
				 M38.915,15.811l-1.404-4.551l-1.389,4.551H38.915z"/>
			<path class="st1" d="M45.784,7.979h5.839c1.151,0,2.081,0.155,2.789,0.466c0.709,0.312,1.294,0.757,1.757,1.339
				c0.463,0.581,0.799,1.258,1.007,2.029s0.313,1.589,0.313,2.452c0,1.354-0.155,2.402-0.465,3.147
				c-0.31,0.746-0.738,1.37-1.288,1.874s-1.14,0.839-1.77,1.006c-0.862,0.23-1.643,0.346-2.343,0.346h-5.839V7.979z M49.714,10.845
				v6.917h0.964c0.821,0,1.405-0.09,1.752-0.271c0.348-0.182,0.619-0.498,0.815-0.95c0.197-0.452,0.295-1.185,0.295-2.197
				c0-1.342-0.22-2.26-0.659-2.755s-1.168-0.743-2.187-0.743H49.714z"/>
		</g>
		<g class="st0">
			<path d="M236.433,18.715c0,0.232-0.035,0.415-0.105,0.549c-0.071,0.134-0.17,0.2-0.297,0.2h-1.549v2.871
				c0,0.057-0.014,0.104-0.043,0.143c-0.029,0.038-0.08,0.072-0.153,0.1c-0.073,0.028-0.167,0.05-0.284,0.063
				c-0.116,0.015-0.266,0.021-0.447,0.021c-0.175,0-0.32-0.007-0.438-0.021c-0.116-0.014-0.209-0.035-0.278-0.063
				c-0.069-0.027-0.116-0.062-0.142-0.1c-0.025-0.039-0.038-0.086-0.038-0.143v-2.871h-5.614c-0.084,0-0.154-0.011-0.21-0.031
				c-0.056-0.021-0.106-0.06-0.152-0.116s-0.077-0.138-0.095-0.243s-0.026-0.242-0.026-0.411c0-0.134,0.004-0.254,0.011-0.359
				s0.021-0.202,0.042-0.29c0.021-0.088,0.049-0.172,0.084-0.253s0.077-0.167,0.126-0.259l4.891-8.296
				c0.036-0.057,0.089-0.105,0.157-0.147s0.156-0.077,0.265-0.105s0.241-0.048,0.4-0.059c0.158-0.011,0.346-0.016,0.562-0.016
				c0.238,0,0.445,0.009,0.622,0.026s0.319,0.041,0.427,0.068c0.108,0.028,0.191,0.065,0.249,0.111s0.086,0.1,0.086,0.163v8.718
				h1.549c0.12,0,0.217,0.063,0.291,0.186S236.433,18.461,236.433,18.715z M232.658,10.472h-0.021l-4.411,7.493h4.433V10.472z"/>
			<path d="M246.621,18.693c0,0.627-0.11,1.191-0.329,1.694s-0.534,0.934-0.943,1.293c-0.41,0.358-0.916,0.635-1.517,0.828
				c-0.602,0.193-1.279,0.29-2.036,0.29c-0.46,0-0.889-0.036-1.288-0.11s-0.755-0.162-1.066-0.264
				c-0.311-0.103-0.568-0.208-0.773-0.317c-0.205-0.108-0.334-0.188-0.388-0.237c-0.053-0.049-0.094-0.099-0.121-0.147
				c-0.028-0.049-0.054-0.109-0.074-0.18c-0.021-0.07-0.037-0.156-0.048-0.259c-0.011-0.102-0.017-0.227-0.017-0.374
				c0-0.254,0.025-0.43,0.076-0.528c0.051-0.098,0.124-0.147,0.218-0.147c0.065,0,0.194,0.057,0.387,0.169
				c0.191,0.112,0.438,0.234,0.739,0.364s0.652,0.252,1.056,0.364c0.402,0.112,0.85,0.169,1.343,0.169
				c0.479,0,0.899-0.06,1.262-0.18c0.363-0.12,0.668-0.288,0.914-0.507c0.246-0.218,0.432-0.477,0.555-0.775
				s0.186-0.625,0.186-0.977c0-0.387-0.079-0.735-0.236-1.045c-0.156-0.31-0.387-0.577-0.689-0.802
				c-0.303-0.226-0.676-0.397-1.117-0.518c-0.441-0.119-0.943-0.18-1.506-0.18h-1.347c-0.059,0-0.115-0.012-0.17-0.036
				c-0.055-0.025-0.103-0.065-0.143-0.122c-0.04-0.056-0.073-0.13-0.099-0.222c-0.025-0.091-0.038-0.211-0.038-0.358
				c0-0.134,0.011-0.244,0.031-0.333c0.021-0.088,0.052-0.158,0.091-0.211c0.038-0.053,0.083-0.091,0.132-0.116
				c0.05-0.024,0.106-0.036,0.17-0.036h1.198c0.467,0,0.886-0.061,1.257-0.18c0.371-0.12,0.686-0.292,0.943-0.518
				c0.259-0.225,0.456-0.494,0.594-0.808c0.139-0.313,0.207-0.663,0.207-1.05c0-0.281-0.046-0.551-0.138-0.808
				s-0.229-0.479-0.413-0.67c-0.185-0.189-0.419-0.339-0.706-0.448c-0.286-0.109-0.616-0.164-0.991-0.164
				c-0.41,0-0.786,0.062-1.129,0.185s-0.648,0.256-0.918,0.396c-0.269,0.141-0.491,0.272-0.668,0.396s-0.3,0.185-0.371,0.185
				c-0.049,0-0.094-0.009-0.132-0.026c-0.039-0.018-0.071-0.053-0.096-0.105c-0.025-0.053-0.043-0.127-0.053-0.222
				c-0.011-0.095-0.017-0.22-0.017-0.375c0-0.105,0.004-0.198,0.011-0.279s0.021-0.151,0.043-0.211
				c0.021-0.06,0.046-0.114,0.074-0.164c0.027-0.049,0.075-0.107,0.143-0.174s0.203-0.164,0.408-0.29
				c0.205-0.127,0.458-0.252,0.759-0.375c0.3-0.123,0.646-0.227,1.039-0.312c0.393-0.084,0.814-0.126,1.267-0.126
				c0.637,0,1.195,0.08,1.676,0.242s0.882,0.391,1.203,0.687c0.322,0.295,0.563,0.648,0.722,1.061
				c0.159,0.411,0.238,0.867,0.238,1.366c0,0.43-0.057,0.829-0.17,1.198s-0.279,0.696-0.498,0.981s-0.487,0.528-0.806,0.729
				s-0.686,0.34-1.103,0.417v0.021c0.473,0.05,0.906,0.168,1.299,0.354c0.392,0.187,0.729,0.421,1.013,0.702
				c0.282,0.281,0.503,0.61,0.662,0.987C246.541,17.861,246.621,18.265,246.621,18.693z"/>
		</g>
		<g class="st0">
			<path class="st1" d="M5.311,36.463h5.839c1.151,0,2.081,0.155,2.789,0.466c0.709,0.312,1.294,0.757,1.757,1.339
				c0.463,0.581,0.799,1.258,1.007,2.029s0.313,1.589,0.313,2.452c0,1.354-0.155,2.402-0.465,3.147
				c-0.31,0.746-0.738,1.37-1.288,1.874s-1.14,0.839-1.77,1.006c-0.862,0.23-1.643,0.346-2.343,0.346H5.311V36.463z M9.24,39.329
				v6.917h0.964c0.821,0,1.405-0.09,1.752-0.271c0.348-0.182,0.619-0.498,0.815-0.95c0.197-0.452,0.295-1.185,0.295-2.197
				c0-1.342-0.22-2.26-0.659-2.755s-1.168-0.743-2.187-0.743H9.24z"/>
			<path class="st1" d="M19.235,36.463h3.938v12.659h-3.938V36.463z"/>
			<path class="st1" d="M33.813,47.032h-4.462l-0.62,2.09h-4.013l4.78-12.659h4.287l4.779,12.659h-4.116L33.813,47.032z
				 M31.512,33.112h3.036l-2.802,2.582h-1.692L31.512,33.112z M32.998,44.295l-1.404-4.551l-1.389,4.551H32.998z"/>
			<path class="st1" d="M39.824,36.463h7.356c1.227,0,2.168,0.302,2.824,0.906s0.984,1.354,0.984,2.245
				c0,0.749-0.233,1.391-0.702,1.926c-0.313,0.357-0.77,0.64-1.371,0.847c0.914,0.219,1.586,0.594,2.018,1.127
				c0.431,0.532,0.646,1.201,0.646,2.008c0,0.656-0.153,1.246-0.46,1.77c-0.307,0.524-0.727,0.938-1.258,1.244
				c-0.33,0.189-0.828,0.328-1.493,0.414c-0.885,0.115-1.472,0.173-1.761,0.173h-6.784V36.463z M43.789,41.428h1.709
				c0.612,0,1.039-0.104,1.279-0.315c0.24-0.21,0.36-0.514,0.36-0.91c0-0.369-0.12-0.656-0.36-0.864
				c-0.24-0.207-0.658-0.311-1.254-0.311h-1.734V41.428z M43.789,46.402h2.004c0.677,0,1.153-0.12,1.432-0.358
				c0.277-0.239,0.416-0.561,0.416-0.963c0-0.374-0.138-0.675-0.412-0.902s-0.756-0.342-1.444-0.342h-1.995V46.402z"/>
			<path class="st1" d="M53.627,36.463h10.532v2.702h-6.594v2.013h6.117v2.582h-6.117v2.495h6.785v2.867H53.627V36.463z"/>
			<path class="st1" d="M65.574,36.463h11.946v3.126h-4.008v9.533h-3.931v-9.533h-4.008V36.463z"/>
			<path class="st1" d="M79.291,36.463h10.532v2.702H83.23v2.013h6.117v2.582H83.23v2.495h6.785v2.867H79.291V36.463z"/>
			<path class="st1" d="M91.445,44.934l3.739-0.232c0.081,0.604,0.246,1.064,0.494,1.381c0.405,0.513,0.983,0.769,1.735,0.769
				c0.562,0,0.993-0.131,1.297-0.393s0.456-0.565,0.456-0.911c0-0.328-0.145-0.622-0.435-0.881c-0.289-0.259-0.96-0.504-2.013-0.733
				c-1.724-0.386-2.952-0.898-3.687-1.537c-0.741-0.64-1.111-1.454-1.111-2.444c0-0.65,0.189-1.265,0.568-1.844
				c0.379-0.578,0.949-1.033,1.71-1.364c0.76-0.331,1.803-0.496,3.127-0.496c1.626,0,2.864,0.301,3.718,0.902
				s1.36,1.559,1.522,2.871l-3.704,0.216c-0.099-0.57-0.306-0.984-0.62-1.243c-0.315-0.26-0.751-0.389-1.307-0.389
				c-0.456,0-0.801,0.096-1.032,0.289c-0.231,0.192-0.347,0.428-0.347,0.704c0,0.201,0.096,0.383,0.286,0.544
				c0.186,0.167,0.625,0.322,1.318,0.466c1.719,0.368,2.949,0.741,3.692,1.118s1.284,0.845,1.622,1.403s0.508,1.184,0.508,1.874
				c0,0.812-0.226,1.561-0.677,2.245c-0.451,0.686-1.082,1.205-1.892,1.559c-0.81,0.354-1.831,0.531-3.063,0.531
				c-2.163,0-3.661-0.414-4.494-1.243S91.555,46.212,91.445,44.934z"/>
		</g>
		<g class="st0">
			<path d="M238.203,47.252c0,0.641-0.118,1.21-0.354,1.71c-0.237,0.499-0.566,0.923-0.986,1.271
				c-0.421,0.349-0.916,0.61-1.485,0.786c-0.568,0.176-1.182,0.264-1.839,0.264c-0.46,0-0.886-0.038-1.278-0.116
				c-0.393-0.077-0.742-0.172-1.05-0.284c-0.308-0.113-0.565-0.229-0.774-0.349c-0.208-0.119-0.354-0.222-0.435-0.306
				c-0.081-0.085-0.142-0.192-0.18-0.322c-0.039-0.13-0.059-0.305-0.059-0.522c0-0.154,0.007-0.283,0.021-0.386
				c0.014-0.102,0.035-0.185,0.063-0.247c0.028-0.063,0.063-0.107,0.105-0.133c0.043-0.024,0.092-0.036,0.148-0.036
				c0.1,0,0.239,0.06,0.419,0.179c0.181,0.12,0.412,0.25,0.695,0.391c0.282,0.141,0.623,0.273,1.022,0.396
				c0.399,0.124,0.861,0.186,1.384,0.186c0.396,0,0.759-0.053,1.087-0.158c0.329-0.106,0.611-0.256,0.849-0.449
				s0.419-0.431,0.546-0.712c0.128-0.281,0.191-0.602,0.191-0.961c0-0.387-0.089-0.718-0.266-0.992s-0.41-0.515-0.699-0.723
				c-0.29-0.208-0.621-0.397-0.992-0.57c-0.371-0.172-0.751-0.348-1.14-0.527s-0.767-0.378-1.135-0.597
				c-0.367-0.218-0.696-0.475-0.986-0.771c-0.29-0.295-0.524-0.642-0.705-1.039c-0.18-0.397-0.271-0.874-0.271-1.431
				c0-0.569,0.104-1.078,0.313-1.524c0.208-0.447,0.498-0.822,0.869-1.124c0.371-0.303,0.813-0.533,1.325-0.691
				c0.513-0.158,1.066-0.237,1.66-0.237c0.304,0,0.609,0.026,0.917,0.079s0.598,0.123,0.869,0.211
				c0.272,0.088,0.515,0.187,0.727,0.295c0.212,0.109,0.352,0.197,0.419,0.265c0.067,0.066,0.111,0.119,0.133,0.158
				c0.021,0.038,0.039,0.088,0.053,0.147c0.015,0.06,0.024,0.132,0.032,0.217c0.007,0.084,0.011,0.193,0.011,0.327
				c0,0.126-0.006,0.239-0.017,0.337c-0.011,0.099-0.026,0.182-0.048,0.248c-0.021,0.067-0.051,0.116-0.09,0.148
				c-0.039,0.031-0.083,0.047-0.133,0.047c-0.077,0-0.199-0.049-0.365-0.147s-0.37-0.209-0.61-0.332s-0.524-0.236-0.854-0.338
				c-0.328-0.103-0.698-0.153-1.107-0.153c-0.382,0-0.715,0.051-0.997,0.153c-0.283,0.102-0.517,0.237-0.7,0.406
				s-0.321,0.369-0.413,0.602s-0.138,0.479-0.138,0.738c0,0.38,0.088,0.708,0.265,0.982s0.412,0.517,0.705,0.728
				s0.628,0.405,1.002,0.581c0.375,0.176,0.757,0.354,1.146,0.532c0.389,0.18,0.771,0.377,1.146,0.592
				c0.374,0.215,0.708,0.468,1.002,0.76c0.293,0.292,0.53,0.637,0.71,1.034C238.113,46.24,238.203,46.71,238.203,47.252z"/>
			<path d="M242.093,36.677c0.043-0.078,0.092-0.142,0.148-0.19s0.126-0.088,0.207-0.116s0.182-0.049,0.303-0.063
				c0.12-0.014,0.265-0.021,0.435-0.021c0.197,0,0.358,0.012,0.482,0.036c0.123,0.025,0.21,0.061,0.26,0.106
				c0.049,0.045,0.07,0.099,0.063,0.158s-0.039,0.121-0.096,0.185l-1.919,2.459c-0.057,0.07-0.108,0.127-0.153,0.169
				c-0.047,0.042-0.1,0.075-0.159,0.101c-0.061,0.024-0.139,0.042-0.233,0.053c-0.096,0.01-0.214,0.016-0.355,0.016
				c-0.155,0-0.279-0.011-0.371-0.032c-0.092-0.021-0.157-0.049-0.196-0.084s-0.053-0.081-0.042-0.138
				c0.01-0.056,0.04-0.123,0.09-0.2L242.093,36.677z M242.273,50.819c0,0.057-0.015,0.104-0.042,0.143
				c-0.028,0.038-0.074,0.072-0.139,0.1c-0.063,0.028-0.151,0.05-0.265,0.063c-0.113,0.015-0.258,0.021-0.435,0.021
				c-0.17,0-0.312-0.007-0.425-0.021c-0.112-0.014-0.203-0.035-0.27-0.063c-0.067-0.027-0.113-0.062-0.139-0.1
				c-0.024-0.039-0.037-0.086-0.037-0.143V41.32c0-0.057,0.013-0.104,0.037-0.143c0.025-0.039,0.071-0.074,0.139-0.105
				c0.066-0.032,0.157-0.053,0.27-0.063c0.113-0.011,0.255-0.016,0.425-0.016c0.177,0,0.321,0.005,0.435,0.016
				s0.201,0.031,0.265,0.063c0.064,0.031,0.11,0.066,0.139,0.105c0.027,0.039,0.042,0.086,0.042,0.143V50.819z"/>
		</g>
		<g class="st0">
			<path class="st1" d="M4.764,71.303c0-2.066,0.578-3.676,1.735-4.827s2.768-1.727,4.833-1.727c2.116,0,3.748,0.565,4.893,1.696
				c1.146,1.132,1.718,2.716,1.718,4.754c0,1.479-0.25,2.693-0.75,3.64c-0.501,0.947-1.224,1.685-2.169,2.211
				c-0.946,0.526-2.124,0.79-3.536,0.79c-1.434,0-2.621-0.228-3.561-0.683c-0.94-0.454-1.702-1.174-2.286-2.158
				C5.056,74.015,4.764,72.782,4.764,71.303z M8.694,71.32c0,1.278,0.238,2.196,0.716,2.755c0.477,0.559,1.126,0.837,1.947,0.837
				c0.845,0,1.498-0.273,1.961-0.82s0.694-1.528,0.694-2.944c0-1.191-0.242-2.063-0.725-2.612c-0.483-0.55-1.138-0.824-1.965-0.824
				c-0.793,0-1.429,0.279-1.909,0.837C8.934,69.107,8.694,70.03,8.694,71.32z"/>
			<path class="st1" d="M19.166,64.965h11.946v3.126h-4.008v9.533h-3.931v-9.533h-4.008V64.965z"/>
			<path class="st1" d="M32.943,77.624V64.965h6.55c1.215,0,2.144,0.104,2.785,0.311c0.643,0.207,1.16,0.592,1.554,1.153
				c0.393,0.561,0.59,1.244,0.59,2.051c0,0.702-0.15,1.308-0.452,1.817c-0.301,0.51-0.715,0.923-1.241,1.239
				c-0.335,0.201-0.796,0.368-1.38,0.501c0.468,0.155,0.809,0.312,1.023,0.467c0.145,0.104,0.354,0.325,0.628,0.665
				s0.458,0.603,0.551,0.787l1.903,3.668h-4.441l-2.101-3.869c-0.266-0.5-0.503-0.825-0.711-0.976
				c-0.284-0.195-0.604-0.293-0.963-0.293h-0.348v5.138H32.943z M36.891,70.094h1.657c0.18,0,0.526-0.058,1.041-0.173
				c0.261-0.052,0.473-0.184,0.638-0.396s0.247-0.458,0.247-0.734c0-0.409-0.13-0.723-0.39-0.941
				c-0.261-0.219-0.749-0.328-1.467-0.328h-1.727V70.094z"/>
			<path class="st1" d="M46.218,71.303c0-2.066,0.578-3.676,1.735-4.827s2.768-1.727,4.833-1.727c2.116,0,3.748,0.565,4.893,1.696
				c1.146,1.132,1.718,2.716,1.718,4.754c0,1.479-0.25,2.693-0.75,3.64c-0.501,0.947-1.224,1.685-2.169,2.211
				c-0.946,0.526-2.124,0.79-3.536,0.79c-1.434,0-2.621-0.228-3.561-0.683c-0.94-0.454-1.702-1.174-2.286-2.158
				C46.51,74.015,46.218,72.782,46.218,71.303z M50.148,71.32c0,1.278,0.238,2.196,0.716,2.755c0.477,0.559,1.126,0.837,1.947,0.837
				c0.845,0,1.498-0.273,1.961-0.82s0.694-1.528,0.694-2.944c0-1.191-0.242-2.063-0.725-2.612c-0.483-0.55-1.138-0.824-1.965-0.824
				c-0.793,0-1.429,0.279-1.909,0.837C50.388,69.107,50.148,70.03,50.148,71.32z"/>
		</g>
		<g class="st0">
			<path d="M238.883,74.255c0,0.274-0.032,0.465-0.096,0.57s-0.155,0.158-0.275,0.158h-4.433c-0.127,0-0.223-0.055-0.286-0.164
				c-0.063-0.108-0.096-0.297-0.096-0.564s0.032-0.454,0.096-0.56s0.159-0.158,0.286-0.158h4.433c0.057,0,0.107,0.011,0.153,0.032
				c0.046,0.021,0.085,0.062,0.117,0.121c0.031,0.06,0.057,0.136,0.074,0.227C238.874,74.009,238.883,74.121,238.883,74.255z"/>
		</g>
	</g>
	<g>
		<defs>
			<polygon id="SVGID_5_" points="0.987,86.461 145.108,86.461 145.108,162.115 0.987,162.115 0.987,86.461 			"/>
		</defs>
		<clipPath id="SVGID_8_">
			<use xlink:href="#SVGID_5_"  style="overflow:visible;"/>
		</clipPath>
		<g class="st2">
			<path class="st1" d="M5.112,92.895h8.638v2.418H8.622v1.965h4.38v2.272h-4.38v4.598h-3.51V92.895z"/>
			<path class="st1" d="M15.94,92.895h9.362v2.402h-5.861v1.789h5.437v2.295h-5.437v2.218h6.03v2.549H15.94V92.895z"/>
			<path class="st1" d="M35.307,99.542l3.062,0.921c-0.205,0.854-0.529,1.568-0.972,2.142s-0.991,1.006-1.646,1.297
				c-0.655,0.292-1.489,0.438-2.502,0.438c-1.229,0-2.233-0.179-3.012-0.533c-0.779-0.355-1.451-0.98-2.017-1.876
				c-0.566-0.895-0.849-2.04-0.849-3.437c0-1.861,0.497-3.292,1.492-4.292s2.402-1.499,4.223-1.499c1.424,0,2.543,0.286,3.358,0.859
				c0.814,0.573,1.42,1.453,1.816,2.641l-3.085,0.683c-0.108-0.343-0.222-0.593-0.34-0.752c-0.195-0.266-0.435-0.471-0.717-0.614
				c-0.283-0.143-0.599-0.215-0.948-0.215c-0.792,0-1.398,0.317-1.82,0.951c-0.319,0.47-0.479,1.209-0.479,2.215
				c0,1.248,0.19,2.103,0.571,2.565c0.38,0.462,0.915,0.693,1.604,0.693c0.669,0,1.174-0.187,1.516-0.561
				C34.904,100.796,35.152,100.253,35.307,99.542z"/>
			<path class="st1" d="M39.654,92.895h3.494v3.938h3.817v-3.938h3.509v11.253h-3.509v-4.552h-3.817v4.552h-3.494V92.895z"/>
			<path class="st1" d="M59.43,102.29h-3.966l-0.552,1.857h-3.566l4.249-11.253h3.811l4.248,11.253h-3.658L59.43,102.29z
				 M58.705,99.857l-1.248-4.045l-1.234,4.045H58.705z"/>
			<path class="st1" d="M69.336,92.895h5.19c1.022,0,1.85,0.139,2.479,0.414c0.629,0.276,1.149,0.674,1.562,1.19
				c0.411,0.517,0.709,1.118,0.895,1.804c0.185,0.686,0.277,1.412,0.277,2.18c0,1.203-0.138,2.136-0.412,2.798
				c-0.275,0.663-0.657,1.218-1.146,1.666c-0.488,0.447-1.013,0.746-1.573,0.895c-0.767,0.204-1.46,0.307-2.082,0.307h-5.19V92.895z
				 M72.829,95.443v6.148h0.856c0.729,0,1.249-0.081,1.558-0.242s0.55-0.442,0.725-0.845c0.175-0.401,0.263-1.053,0.263-1.953
				c0-1.192-0.195-2.009-0.586-2.448c-0.391-0.44-1.039-0.66-1.943-0.66H72.829z"/>
			<path class="st1" d="M81.141,92.895h9.362v2.402h-5.861v1.789h5.437v2.295h-5.437v2.218h6.03v2.549h-9.531V92.895z"/>
		</g>
		<g class="st2">
			<path class="st1" d="M5.09,118.437h9.362v2.402H8.591v1.789h5.437v2.295H8.591v2.218h6.03v2.549H5.09V118.437z"/>
			<path class="st1" d="M16.952,118.437h3.263l4.257,6.226v-6.226h3.293v11.253h-3.293l-4.234-6.179v6.179h-3.285V118.437z"/>
			<path class="st1" d="M28.976,118.437h10.619v2.778h-3.563v8.475h-3.493v-8.475h-3.563V118.437z"/>
			<path class="st1" d="M41.649,129.69v-11.253h5.822c1.08,0,1.905,0.092,2.476,0.276c0.571,0.185,1.031,0.525,1.381,1.024
				s0.524,1.107,0.524,1.823c0,0.624-0.134,1.163-0.401,1.616c-0.268,0.452-0.636,0.819-1.104,1.102
				c-0.299,0.179-0.707,0.327-1.227,0.444c0.416,0.139,0.719,0.277,0.909,0.415c0.128,0.093,0.314,0.29,0.559,0.592
				c0.244,0.303,0.407,0.535,0.489,0.699l1.691,3.261h-3.947l-1.867-3.438c-0.236-0.445-0.447-0.734-0.632-0.868
				c-0.252-0.174-0.538-0.261-0.856-0.261h-0.309v4.567H41.649z M45.158,122.996h1.473c0.16,0,0.468-0.051,0.926-0.153
				c0.231-0.046,0.42-0.164,0.567-0.354c0.146-0.189,0.22-0.406,0.22-0.652c0-0.363-0.116-0.642-0.348-0.837
				c-0.231-0.194-0.666-0.291-1.303-0.291h-1.535V122.996z"/>
			<path class="st1" d="M53.454,118.437h9.362v2.402h-5.861v1.789h5.437v2.295h-5.437v2.218h6.03v2.549h-9.531V118.437z"/>
			<path class="st1" d="M70.978,125.613v-2.341h5.398v4.798c-1.034,0.7-1.947,1.178-2.742,1.431
				c-0.794,0.254-1.736,0.381-2.826,0.381c-1.342,0-2.436-0.229-3.281-0.684s-1.502-1.134-1.967-2.034
				c-0.466-0.9-0.698-1.935-0.698-3.101c0-1.229,0.255-2.297,0.764-3.205s1.255-1.598,2.236-2.068
				c0.767-0.363,1.797-0.545,3.093-0.545c1.249,0,2.184,0.112,2.804,0.337c0.619,0.226,1.133,0.575,1.542,1.048
				c0.409,0.474,0.716,1.073,0.922,1.8l-3.37,0.6c-0.139-0.425-0.374-0.75-0.706-0.976c-0.331-0.225-0.755-0.337-1.269-0.337
				c-0.767,0-1.377,0.265-1.832,0.794c-0.454,0.529-0.682,1.367-0.682,2.514c0,1.218,0.229,2.088,0.689,2.61
				c0.46,0.521,1.102,0.782,1.925,0.782c0.391,0,0.763-0.056,1.118-0.169c0.354-0.112,0.761-0.304,1.218-0.575v-1.06H70.978z"/>
			<path class="st1" d="M85.085,127.832h-3.966l-0.552,1.857h-3.566l4.249-11.253h3.811l4.248,11.253H85.65L85.085,127.832z
				 M84.36,125.399l-1.248-4.045l-1.234,4.045H84.36z"/>
		</g>
		<g class="st2">
			<path class="st1" d="M5.144,143.997h5.19c1.022,0,1.85,0.139,2.479,0.414c0.629,0.276,1.149,0.674,1.562,1.19
				c0.411,0.517,0.709,1.118,0.895,1.804c0.185,0.686,0.277,1.412,0.277,2.18c0,1.203-0.138,2.136-0.412,2.798
				c-0.275,0.663-0.657,1.218-1.146,1.666c-0.488,0.447-1.013,0.746-1.573,0.895c-0.767,0.204-1.46,0.307-2.082,0.307h-5.19V143.997
				z M8.637,146.546v6.148h0.856c0.729,0,1.249-0.081,1.558-0.242s0.55-0.442,0.725-0.845c0.175-0.401,0.263-1.053,0.263-1.953
				c0-1.192-0.195-2.009-0.586-2.448c-0.391-0.44-1.039-0.66-1.943-0.66H8.637z"/>
			<path class="st1" d="M16.948,143.997h9.362v2.402h-5.861v1.789h5.437v2.295h-5.437v2.218h6.03v2.549h-9.531V143.997z"/>
			<path class="st1" d="M33.725,143.997h5.807c1.265,0,2.212,0.3,2.842,0.898s0.945,1.45,0.945,2.556
				c0,1.136-0.344,2.024-1.03,2.664c-0.686,0.64-1.733,0.959-3.143,0.959h-1.912v4.176h-3.509V143.997z M37.233,148.795h0.855
				c0.674,0,1.146-0.117,1.42-0.35c0.272-0.232,0.408-0.531,0.408-0.895c0-0.353-0.118-0.652-0.354-0.897
				c-0.236-0.246-0.682-0.369-1.334-0.369h-0.995V148.795z"/>
			<path class="st1" d="M45.618,155.25v-11.253h5.822c1.08,0,1.905,0.092,2.476,0.276c0.571,0.185,1.031,0.525,1.381,1.024
				s0.524,1.107,0.524,1.823c0,0.624-0.134,1.163-0.401,1.616c-0.268,0.452-0.636,0.819-1.104,1.102
				c-0.299,0.179-0.707,0.327-1.227,0.444c0.416,0.139,0.719,0.277,0.909,0.415c0.128,0.093,0.314,0.29,0.559,0.592
				c0.244,0.303,0.407,0.535,0.489,0.699l1.691,3.261h-3.947l-1.867-3.438c-0.236-0.445-0.447-0.734-0.632-0.868
				c-0.252-0.174-0.538-0.261-0.856-0.261h-0.309v4.567H45.618z M49.127,148.557H50.6c0.16,0,0.468-0.051,0.926-0.153
				c0.231-0.046,0.42-0.164,0.567-0.354c0.146-0.189,0.22-0.406,0.22-0.652c0-0.363-0.116-0.642-0.348-0.837
				c-0.231-0.194-0.666-0.291-1.303-0.291h-1.535V148.557z"/>
			<path class="st1" d="M56.991,149.631c0-1.837,0.515-3.267,1.543-4.29s2.46-1.535,4.295-1.535c1.882,0,3.332,0.502,4.35,1.508
				c1.019,1.006,1.527,2.414,1.527,4.226c0,1.315-0.223,2.394-0.667,3.235s-1.088,1.497-1.928,1.965
				c-0.841,0.469-1.889,0.703-3.143,0.703c-1.275,0-2.331-0.202-3.166-0.606c-0.836-0.404-1.513-1.044-2.032-1.919
				C57.251,152.041,56.991,150.946,56.991,149.631z M60.485,149.647c0,1.136,0.212,1.952,0.636,2.448
				c0.425,0.497,1.002,0.745,1.731,0.745c0.751,0,1.332-0.243,1.743-0.729s0.617-1.358,0.617-2.617c0-1.06-0.215-1.833-0.645-2.322
				c-0.429-0.488-1.012-0.732-1.746-0.732c-0.705,0-1.271,0.248-1.697,0.744S60.485,148.5,60.485,149.647z M62.768,141.019h2.699
				l-2.49,2.295h-1.504L62.768,141.019z"/>
			<path class="st1" d="M69.478,143.997h10.619v2.778h-3.563v8.475h-3.493v-8.475h-3.563V143.997z"/>
			<path class="st1" d="M82.097,143.997h9.362v2.402h-5.861v1.789h5.437v2.295h-5.437v2.218h6.03v2.549h-9.531V143.997z"/>
			<path class="st1" d="M93.327,151.527l3.323-0.207c0.072,0.537,0.219,0.946,0.439,1.228c0.36,0.456,0.874,0.684,1.543,0.684
				c0.498,0,0.883-0.116,1.152-0.35c0.271-0.232,0.405-0.503,0.405-0.81c0-0.292-0.129-0.553-0.386-0.783s-0.854-0.447-1.789-0.652
				c-1.532-0.343-2.625-0.798-3.277-1.366c-0.658-0.568-0.987-1.292-0.987-2.172c0-0.579,0.168-1.125,0.505-1.64
				c0.337-0.514,0.844-0.918,1.52-1.213c0.676-0.294,1.603-0.44,2.78-0.44c1.444,0,2.546,0.267,3.305,0.802
				c0.758,0.535,1.209,1.386,1.354,2.552l-3.293,0.192c-0.088-0.507-0.271-0.875-0.552-1.105s-0.667-0.346-1.16-0.346
				c-0.406,0-0.713,0.086-0.918,0.258c-0.206,0.171-0.309,0.38-0.309,0.625c0,0.18,0.085,0.341,0.254,0.483
				c0.165,0.149,0.556,0.287,1.173,0.415c1.526,0.327,2.62,0.659,3.281,0.994c0.66,0.335,1.142,0.751,1.442,1.247
				s0.451,1.052,0.451,1.666c0,0.722-0.201,1.387-0.602,1.995c-0.401,0.609-0.962,1.071-1.682,1.386s-1.627,0.473-2.722,0.473
				c-1.923,0-3.255-0.369-3.995-1.105C93.844,153.6,93.425,152.663,93.327,151.527z"/>
			<path class="st1" d="M105.908,143.997h3.501v11.253h-3.501V143.997z"/>
			<path class="st1" d="M111.085,151.527l3.323-0.207c0.072,0.537,0.219,0.946,0.439,1.228c0.36,0.456,0.874,0.684,1.543,0.684
				c0.498,0,0.883-0.116,1.152-0.35c0.271-0.232,0.405-0.503,0.405-0.81c0-0.292-0.129-0.553-0.386-0.783s-0.854-0.447-1.789-0.652
				c-1.532-0.343-2.625-0.798-3.277-1.366c-0.658-0.568-0.987-1.292-0.987-2.172c0-0.579,0.168-1.125,0.505-1.64
				c0.337-0.514,0.844-0.918,1.52-1.213c0.676-0.294,1.603-0.44,2.78-0.44c1.444,0,2.546,0.267,3.305,0.802
				c0.758,0.535,1.209,1.386,1.354,2.552l-3.293,0.192c-0.088-0.507-0.271-0.875-0.552-1.105s-0.667-0.346-1.16-0.346
				c-0.406,0-0.713,0.086-0.918,0.258c-0.206,0.171-0.309,0.38-0.309,0.625c0,0.18,0.085,0.341,0.254,0.483
				c0.165,0.149,0.556,0.287,1.173,0.415c1.526,0.327,2.62,0.659,3.281,0.994c0.66,0.335,1.142,0.751,1.442,1.247
				s0.451,1.052,0.451,1.666c0,0.722-0.201,1.387-0.602,1.995c-0.401,0.609-0.962,1.071-1.682,1.386s-1.627,0.473-2.722,0.473
				c-1.923,0-3.255-0.369-3.995-1.105C111.602,153.6,111.183,152.663,111.085,151.527z"/>
		</g>
	</g>
	<g>
		<defs>
			<polygon id="SVGID_4_" points="0.987,0.983 327.728,0.983 327.728,163.098 0.987,163.098 0.987,0.983 			"/>
		</defs>
		<clipPath id="SVGID_9_">
			<use xlink:href="#SVGID_4_"  style="overflow:visible;"/>
		</clipPath>
		<g class="st3">
			<path d="M194.855,124.79c0,1.049-0.083,2.005-0.249,2.871c-0.166,0.865-0.442,1.609-0.827,2.232
				c-0.386,0.622-0.889,1.104-1.511,1.445c-0.622,0.342-1.39,0.512-2.302,0.512c-0.862,0-1.589-0.152-2.179-0.459
				c-0.591-0.306-1.065-0.756-1.426-1.351c-0.361-0.595-0.617-1.326-0.77-2.195c-0.151-0.869-0.228-1.866-0.228-2.992
				c0-1.041,0.085-1.996,0.254-2.865c0.17-0.869,0.445-1.615,0.827-2.238c0.382-0.622,0.884-1.104,1.506-1.445
				c0.622-0.342,1.386-0.512,2.291-0.512c0.869,0,1.599,0.152,2.189,0.459c0.59,0.306,1.065,0.756,1.426,1.351
				c0.361,0.595,0.617,1.326,0.77,2.195C194.779,122.667,194.855,123.664,194.855,124.79z M192.989,124.917
				c0-0.683-0.024-1.295-0.074-1.837s-0.122-1.02-0.218-1.436c-0.095-0.415-0.219-0.771-0.371-1.071
				c-0.151-0.299-0.334-0.545-0.546-0.738s-0.454-0.334-0.727-0.423c-0.271-0.088-0.577-0.132-0.917-0.132
				c-0.601,0-1.089,0.142-1.463,0.423c-0.375,0.281-0.67,0.668-0.886,1.161c-0.216,0.492-0.362,1.069-0.44,1.73
				c-0.077,0.661-0.116,1.372-0.116,2.132c0,1.021,0.053,1.888,0.159,2.602c0.105,0.715,0.273,1.297,0.504,1.747
				c0.229,0.45,0.522,0.777,0.88,0.981c0.356,0.204,0.79,0.306,1.299,0.306c0.396,0,0.744-0.063,1.045-0.189
				c0.3-0.127,0.558-0.308,0.773-0.544c0.216-0.235,0.395-0.519,0.536-0.85c0.141-0.33,0.254-0.696,0.339-1.098
				c0.085-0.4,0.144-0.835,0.175-1.303C192.974,125.91,192.989,125.423,192.989,124.917z"/>
			<path d="M205.479,118.775c0,0.126-0.006,0.241-0.017,0.343s-0.024,0.2-0.042,0.295c-0.018,0.096-0.043,0.187-0.074,0.274
				c-0.032,0.089-0.069,0.182-0.111,0.28l-4.941,11.335c-0.036,0.085-0.08,0.153-0.133,0.206s-0.12,0.095-0.201,0.127
				c-0.082,0.031-0.186,0.053-0.313,0.063c-0.127,0.01-0.282,0.016-0.466,0.016c-0.241,0-0.428-0.011-0.563-0.032
				c-0.134-0.021-0.231-0.054-0.292-0.1c-0.06-0.046-0.086-0.103-0.079-0.169c0.007-0.067,0.032-0.146,0.074-0.237l5.196-11.589
				h-6.585c-0.135,0-0.235-0.07-0.303-0.211s-0.101-0.338-0.101-0.592c0-0.133,0.009-0.249,0.026-0.348s0.044-0.182,0.08-0.248
				c0.035-0.067,0.077-0.116,0.127-0.148c0.049-0.031,0.105-0.047,0.17-0.047h7.995c0.099,0,0.186,0.011,0.26,0.031
				c0.074,0.021,0.131,0.063,0.17,0.127c0.038,0.063,0.068,0.145,0.09,0.243S205.479,118.619,205.479,118.775z"/>
			<path d="M208.136,134.194c-0.028,0.091-0.065,0.163-0.111,0.216s-0.104,0.094-0.175,0.121c-0.07,0.028-0.157,0.05-0.26,0.063
				c-0.103,0.015-0.228,0.021-0.376,0.021c-0.177,0-0.324-0.013-0.44-0.037c-0.117-0.024-0.207-0.06-0.271-0.105
				s-0.103-0.102-0.116-0.169c-0.015-0.066,0-0.146,0.042-0.237l6.415-17.51c0.028-0.092,0.065-0.164,0.111-0.217
				s0.103-0.095,0.17-0.126c0.067-0.032,0.154-0.053,0.26-0.063c0.106-0.011,0.233-0.016,0.382-0.016
				c0.177,0,0.321,0.012,0.435,0.037c0.113,0.024,0.202,0.058,0.266,0.1s0.103,0.099,0.116,0.169
				c0.015,0.07,0.004,0.151-0.031,0.243L208.136,134.194z"/>
			<path d="M225.475,124.79c0,1.049-0.083,2.005-0.249,2.871c-0.166,0.865-0.442,1.609-0.827,2.232
				c-0.386,0.622-0.889,1.104-1.511,1.445c-0.622,0.342-1.39,0.512-2.302,0.512c-0.862,0-1.589-0.152-2.179-0.459
				c-0.591-0.306-1.065-0.756-1.426-1.351c-0.361-0.595-0.617-1.326-0.77-2.195c-0.151-0.869-0.228-1.866-0.228-2.992
				c0-1.041,0.085-1.996,0.254-2.865c0.17-0.869,0.445-1.615,0.827-2.238c0.382-0.622,0.884-1.104,1.506-1.445
				c0.622-0.342,1.386-0.512,2.291-0.512c0.869,0,1.599,0.152,2.189,0.459c0.59,0.306,1.065,0.756,1.426,1.351
				c0.361,0.595,0.617,1.326,0.77,2.195C225.398,122.667,225.475,123.664,225.475,124.79z M223.608,124.917
				c0-0.683-0.024-1.295-0.074-1.837s-0.122-1.02-0.218-1.436c-0.095-0.415-0.219-0.771-0.371-1.071
				c-0.151-0.299-0.334-0.545-0.546-0.738s-0.454-0.334-0.727-0.423c-0.271-0.088-0.577-0.132-0.917-0.132
				c-0.601,0-1.089,0.142-1.463,0.423c-0.375,0.281-0.67,0.668-0.886,1.161c-0.216,0.492-0.362,1.069-0.44,1.73
				c-0.077,0.661-0.116,1.372-0.116,2.132c0,1.021,0.053,1.888,0.159,2.602c0.105,0.715,0.273,1.297,0.504,1.747
				c0.229,0.45,0.522,0.777,0.88,0.981c0.356,0.204,0.79,0.306,1.299,0.306c0.396,0,0.744-0.063,1.045-0.189
				c0.3-0.127,0.558-0.308,0.773-0.544c0.216-0.235,0.395-0.519,0.536-0.85c0.141-0.33,0.254-0.696,0.339-1.098
				c0.085-0.4,0.144-0.835,0.175-1.303C223.593,125.91,223.608,125.423,223.608,124.917z"/>
			<path d="M236.245,127.229c0,0.598-0.093,1.177-0.276,1.735c-0.184,0.56-0.467,1.053-0.848,1.479
				c-0.382,0.426-0.866,0.767-1.453,1.023s-1.279,0.385-2.078,0.385c-0.573,0-1.078-0.07-1.517-0.211s-0.82-0.341-1.146-0.602
				c-0.325-0.26-0.596-0.58-0.811-0.96c-0.216-0.38-0.39-0.813-0.521-1.299s-0.224-1.017-0.28-1.594
				c-0.057-0.576-0.085-1.195-0.085-1.857c0-0.584,0.031-1.175,0.096-1.772c0.063-0.599,0.176-1.176,0.339-1.731
				c0.162-0.556,0.384-1.078,0.663-1.567s0.629-0.914,1.05-1.277c0.42-0.362,0.924-0.648,1.511-0.859
				c0.587-0.212,1.269-0.317,2.047-0.317c0.261,0,0.526,0.017,0.795,0.048s0.516,0.074,0.742,0.127s0.417,0.11,0.573,0.174
				c0.155,0.063,0.258,0.114,0.307,0.153c0.05,0.038,0.087,0.081,0.111,0.126c0.025,0.046,0.045,0.096,0.059,0.148
				c0.015,0.053,0.024,0.112,0.032,0.179c0.007,0.067,0.011,0.15,0.011,0.248c0,0.127-0.002,0.236-0.006,0.327
				c-0.004,0.092-0.018,0.166-0.042,0.222c-0.025,0.057-0.057,0.099-0.096,0.127s-0.09,0.042-0.153,0.042
				c-0.078,0-0.185-0.024-0.318-0.073c-0.135-0.05-0.297-0.104-0.488-0.164c-0.19-0.06-0.422-0.114-0.694-0.163
				c-0.272-0.05-0.589-0.074-0.949-0.074c-0.657,0-1.223,0.134-1.696,0.401s-0.86,0.626-1.161,1.076s-0.523,0.973-0.668,1.567
				c-0.146,0.595-0.229,1.216-0.249,1.863c0.184-0.106,0.391-0.212,0.62-0.317s0.48-0.2,0.753-0.284
				c0.271-0.085,0.56-0.153,0.864-0.206c0.304-0.053,0.629-0.079,0.976-0.079c0.742,0,1.367,0.1,1.877,0.301
				c0.509,0.2,0.921,0.479,1.235,0.834c0.314,0.354,0.539,0.773,0.673,1.256C236.178,126.143,236.245,126.665,236.245,127.229z
				 M234.399,127.398c0-0.408-0.041-0.779-0.122-1.114c-0.081-0.334-0.217-0.617-0.408-0.85c-0.19-0.231-0.445-0.411-0.764-0.538
				c-0.317-0.127-0.71-0.189-1.177-0.189c-0.262,0-0.523,0.022-0.784,0.068c-0.262,0.046-0.515,0.109-0.759,0.189
				c-0.244,0.081-0.477,0.177-0.699,0.285c-0.223,0.109-0.427,0.228-0.61,0.354c0,0.908,0.059,1.668,0.175,2.28
				c0.117,0.612,0.287,1.103,0.51,1.472c0.223,0.37,0.5,0.634,0.832,0.792s0.721,0.237,1.166,0.237c0.453,0,0.845-0.084,1.178-0.253
				c0.332-0.169,0.607-0.396,0.827-0.681c0.219-0.285,0.38-0.605,0.482-0.961S234.399,127.77,234.399,127.398z"/>
			<path d="M238.755,134.194c-0.028,0.091-0.065,0.163-0.111,0.216s-0.104,0.094-0.175,0.121c-0.07,0.028-0.157,0.05-0.26,0.063
				c-0.103,0.015-0.228,0.021-0.376,0.021c-0.177,0-0.324-0.013-0.44-0.037c-0.117-0.024-0.207-0.06-0.271-0.105
				s-0.103-0.102-0.116-0.169c-0.015-0.066,0-0.146,0.042-0.237l6.415-17.51c0.028-0.092,0.065-0.164,0.111-0.217
				s0.103-0.095,0.17-0.126c0.067-0.032,0.154-0.053,0.26-0.063c0.106-0.011,0.233-0.016,0.382-0.016
				c0.177,0,0.321,0.012,0.435,0.037c0.113,0.024,0.202,0.058,0.266,0.1s0.103,0.099,0.116,0.169
				c0.015,0.07,0.004,0.151-0.031,0.243L238.755,134.194z"/>
			<path d="M255.637,130.869c0,0.127-0.009,0.239-0.026,0.338s-0.042,0.182-0.074,0.248c-0.032,0.067-0.074,0.116-0.127,0.147
				c-0.054,0.032-0.111,0.048-0.175,0.048h-7.582c-0.1,0-0.186-0.012-0.26-0.037c-0.074-0.024-0.138-0.064-0.191-0.121
				c-0.053-0.057-0.092-0.138-0.116-0.243c-0.025-0.105-0.037-0.235-0.037-0.391c0-0.141,0.005-0.264,0.017-0.369
				c0.011-0.105,0.034-0.198,0.07-0.279c0.037-0.081,0.082-0.162,0.137-0.243s0.126-0.167,0.213-0.259l2.743-2.807
				c0.634-0.647,1.142-1.229,1.524-1.742c0.382-0.514,0.678-0.981,0.885-1.403c0.208-0.422,0.345-0.806,0.41-1.15
				s0.098-0.669,0.098-0.971c0-0.303-0.051-0.59-0.152-0.86c-0.103-0.271-0.25-0.509-0.443-0.713s-0.437-0.365-0.728-0.485
				c-0.292-0.119-0.628-0.18-1.007-0.18c-0.445,0-0.845,0.061-1.198,0.18c-0.354,0.12-0.664,0.25-0.93,0.391
				c-0.267,0.141-0.489,0.271-0.668,0.391c-0.179,0.119-0.312,0.18-0.399,0.18c-0.051,0-0.097-0.015-0.137-0.043
				c-0.04-0.027-0.072-0.073-0.099-0.137c-0.025-0.063-0.045-0.148-0.06-0.254s-0.022-0.231-0.022-0.38
				c0-0.105,0.004-0.196,0.011-0.274c0.007-0.077,0.02-0.144,0.037-0.2s0.041-0.109,0.069-0.158s0.085-0.111,0.17-0.185
				c0.085-0.074,0.231-0.175,0.439-0.301c0.209-0.127,0.471-0.252,0.785-0.375s0.661-0.227,1.039-0.312
				c0.378-0.084,0.775-0.126,1.192-0.126c0.665,0,1.246,0.093,1.745,0.279c0.498,0.187,0.912,0.441,1.24,0.765
				c0.329,0.324,0.574,0.7,0.737,1.13c0.162,0.429,0.244,0.887,0.244,1.372c0,0.437-0.039,0.871-0.117,1.304s-0.242,0.9-0.493,1.403
				s-0.613,1.063-1.087,1.678c-0.474,0.616-1.103,1.325-1.888,2.127l-2.174,2.259h5.971c0.057,0,0.111,0.016,0.164,0.048
				c0.053,0.031,0.099,0.079,0.138,0.143c0.039,0.063,0.067,0.143,0.085,0.237S255.637,130.743,255.637,130.869z"/>
			<path d="M266.97,124.79c0,1.049-0.083,2.005-0.249,2.871c-0.166,0.865-0.442,1.609-0.827,2.232
				c-0.386,0.622-0.889,1.104-1.511,1.445c-0.622,0.342-1.39,0.512-2.302,0.512c-0.862,0-1.589-0.152-2.179-0.459
				c-0.591-0.306-1.065-0.756-1.426-1.351c-0.361-0.595-0.617-1.326-0.77-2.195c-0.151-0.869-0.228-1.866-0.228-2.992
				c0-1.041,0.085-1.996,0.254-2.865c0.17-0.869,0.445-1.615,0.827-2.238c0.382-0.622,0.884-1.104,1.506-1.445
				c0.622-0.342,1.386-0.512,2.291-0.512c0.869,0,1.599,0.152,2.189,0.459c0.59,0.306,1.065,0.756,1.426,1.351
				c0.361,0.595,0.617,1.326,0.77,2.195C266.894,122.667,266.97,123.664,266.97,124.79z M265.104,124.917
				c0-0.683-0.024-1.295-0.074-1.837s-0.122-1.02-0.218-1.436c-0.095-0.415-0.219-0.771-0.371-1.071
				c-0.151-0.299-0.334-0.545-0.546-0.738s-0.454-0.334-0.727-0.423c-0.271-0.088-0.577-0.132-0.917-0.132
				c-0.601,0-1.089,0.142-1.463,0.423c-0.375,0.281-0.67,0.668-0.886,1.161c-0.216,0.492-0.362,1.069-0.44,1.73
				c-0.077,0.661-0.116,1.372-0.116,2.132c0,1.021,0.053,1.888,0.159,2.602c0.105,0.715,0.273,1.297,0.504,1.747
				c0.229,0.45,0.522,0.777,0.88,0.981c0.356,0.204,0.79,0.306,1.299,0.306c0.396,0,0.744-0.063,1.045-0.189
				c0.3-0.127,0.558-0.308,0.773-0.544c0.216-0.235,0.395-0.519,0.536-0.85c0.141-0.33,0.254-0.696,0.339-1.098
				c0.085-0.4,0.144-0.835,0.175-1.303C265.088,125.91,265.104,125.423,265.104,124.917z"/>
			<path d="M277.422,130.933c0,0.134-0.011,0.246-0.032,0.338s-0.05,0.165-0.085,0.222s-0.076,0.097-0.122,0.121
				c-0.046,0.025-0.094,0.037-0.143,0.037h-7.168c-0.05,0-0.096-0.012-0.139-0.037c-0.042-0.024-0.083-0.064-0.121-0.121
				c-0.039-0.057-0.069-0.13-0.091-0.222c-0.021-0.092-0.031-0.204-0.031-0.338c0-0.127,0.011-0.235,0.031-0.327
				c0.021-0.092,0.048-0.167,0.08-0.227c0.031-0.06,0.07-0.105,0.116-0.138c0.046-0.031,0.098-0.047,0.154-0.047h2.862v-10.386
				l-2.65,1.572c-0.135,0.07-0.242,0.112-0.323,0.127c-0.082,0.014-0.147-0.002-0.196-0.048c-0.05-0.046-0.084-0.121-0.101-0.227
				c-0.019-0.105-0.027-0.239-0.027-0.401c0-0.119,0.006-0.222,0.017-0.306c0.011-0.085,0.026-0.155,0.048-0.211
				c0.021-0.057,0.051-0.106,0.09-0.148s0.09-0.084,0.153-0.126l3.16-2.017c0.028-0.021,0.063-0.038,0.106-0.053
				c0.042-0.014,0.095-0.027,0.159-0.042c0.063-0.014,0.138-0.022,0.223-0.026c0.084-0.004,0.19-0.005,0.317-0.005
				c0.17,0,0.312,0.007,0.425,0.021c0.112,0.015,0.201,0.033,0.265,0.059c0.063,0.024,0.106,0.056,0.127,0.095
				c0.021,0.039,0.032,0.079,0.032,0.121v12.001h2.481c0.057,0,0.109,0.016,0.159,0.047c0.049,0.032,0.09,0.078,0.122,0.138
				c0.031,0.06,0.056,0.135,0.074,0.227C277.413,130.697,277.422,130.806,277.422,130.933z"/>
			<path d="M288.373,124.283c0,0.591-0.036,1.189-0.106,1.795c-0.07,0.604-0.19,1.187-0.36,1.746s-0.397,1.084-0.684,1.573
				c-0.287,0.488-0.647,0.916-1.082,1.282c-0.435,0.365-0.951,0.652-1.548,0.86c-0.598,0.207-1.292,0.311-2.084,0.311
				c-0.304,0-0.599-0.02-0.886-0.058c-0.286-0.039-0.544-0.086-0.773-0.143c-0.23-0.057-0.423-0.116-0.578-0.18
				s-0.269-0.126-0.34-0.189c-0.07-0.063-0.121-0.149-0.153-0.259s-0.048-0.255-0.048-0.438c0-0.154,0.006-0.277,0.016-0.369
				c0.011-0.091,0.027-0.162,0.048-0.211c0.021-0.049,0.052-0.083,0.091-0.101c0.038-0.018,0.086-0.026,0.143-0.026
				c0.078,0,0.188,0.026,0.329,0.079s0.319,0.111,0.535,0.175s0.469,0.121,0.759,0.174c0.289,0.053,0.614,0.079,0.976,0.079
				c0.686,0,1.273-0.132,1.765-0.396s0.893-0.617,1.204-1.061c0.311-0.443,0.544-0.957,0.7-1.541c0.155-0.584,0.24-1.2,0.254-1.848
				c-0.375,0.219-0.823,0.412-1.347,0.581s-1.124,0.253-1.803,0.253c-0.764,0-1.405-0.104-1.925-0.312
				c-0.52-0.207-0.937-0.49-1.251-0.85c-0.314-0.358-0.541-0.784-0.679-1.276c-0.138-0.493-0.207-1.031-0.207-1.615
				c0-0.605,0.089-1.181,0.266-1.726s0.452-1.025,0.827-1.44c0.374-0.415,0.852-0.746,1.432-0.992
				c0.579-0.246,1.272-0.369,2.078-0.369c0.572,0,1.08,0.071,1.521,0.216s0.825,0.352,1.15,0.623
				c0.325,0.271,0.601,0.598,0.827,0.981s0.408,0.817,0.546,1.304c0.139,0.485,0.237,1.011,0.297,1.577
				C288.343,123.061,288.373,123.657,288.373,124.283z M286.518,124.083c0-0.9-0.061-1.659-0.181-2.274
				c-0.12-0.616-0.297-1.113-0.53-1.493c-0.233-0.381-0.52-0.655-0.858-0.823c-0.34-0.169-0.732-0.254-1.178-0.254
				c-0.459,0-0.852,0.083-1.177,0.248c-0.325,0.166-0.592,0.387-0.801,0.665c-0.208,0.278-0.362,0.593-0.461,0.944
				c-0.1,0.353-0.148,0.715-0.148,1.088c0,0.415,0.044,0.795,0.132,1.14c0.089,0.345,0.232,0.637,0.43,0.876
				c0.198,0.239,0.456,0.424,0.774,0.554c0.318,0.131,0.71,0.195,1.177,0.195c0.53,0,1.043-0.079,1.538-0.237
				C285.729,124.553,286.156,124.344,286.518,124.083z"/>
		</g>
	</g>
	<g>
		<defs>
			<polygon id="SVGID_3_" points="0,0 327.728,0 327.728,163.098 0,163.098 0,0 			"/>
		</defs>
		<clipPath id="SVGID_10_">
			<use xlink:href="#SVGID_3_"  style="overflow:visible;"/>
		</clipPath>
		<polyline class="st4" points="0,0 0,0 0.987,0 0.987,0 0,0 		"/>
		<polyline class="st4" points="145.108,0 145.108,0 146.095,0 146.095,0 145.108,0 		"/>
		<line class="st5" x1="0.987" y1="0" x2="327.728" y2="0"/>
		<polyline class="st6" points="0.987,0 0.987,0.983 327.728,0.983 327.728,0 0.987,0 		"/>
		<polyline class="st4" points="326.74,0 326.74,0 327.728,0 327.728,0 326.74,0 		"/>
		<line class="st5" x1="0.987" y1="28.493" x2="327.728" y2="28.493"/>
		<polyline class="st6" points="0.987,28.493 0.987,29.475 327.728,29.475 327.728,28.493 0.987,28.493 		"/>
		<line class="st5" x1="0.987" y1="56.986" x2="327.728" y2="56.986"/>
		<polyline class="st6" points="0.987,56.986 0.987,57.968 327.728,57.968 327.728,56.986 0.987,56.986 		"/>
		<line class="st5" x1="0.987" y1="85.479" x2="327.728" y2="85.479"/>
		<polyline class="st6" points="0.987,85.479 0.987,86.461 327.728,86.461 327.728,85.479 0.987,85.479 		"/>
		<line class="st5" x1="0" y1="0" x2="0" y2="163.098"/>
		<polyline class="st6" points="0,0 0,163.098 0.987,163.098 0.987,0 0,0 		"/>
		<line class="st5" x1="145.108" y1="0.983" x2="145.108" y2="163.098"/>
		<polyline class="st6" points="145.108,0.983 145.108,163.098 146.095,163.098 146.095,0.983 145.108,0.983 		"/>
		<line class="st5" x1="0.987" y1="162.115" x2="327.728" y2="162.115"/>
		<polyline class="st6" points="0.987,162.115 0.987,163.098 327.728,163.098 327.728,162.115 0.987,162.115 		"/>
		<line class="st5" x1="326.74" y1="0.983" x2="326.74" y2="163.098"/>
		<polyline class="st6" points="326.74,0.983 326.74,163.098 327.728,163.098 327.728,0.983 326.74,0.983 		"/>
		<line class="st7" x1="0" y1="163.098" x2="0" y2="164.08"/>
		<polyline class="st4" points="0,163.098 0,164.08 0.987,164.08 0.987,163.098 0,163.098 		"/>
		<line class="st7" x1="145.108" y1="163.098" x2="145.108" y2="164.08"/>
		<polyline class="st4" points="145.108,163.098 145.108,164.08 146.095,164.08 146.095,163.098 145.108,163.098 		"/>
		<line class="st7" x1="326.74" y1="163.098" x2="326.74" y2="164.08"/>
		<polyline class="st4" points="326.74,163.098 326.74,164.08 327.728,164.08 327.728,163.098 326.74,163.098 		"/>
		<line class="st7" x1="327.728" y1="0" x2="328.715" y2="0"/>
		<polyline class="st4" points="327.728,0 327.728,0.983 328.715,0.983 328.715,0 327.728,0 		"/>
		<line class="st7" x1="327.728" y1="28.493" x2="328.715" y2="28.493"/>
		<polyline class="st4" points="327.728,28.493 327.728,29.475 328.715,29.475 328.715,28.493 327.728,28.493 		"/>
		<line class="st7" x1="327.728" y1="56.986" x2="328.715" y2="56.986"/>
		<polyline class="st4" points="327.728,56.986 327.728,57.968 328.715,57.968 328.715,56.986 327.728,56.986 		"/>
		<line class="st7" x1="327.728" y1="85.479" x2="328.715" y2="85.479"/>
		<polyline class="st4" points="327.728,85.479 327.728,86.461 328.715,86.461 328.715,85.479 327.728,85.479 		"/>
		<line class="st7" x1="327.728" y1="162.115" x2="328.715" y2="162.115"/>
		<polyline class="st4" points="327.728,162.115 327.728,163.098 328.715,163.098 328.715,162.115 327.728,162.115 		"/>
	</g>
	<g>
		<defs>
			<polygon id="SVGID_2_" points="0.987,0.983 327.728,0.983 327.728,163.098 0.987,163.098 0.987,0.983 			"/>
		</defs>
		<defs>
			<polygon id="SVGID_1_" points="0.987,0.983 327.728,0.983 327.728,163.098 0.987,163.098 0.987,0.983 			"/>
		</defs>
		<clipPath id="SVGID_11_">
			<use xlink:href="#SVGID_2_"  style="overflow:visible;"/>
		</clipPath>
		<clipPath id="SVGID_12_" class="st8">
			<use xlink:href="#SVGID_1_"  style="overflow:visible;"/>
		</clipPath>
	</g>
</g>
</svg>