<!-- Generator: Adobe Illustrator 22.0.0, SVG Export Plug-In  -->
<svg version="1.1"
	 xmlns="http://www.w3.org/2000/svg" xmlns:xlink="http://www.w3.org/1999/xlink" xmlns:a="http://ns.adobe.com/AdobeSVGViewerExtensions/3.0/"
	 x="0px" y="0px" width="190.764px" height="42px" viewBox="0 0 190.764 42"
	 style="overflow:scroll;enable-background:new 0 0 190.764 42;" xml:space="preserve">
<style type="text/css">
	.st0{opacity:0.7;fill-rule:evenodd;clip-rule:evenodd;fill:#FFD100;}
	.st1{font-family:'Arial-BoldMT';}
	.st2{font-size:29.6909px;}
</style>
<defs>
</defs>
<path class="st0" d="M178.764,41.567H12c-6.6,0-12-5.4-12-12V12C0,5.4,5.4,0,12,0h166.764c6.6,0,12,5.4,12,12v17.567
	C190.764,36.167,185.364,41.567,178.764,41.567z"/>
<g>
	<path d="M36.721,30.822h-4.69l-1.864-4.828h-8.536l-1.762,4.828h-4.574l8.317-21.253h4.559L36.721,30.822z M28.783,22.414
		l-2.942-7.887l-2.884,7.887H28.783z"/>
	<path d="M39.051,30.822V9.569h4.195l8.74,14.192V9.569h4.005v21.253h-4.326l-8.608-13.859v13.859H39.051z"/>
	<path d="M65.357,30.822V13.164h-6.336V9.569H75.99v3.595h-6.321v17.658H65.357z"/>
	<path d="M78.772,30.822V9.569h15.833v3.595H83.083v4.712h10.72v3.581h-10.72v5.784h11.929v3.581H78.772z"/>
	<path d="M98.684,30.822V9.569h9.074c2.282,0,3.94,0.19,4.974,0.572s1.862,1.061,2.483,2.037s0.932,2.093,0.932,3.349
		c0,1.595-0.471,2.912-1.413,3.95c-0.942,1.039-2.35,1.694-4.224,1.965c0.932,0.541,1.702,1.136,2.309,1.783s1.425,1.798,2.454,3.45
		l2.607,4.146h-5.156l-3.117-4.625c-1.107-1.652-1.864-2.693-2.272-3.124c-0.408-0.43-0.84-0.725-1.296-0.884
		c-0.457-0.16-1.18-0.239-2.17-0.239h-0.874v8.872H98.684z M102.995,18.558h3.19c2.068,0,3.36-0.087,3.875-0.261
		c0.515-0.175,0.917-0.474,1.209-0.899c0.292-0.425,0.437-0.957,0.437-1.595c0-0.715-0.192-1.292-0.575-1.732
		c-0.384-0.439-0.925-0.718-1.624-0.834c-0.35-0.048-1.398-0.072-3.146-0.072h-3.365V18.558z"/>
	<path d="M120.08,30.822V9.569h4.312v21.253H120.08z"/>
	<path d="M127.625,20.326c0-2.165,0.325-3.981,0.976-5.451c0.485-1.082,1.148-2.054,1.988-2.914s1.76-1.498,2.76-1.914
		c1.331-0.56,2.865-0.841,4.603-0.841c3.146,0,5.664,0.972,7.552,2.914c1.888,1.943,2.833,4.645,2.833,8.104
		c0,3.431-0.938,6.115-2.811,8.054c-1.875,1.938-4.38,2.906-7.516,2.906c-3.175,0-5.7-0.964-7.574-2.893
		C128.562,26.364,127.625,23.709,127.625,20.326z M132.067,20.181c0,2.407,0.559,4.231,1.675,5.474
		c1.116,1.241,2.534,1.862,4.253,1.862s3.129-0.616,4.231-1.849c1.102-1.231,1.653-3.08,1.653-5.545c0-2.436-0.537-4.253-1.61-5.451
		c-1.073-1.198-2.498-1.798-4.275-1.798s-3.209,0.607-4.297,1.819C132.611,15.907,132.067,17.736,132.067,20.181z"/>
	<path d="M151.717,30.822V9.569h9.074c2.282,0,3.94,0.19,4.974,0.572s1.862,1.061,2.483,2.037s0.932,2.093,0.932,3.349
		c0,1.595-0.471,2.912-1.413,3.95c-0.942,1.039-2.35,1.694-4.224,1.965c0.932,0.541,1.702,1.136,2.309,1.783s1.425,1.798,2.454,3.45
		l2.607,4.146h-5.156l-3.117-4.625c-1.107-1.652-1.864-2.693-2.272-3.124c-0.408-0.43-0.84-0.725-1.296-0.884
		c-0.457-0.16-1.18-0.239-2.17-0.239h-0.874v8.872H151.717z M156.028,18.558h3.19c2.068,0,3.36-0.087,3.875-0.261
		c0.515-0.175,0.917-0.474,1.209-0.899c0.292-0.425,0.437-0.957,0.437-1.595c0-0.715-0.192-1.292-0.575-1.732
		c-0.384-0.439-0.925-0.718-1.624-0.834c-0.35-0.048-1.398-0.072-3.146-0.072h-3.365V18.558z"/>
</g>
</svg>