<!-- Generator: Adobe Illustrator 22.0.0, SVG Export Plug-In  -->
<svg version="1.1"
	 xmlns="http://www.w3.org/2000/svg" xmlns:xlink="http://www.w3.org/1999/xlink" xmlns:a="http://ns.adobe.com/AdobeSVGViewerExtensions/3.0/"
	 x="0px" y="0px" width="191.188px" height="23.266px" viewBox="0 0 191.188 23.266"
	 style="enable-background:new 0 0 191.188 23.266;" xml:space="preserve">
<style type="text/css">
	.st0{fill-rule:evenodd;clip-rule:evenodd;fill:#FFD100;}
	.st1{fill-rule:evenodd;clip-rule:evenodd;fill:none;}
	.st2{font-family:'Arial-BoldMT';}
	.st3{font-size:15.1736px;}
</style>
<defs>
</defs>
<path class="st0" d="M183.928,23.266H7.259C3.267,23.266,0,20,0,16.007l0-8.747C0,3.267,3.267,0,7.259,0l176.669,0
	c3.993,0,7.259,3.267,7.259,7.259v8.747C191.188,20,187.921,23.266,183.928,23.266z"/>
<g>
	<rect x="2.902" y="6.004" class="st1" width="185.331" height="13.722"/>
	<path d="M35.939,16.869V6.007h3.282l1.971,7.409l1.949-7.409h3.289v10.861h-2.037v-8.55l-2.156,8.55h-2.111l-2.148-8.55v8.55
		H35.939z"/>
	<path d="M48.608,16.869V6.007h8.055v1.837h-5.861v2.408h5.453v1.83h-5.453v2.956h6.068v1.83H48.608z"/>
	<path d="M58.721,6.007h4.009c0.903,0,1.593,0.069,2.067,0.207c0.637,0.188,1.183,0.521,1.637,1c0.455,0.479,0.801,1.066,1.037,1.76
		c0.237,0.694,0.355,1.55,0.355,2.567c0,0.895-0.111,1.665-0.333,2.312c-0.271,0.79-0.659,1.43-1.163,1.919
		c-0.381,0.37-0.895,0.659-1.541,0.867c-0.484,0.153-1.131,0.229-1.941,0.229h-4.127V6.007z M60.915,7.844v7.194h1.637
		c0.613,0,1.055-0.034,1.327-0.104c0.355-0.089,0.65-0.239,0.886-0.452c0.234-0.212,0.426-0.562,0.574-1.048
		c0.147-0.487,0.222-1.15,0.222-1.99c0-0.839-0.074-1.483-0.222-1.934c-0.148-0.449-0.356-0.8-0.623-1.052S64.11,8.038,63.7,7.948
		c-0.306-0.068-0.906-0.104-1.8-0.104H60.915z"/>
	<path d="M69.62,16.869V6.007h2.193v10.861H69.62z"/>
	<path d="M73.911,16.869V6.007h4.615c1.16,0,2.004,0.098,2.53,0.292c0.526,0.195,0.947,0.543,1.263,1.041
		c0.316,0.499,0.475,1.069,0.475,1.712c0,0.814-0.24,1.488-0.719,2.019c-0.479,0.531-1.195,0.866-2.148,1.004
		c0.475,0.277,0.865,0.581,1.174,0.912c0.309,0.33,0.725,0.918,1.249,1.763l1.326,2.119h-2.623l-1.585-2.363
		c-0.563-0.845-0.949-1.377-1.156-1.597s-0.428-0.37-0.659-0.452c-0.232-0.081-0.601-0.122-1.104-0.122h-0.444v4.534H73.911z
		 M76.103,10.601h1.622c1.053,0,1.709-0.045,1.972-0.134c0.262-0.089,0.467-0.242,0.614-0.459c0.148-0.218,0.223-0.489,0.223-0.815
		c0-0.365-0.098-0.66-0.293-0.886c-0.195-0.225-0.471-0.366-0.826-0.426c-0.178-0.024-0.711-0.037-1.6-0.037h-1.712V10.601z"/>
	<path d="M89.077,16.869V6.007h3.52c1.334,0,2.203,0.054,2.607,0.163c0.623,0.163,1.144,0.518,1.563,1.063
		c0.42,0.546,0.63,1.251,0.63,2.115c0,0.667-0.121,1.228-0.363,1.683c-0.242,0.454-0.549,0.811-0.922,1.07
		c-0.373,0.259-0.752,0.431-1.138,0.515c-0.523,0.104-1.282,0.155-2.274,0.155h-1.43v4.098H89.077z M91.27,7.844v3.082h1.199
		c0.865,0,1.443-0.057,1.734-0.17s0.52-0.292,0.686-0.533c0.165-0.242,0.248-0.523,0.248-0.845c0-0.396-0.116-0.722-0.348-0.979
		c-0.232-0.257-0.527-0.417-0.883-0.481c-0.262-0.049-0.787-0.074-1.578-0.074H91.27z"/>
	<path d="M99.205,16.869V6.007h4.616c1.16,0,2.004,0.098,2.529,0.292c0.526,0.195,0.947,0.543,1.264,1.041
		c0.316,0.499,0.475,1.069,0.475,1.712c0,0.814-0.24,1.488-0.719,2.019c-0.479,0.531-1.195,0.866-2.148,1.004
		c0.474,0.277,0.865,0.581,1.174,0.912c0.309,0.33,0.725,0.918,1.248,1.763l1.326,2.119h-2.623l-1.585-2.363
		c-0.563-0.845-0.948-1.377-1.155-1.597c-0.208-0.22-0.428-0.37-0.66-0.452c-0.232-0.081-0.6-0.122-1.104-0.122h-0.445v4.534H99.205
		z M101.397,10.601h1.623c1.053,0,1.709-0.045,1.971-0.134s0.467-0.242,0.615-0.459c0.148-0.218,0.223-0.489,0.223-0.815
		c0-0.365-0.098-0.66-0.293-0.886c-0.195-0.225-0.471-0.366-0.826-0.426c-0.178-0.024-0.711-0.037-1.6-0.037h-1.713V10.601z"/>
	<path d="M110.155,16.869V6.007h8.055v1.837h-5.861v2.408h5.453v1.83h-5.453v2.956h6.068v1.83H110.155z"/>
	<path d="M119.72,13.335l2.134-0.207c0.129,0.716,0.389,1.242,0.781,1.578s0.923,0.504,1.59,0.504c0.706,0,1.238-0.149,1.596-0.448
		c0.359-0.299,0.537-0.648,0.537-1.049c0-0.257-0.074-0.476-0.225-0.655c-0.151-0.181-0.414-0.338-0.789-0.471
		c-0.258-0.089-0.843-0.247-1.757-0.475c-1.175-0.291-2-0.649-2.475-1.074c-0.667-0.598-1-1.326-1-2.186
		c0-0.553,0.157-1.07,0.471-1.552c0.313-0.482,0.765-0.849,1.355-1.101s1.303-0.378,2.138-0.378c1.363,0,2.389,0.299,3.078,0.896
		s1.051,1.396,1.086,2.394l-2.193,0.096c-0.094-0.558-0.295-0.959-0.604-1.204c-0.309-0.244-0.771-0.366-1.39-0.366
		c-0.638,0-1.136,0.131-1.497,0.393c-0.231,0.168-0.348,0.393-0.348,0.674c0,0.257,0.109,0.477,0.326,0.66
		c0.276,0.231,0.948,0.474,2.016,0.726c1.066,0.252,1.855,0.513,2.367,0.781c0.511,0.27,0.91,0.638,1.199,1.104
		c0.289,0.467,0.434,1.043,0.434,1.729c0,0.623-0.172,1.206-0.518,1.749c-0.347,0.543-0.836,0.947-1.468,1.211
		c-0.632,0.265-1.42,0.396-2.363,0.396c-1.373,0-2.428-0.317-3.163-0.952C120.304,15.474,119.864,14.549,119.72,13.335z"/>
	<path d="M130.33,16.869V6.007h2.193v10.861H130.33z"/>
	<path d="M134.168,11.505c0-1.106,0.165-2.035,0.497-2.786c0.246-0.553,0.584-1.049,1.011-1.488c0.427-0.44,0.896-0.766,1.404-0.979
		c0.677-0.286,1.457-0.43,2.341-0.43c1.601,0,2.881,0.496,3.842,1.489s1.441,2.373,1.441,4.142c0,1.754-0.477,3.125-1.43,4.116
		c-0.954,0.99-2.229,1.485-3.824,1.485c-1.615,0-2.898-0.493-3.852-1.479S134.168,13.233,134.168,11.505z M136.428,11.43
		c0,1.23,0.284,2.162,0.853,2.797s1.289,0.952,2.163,0.952s1.592-0.314,2.152-0.944s0.841-1.574,0.841-2.834
		c0-1.245-0.273-2.174-0.818-2.786c-0.546-0.612-1.271-0.918-2.175-0.918s-1.632,0.31-2.186,0.93
		C136.704,9.246,136.428,10.181,136.428,11.43z M138.087,5.384l1.023-2.215h2.334l-2.038,2.215H138.087z"/>
	<path d="M146.437,16.869V6.007h2.134l4.445,7.253V6.007h2.037v10.861h-2.199l-4.379-7.083v7.083H146.437z"/>
</g>
</svg>