<!-- Generator: Adobe Illustrator 22.0.0, SVG Export Plug-In  -->
<svg version="1.1"
	 xmlns="http://www.w3.org/2000/svg" xmlns:xlink="http://www.w3.org/1999/xlink" xmlns:a="http://ns.adobe.com/AdobeSVGViewerExtensions/3.0/"
	 x="0px" y="0px" width="378px" height="145px" viewBox="0 0 378 145" style="overflow:scroll;enable-background:new 0 0 378 145;"
	 xml:space="preserve">
<style type="text/css">
	.st0{opacity:0.7;fill-rule:evenodd;clip-rule:evenodd;fill:#009CA6;}
	.st1{fill-rule:evenodd;clip-rule:evenodd;fill:none;}
	.st2{font-family:'MyriadPro-Regular';}
	.st3{font-size:30px;}
	.st4{letter-spacing:-2;}
</style>
<defs>
</defs>
<path class="st0" d="M366,46H12C5.4,46,0,40.6,0,34V12C0,5.4,5.4,0,12,0h354c6.6,0,12,5.4,12,12v22C378,40.6,372.6,46,366,46z"/>
<g>
	<rect x="11.581" y="11.871" transform="matrix(1 -0.003 0.003 1 -0.0763 0.521)" class="st1" width="320.419" height="27.129"/>
	<path d="M13.882,12.736c1.32-0.27,3.21-0.42,5.01-0.42c2.79,0,4.59,0.51,5.85,1.65c1.02,0.899,1.59,2.279,1.59,3.84
		c0,2.669-1.68,4.439-3.81,5.159v0.09c1.56,0.54,2.49,1.98,2.97,4.08c0.66,2.82,1.14,4.77,1.56,5.55h-2.7
		c-0.33-0.57-0.78-2.31-1.35-4.83c-0.6-2.79-1.68-3.84-4.05-3.93h-2.46v8.76h-2.61V12.736z M16.492,21.946h2.67
		c2.79,0,4.56-1.53,4.56-3.84c0-2.61-1.89-3.75-4.65-3.78c-1.26,0-2.16,0.12-2.58,0.24V21.946z"/>
	<path d="M47.391,22.366c0,6.96-4.229,10.649-9.39,10.649c-5.34,0-9.089-4.14-9.089-10.26c0-6.42,3.99-10.619,9.39-10.619
		C43.821,12.137,47.391,16.366,47.391,22.366z M31.701,22.696c0,4.319,2.34,8.189,6.45,8.189c4.14,0,6.479-3.81,6.479-8.399
		c0-4.021-2.1-8.22-6.45-8.22C33.861,14.267,31.701,18.256,31.701,22.696z"/>
	<path d="M50.421,29.506c1.17,0.72,2.88,1.319,4.68,1.319c2.67,0,4.23-1.409,4.23-3.449c0-1.89-1.08-2.97-3.81-4.021
		c-3.3-1.17-5.339-2.88-5.339-5.729c0-3.149,2.61-5.489,6.54-5.489c2.07,0,3.57,0.479,4.47,0.989l-0.72,2.13
		c-0.66-0.359-2.01-0.96-3.84-0.96c-2.76,0-3.81,1.65-3.81,3.03c0,1.89,1.23,2.82,4.02,3.899c3.419,1.32,5.16,2.971,5.16,5.94
		c0,3.119-2.31,5.819-7.08,5.819c-1.95,0-4.08-0.569-5.16-1.29L50.421,29.506z"/>
	<path d="M68.841,26.326l-2.1,6.359h-2.7l6.87-20.219h3.15l6.9,20.219h-2.79l-2.16-6.359H68.841z M75.471,24.286l-1.98-5.82
		c-0.45-1.319-0.75-2.52-1.05-3.689h-0.06c-0.3,1.2-0.63,2.43-1.02,3.66l-1.98,5.85H75.471z"/>
	<path d="M83.931,12.467h2.61v18.029h8.64v2.189h-11.25V12.467z"/>
	<path d="M108.561,23.206h-7.86v7.29h8.76v2.189h-11.37V12.467h10.92v2.189h-8.31v6.39h7.86V23.206z"/>
	<path d="M112.491,29.506c1.17,0.72,2.88,1.319,4.68,1.319c2.67,0,4.23-1.409,4.23-3.449c0-1.89-1.08-2.97-3.81-4.021
		c-3.3-1.17-5.339-2.88-5.339-5.729c0-3.149,2.61-5.489,6.54-5.489c2.07,0,3.57,0.479,4.47,0.989l-0.72,2.13
		c-0.66-0.359-2.01-0.96-3.84-0.96c-2.76,0-3.81,1.65-3.81,3.03c0,1.89,1.23,2.82,4.02,3.899c3.419,1.32,5.16,2.971,5.16,5.94
		c0,3.119-2.31,5.819-7.08,5.819c-1.95,0-4.08-0.569-5.16-1.29L112.491,29.506z"/>
	<path d="M150.68,35.655c-2.729-0.72-5.399-1.53-7.739-2.34c-0.42-0.149-0.84-0.3-1.23-0.3c-4.8-0.18-8.91-3.72-8.91-10.229
		c0-6.479,3.96-10.649,9.419-10.649c5.49,0,9.06,4.26,9.06,10.229c0,5.189-2.4,8.52-5.76,9.689v0.12c2.01,0.51,4.2,0.99,5.91,1.29
		L150.68,35.655z M148.52,22.486c0-4.05-2.1-8.22-6.39-8.22c-4.41,0-6.57,4.079-6.54,8.459c-0.03,4.29,2.34,8.16,6.42,8.16
		C146.18,30.886,148.52,27.105,148.52,22.486z"/>
	<path d="M157.28,12.467v11.969c0,4.53,2.01,6.45,4.71,6.45c3,0,4.92-1.98,4.92-6.45V12.467h2.64v11.789
		c0,6.21-3.27,8.76-7.649,8.76c-4.14,0-7.26-2.37-7.26-8.64V12.467H157.28z"/>
	<path d="M176.69,12.467v20.219h-2.61V12.467H176.69z"/>
	<path d="M180.89,29.506c1.17,0.72,2.88,1.319,4.68,1.319c2.67,0,4.23-1.409,4.23-3.449c0-1.89-1.08-2.97-3.81-4.021
		c-3.3-1.17-5.339-2.88-5.339-5.729c0-3.149,2.61-5.489,6.54-5.489c2.07,0,3.57,0.479,4.47,0.989l-0.72,2.13
		c-0.66-0.359-2.01-0.96-3.84-0.96c-2.76,0-3.81,1.65-3.81,3.03c0,1.89,1.23,2.82,4.02,3.899c3.419,1.32,5.16,2.971,5.16,5.94
		c0,3.119-2.31,5.819-7.08,5.819c-1.95,0-4.08-0.569-5.16-1.29L180.89,29.506z"/>
	<path d="M196.04,12.706c1.26-0.21,2.91-0.39,5.01-0.39c2.58,0,4.47,0.6,5.67,1.68c1.11,0.96,1.77,2.43,1.77,4.23
		c0,1.829-0.54,3.27-1.56,4.319c-1.38,1.47-3.63,2.22-6.18,2.22c-0.78,0-1.5-0.029-2.1-0.18v8.1h-2.61V12.706z M198.65,22.456
		c0.57,0.149,1.29,0.21,2.16,0.21c3.15,0,5.07-1.53,5.07-4.32c0-2.67-1.89-3.959-4.77-3.959c-1.14,0-2.01,0.09-2.46,0.21V22.456z"/>
	<path d="M222.47,23.206h-7.86v7.29h8.76v2.189H212V12.467h10.92v2.189h-8.31v6.39h7.86V23.206z"/>
	<path d="M224.84,36.375c0.66-1.77,1.47-4.979,1.8-7.169l2.94-0.301c-0.69,2.551-2.01,5.88-2.85,7.29L224.84,36.375z"/>
	<path d="M239.209,12.706c1.26-0.21,2.91-0.39,5.01-0.39c2.58,0,4.47,0.6,5.67,1.68c1.11,0.96,1.77,2.43,1.77,4.23
		c0,1.829-0.54,3.27-1.56,4.319c-1.38,1.47-3.63,2.22-6.18,2.22c-0.78,0-1.5-0.029-2.1-0.18v8.1h-2.61V12.706z M241.819,22.456
		c0.57,0.149,1.29,0.21,2.16,0.21c3.15,0,5.07-1.53,5.07-4.32c0-2.67-1.89-3.959-4.77-3.959c-1.14,0-2.01,0.09-2.46,0.21V22.456z"/>
	<path d="M265.639,23.206h-7.86v7.29h8.76v2.189h-11.37V12.467h10.92v2.189h-8.31v6.39h7.86V23.206z"/>
	<path d="M269.929,12.736c1.59-0.24,3.48-0.42,5.55-0.42c3.75,0,6.42,0.87,8.189,2.52c1.8,1.65,2.851,3.99,2.851,7.26
		c0,3.3-1.021,6-2.91,7.86c-1.89,1.89-5.01,2.909-8.94,2.909c-1.86,0-3.419-0.09-4.74-0.239V12.736z M272.539,30.615
		c0.66,0.12,1.62,0.15,2.64,0.15c5.58,0,8.609-3.12,8.609-8.58c0.03-4.77-2.67-7.799-8.189-7.799c-1.35,0-2.37,0.119-3.06,0.27
		V30.615z"/>
	<path d="M289.909,12.736c1.319-0.27,3.21-0.42,5.01-0.42c2.79,0,4.59,0.51,5.85,1.65c1.02,0.899,1.59,2.279,1.59,3.84
		c0,2.669-1.68,4.439-3.81,5.159v0.09c1.56,0.54,2.489,1.98,2.97,4.08c0.66,2.82,1.14,4.77,1.56,5.55h-2.7
		c-0.329-0.57-0.779-2.31-1.35-4.83c-0.6-2.79-1.68-3.84-4.05-3.93h-2.46v8.76h-2.609V12.736z M292.519,21.946h2.67
		c2.79,0,4.56-1.53,4.56-3.84c0-2.61-1.89-3.75-4.649-3.78c-1.26,0-2.16,0.12-2.58,0.24V21.946z"/>
	<path d="M323.418,22.366c0,6.96-4.23,10.649-9.39,10.649c-5.34,0-9.09-4.14-9.09-10.26c0-6.42,3.989-10.619,9.39-10.619
		C319.848,12.137,323.418,16.366,323.418,22.366z M307.729,22.696c0,4.319,2.34,8.189,6.449,8.189c4.14,0,6.48-3.81,6.48-8.399
		c0-4.021-2.101-8.22-6.45-8.22C309.888,14.267,307.729,18.256,307.729,22.696z"/>
</g>
<path class="st0" d="M366,145H12c-6.6,0-12-5.4-12-12v-22c0-6.6,5.4-12,12-12h354c6.6,0,12,5.4,12,12v22
	C378,139.6,372.6,145,366,145z"/>
<g>
	<rect x="11.581" y="110.871" class="st1" width="366.419" height="27.129"/>
	<path d="M13.86,112.191c1.26-0.21,2.91-0.39,5.01-0.39c2.58,0,4.47,0.6,5.67,1.68c1.11,0.96,1.77,2.43,1.77,4.23
		c0,1.829-0.54,3.27-1.56,4.319c-1.38,1.47-3.63,2.22-6.18,2.22c-0.78,0-1.5-0.029-2.1-0.18v8.1h-2.61V112.191z M16.47,121.941
		c0.57,0.15,1.29,0.21,2.16,0.21c3.15,0,5.07-1.53,5.07-4.32c0-2.67-1.89-3.959-4.77-3.959c-1.14,0-2.01,0.09-2.46,0.21V121.941z"/>
	<path d="M30.57,125.812l-2.1,6.359h-2.7l6.87-20.219h3.15l6.9,20.219H39.9l-2.16-6.359H30.57z M37.2,123.771l-1.98-5.82
		c-0.45-1.319-0.75-2.52-1.05-3.689h-0.06c-0.3,1.2-0.63,2.43-1.02,3.66l-1.98,5.85H37.2z"/>
	<path d="M59.34,131.511c-0.96,0.48-2.88,0.96-5.34,0.96c-5.7,0-9.989-3.6-9.989-10.229c0-6.33,4.29-10.619,10.56-10.619
		c2.52,0,4.11,0.54,4.8,0.899l-0.63,2.13c-0.99-0.479-2.4-0.84-4.08-0.84c-4.74,0-7.89,3.03-7.89,8.34c0,4.95,2.85,8.13,7.77,8.13
		c1.59,0,3.21-0.33,4.26-0.84L59.34,131.511z"/>
	<path d="M65.22,111.952v20.219h-2.61v-20.219H65.22z"/>
	<path d="M80.25,122.691h-7.86v7.29h8.76v2.189H69.78v-20.219h10.919v2.189h-8.31v6.39h7.86V122.691z"/>
	<path d="M84.54,132.171v-20.219h2.85l6.479,10.229c1.5,2.369,2.67,4.499,3.63,6.569l0.06-0.03c-0.24-2.699-0.3-5.159-0.3-8.31
		v-8.459h2.46v20.219h-2.64l-6.42-10.26c-1.41-2.25-2.76-4.56-3.78-6.75l-0.09,0.03c0.15,2.55,0.21,4.98,0.21,8.34v8.64H84.54z"/>
	<path d="M108.119,114.172h-6.149v-2.22h14.969v2.22h-6.18v17.999h-2.64V114.172z"/>
	<path d="M129.659,122.691h-7.86v7.29h8.76v2.189h-11.37v-20.219h10.919v2.189h-8.31v6.39h7.86V122.691z"/>
	<path d="M147.538,132.171v-5.31h-9.06v-1.74l8.699-12.449h2.85v12.119h2.73v2.07h-2.73v5.31H147.538z M147.538,124.791v-6.51
		c0-1.02,0.03-2.04,0.09-3.06h-0.09c-0.6,1.14-1.08,1.979-1.62,2.88l-4.77,6.63v0.06H147.538z"/>
</g>
</svg>