<!-- Generator: Adobe Illustrator 22.0.0, SVG Export Plug-In  -->
<svg version="1.1"
	 xmlns="http://www.w3.org/2000/svg" xmlns:xlink="http://www.w3.org/1999/xlink" xmlns:a="http://ns.adobe.com/AdobeSVGViewerExtensions/3.0/"
	 x="0px" y="0px" width="109px" height="32.492px" viewBox="0 0 109 32.492"
	 style="overflow:scroll;enable-background:new 0 0 109 32.492;" xml:space="preserve">
<style type="text/css">
	.st0{opacity:0.7;fill-rule:evenodd;clip-rule:evenodd;fill:#009CA6;}
	.st1{fill-rule:evenodd;clip-rule:evenodd;fill:none;}
	.st2{font-family:'MyriadPro-Regular';}
	.st3{font-size:25px;}
</style>
<defs>
</defs>
<path class="st0" d="M97,30H12C5.4,30,0,24.6,0,18v-6C0,5.4,5.4,0,12,0h85c6.6,0,12,5.4,12,12v6C109,24.6,103.6,30,97,30z"/>
<g>
	<rect x="32.581" y="5.266" transform="matrix(1 -0.003 0.003 1 -0.0568 0.1964)" class="st1" width="64.333" height="27.129"/>
	<path d="M48.69,15.52c-0.125-2.35-0.275-5.174-0.25-7.273h-0.075c-0.575,1.975-1.274,4.074-2.125,6.398l-2.974,8.174h-1.649
		l-2.725-8.023c-0.8-2.374-1.475-4.549-1.949-6.549h-0.05c-0.05,2.1-0.175,4.924-0.325,7.448l-0.45,7.224h-2.074l1.175-16.846h2.774
		l2.875,8.147c0.7,2.075,1.275,3.925,1.7,5.674h0.075c0.425-1.699,1.025-3.549,1.775-5.674l2.999-8.147h2.774l1.05,16.846h-2.125
		L48.69,15.52z"/>
	<path d="M57.067,17.619l-1.75,5.299h-2.25l5.724-16.846h2.624l5.749,16.846H64.84l-1.799-5.299H57.067z M62.591,15.92l-1.649-4.849
		c-0.375-1.101-0.625-2.1-0.875-3.074h-0.05c-0.25,0.999-0.525,2.024-0.85,3.049l-1.649,4.874H62.591z M63.791,2.248l-3.174,2.924
		h-1.799l2.324-2.924H63.791z"/>
	<path d="M69.343,20.269c0.975,0.6,2.399,1.1,3.899,1.1c2.225,0,3.524-1.175,3.524-2.874c0-1.574-0.9-2.475-3.174-3.35
		c-2.75-0.975-4.449-2.399-4.449-4.773c0-2.624,2.175-4.574,5.449-4.574c1.725,0,2.975,0.4,3.724,0.825l-0.6,1.774
		c-0.55-0.3-1.675-0.8-3.199-0.8c-2.299,0-3.174,1.375-3.174,2.524c0,1.574,1.025,2.35,3.349,3.249
		c2.85,1.1,4.299,2.475,4.299,4.949c0,2.599-1.924,4.849-5.898,4.849c-1.625,0-3.399-0.475-4.299-1.075L69.343,20.269z"/>
</g>
</svg>