<!-- Generator: Adobe Illustrator 22.0.0, SVG Export Plug-In  -->
<svg version="1.1"
	 xmlns="http://www.w3.org/2000/svg" xmlns:xlink="http://www.w3.org/1999/xlink" xmlns:a="http://ns.adobe.com/AdobeSVGViewerExtensions/3.0/"
	 x="0px" y="0px" width="230.002px" height="49.375px" viewBox="0 0 230.002 49.375"
	 style="overflow:scroll;enable-background:new 0 0 230.002 49.375;" xml:space="preserve">
<style type="text/css">
	.st0{opacity:0.7;}
	.st1{fill:#009CA6;}
	.st2{opacity:0.7;fill:#009CA6;}
	.st3{font-family:'Arial-BoldMT';}
	.st4{font-size:40px;}
</style>
<defs>
</defs>
<g class="st0">
	<path class="st1" d="M2.924,34.316V5.684h9.321c3.532,0,5.834,0.144,6.907,0.43c1.648,0.43,3.028,1.364,4.141,2.803
		c1.111,1.439,1.668,3.298,1.668,5.576c0,1.758-0.321,3.236-0.962,4.434c-0.642,1.198-1.455,2.139-2.443,2.822
		c-0.987,0.684-1.991,1.136-3.012,1.357c-1.387,0.273-3.395,0.41-6.024,0.41H8.732v10.801H2.924z M8.732,10.527v8.125h3.179
		c2.289,0,3.819-0.149,4.592-0.449c0.771-0.299,1.377-0.768,1.815-1.406c0.438-0.638,0.657-1.38,0.657-2.227
		c0-1.042-0.308-1.901-0.923-2.578c-0.614-0.677-1.393-1.1-2.335-1.27c-0.693-0.13-2.087-0.195-4.18-0.195H8.732z"/>
	<path class="st1" d="M55.67,34.316h-6.318l-2.512-6.504H35.341l-2.374,6.504h-6.162L38.01,5.684h6.142L55.67,34.316z
		 M44.976,22.988l-3.964-10.625l-3.886,10.625H44.976z"/>
	<path class="st1" d="M77.157,23.789l5.632,1.777c-0.863,3.125-2.299,5.446-4.307,6.963c-2.009,1.517-4.557,2.275-7.644,2.275
		c-3.82,0-6.96-1.299-9.419-3.896c-2.46-2.598-3.689-6.149-3.689-10.654c0-4.766,1.236-8.467,3.709-11.104s5.723-3.955,9.753-3.955
		c3.519,0,6.377,1.035,8.575,3.105c1.308,1.224,2.289,2.982,2.943,5.273l-5.75,1.367c-0.34-1.484-1.05-2.656-2.129-3.516
		s-2.391-1.289-3.935-1.289c-2.132,0-3.862,0.762-5.19,2.285c-1.327,1.523-1.991,3.991-1.991,7.402c0,3.62,0.653,6.198,1.962,7.734
		c1.309,1.537,3.009,2.305,5.103,2.305c1.543,0,2.871-0.488,3.983-1.465C75.875,27.422,76.673,25.886,77.157,23.789z"/>
	<path class="st1" d="M87.597,34.316V5.684h5.809v28.633H87.597z"/>
	<path class="st1" d="M98.939,34.316V5.684h21.33v4.844h-15.521v6.348h14.442v4.824h-14.442v7.793h16.071v4.824H98.939z"/>
	<path class="st1" d="M125.803,34.316V5.684h5.651l11.774,19.121V5.684h5.396v28.633h-5.828l-11.598-18.672v18.672H125.803z"/>
	<path class="st1" d="M161.242,34.316V10.527h-8.536V5.684h22.861v4.844h-8.517v23.789H161.242z"/>
	<path class="st1" d="M179.315,34.316V5.684h21.33v4.844h-15.521v6.348h14.442v4.824h-14.442v7.793h16.071v4.824H179.315z"/>
	<path class="st1" d="M204.648,25l5.651-0.547c0.34,1.888,1.03,3.275,2.07,4.16c1.04,0.886,2.443,1.328,4.209,1.328
		c1.871,0,3.28-0.394,4.229-1.182c0.948-0.788,1.423-1.709,1.423-2.764c0-0.677-0.199-1.253-0.599-1.729
		c-0.398-0.475-1.096-0.889-2.09-1.24c-0.68-0.234-2.23-0.651-4.65-1.25c-3.113-0.768-5.298-1.712-6.554-2.832
		c-1.767-1.575-2.649-3.496-2.649-5.762c0-1.458,0.415-2.822,1.246-4.092c0.83-1.27,2.027-2.236,3.591-2.9s3.45-0.996,5.661-0.996
		c3.611,0,6.329,0.788,8.153,2.363c1.825,1.576,2.783,3.679,2.875,6.309l-5.809,0.254c-0.248-1.471-0.781-2.529-1.599-3.174
		c-0.818-0.645-2.045-0.967-3.68-0.967c-1.688,0-3.009,0.345-3.964,1.035c-0.615,0.443-0.922,1.035-0.922,1.777
		c0,0.677,0.287,1.257,0.863,1.738c0.732,0.612,2.512,1.25,5.337,1.914c2.826,0.664,4.916,1.351,6.27,2.061
		c1.354,0.71,2.414,1.68,3.18,2.91c0.765,1.23,1.147,2.751,1.147,4.561c0,1.641-0.458,3.177-1.374,4.609
		c-0.915,1.433-2.211,2.497-3.885,3.193c-1.675,0.696-3.762,1.045-6.26,1.045c-3.637,0-6.43-0.836-8.379-2.51
		C206.191,30.642,205.027,28.203,204.648,25z"/>
</g>
</svg>