<!-- Generator: Adobe Illustrator 22.0.0, SVG Export Plug-In  -->
<svg version="1.1"
	 xmlns="http://www.w3.org/2000/svg" xmlns:xlink="http://www.w3.org/1999/xlink" xmlns:a="http://ns.adobe.com/AdobeSVGViewerExtensions/3.0/"
	 x="0px" y="0px" width="388.106px" height="47.23px" viewBox="0 0 388.106 47.23"
	 style="overflow:scroll;enable-background:new 0 0 388.106 47.23;" xml:space="preserve">
<style type="text/css">
	.st0{opacity:0.7;fill-rule:evenodd;clip-rule:evenodd;fill:#009CA6;}
	.st1{fill-rule:evenodd;clip-rule:evenodd;fill:none;}
	.st2{fill:#FFFFFF;}
	.st3{font-family:'Arial-BoldMT';}
	.st4{font-size:30.8021px;}
	.st5{letter-spacing:-2;}
</style>
<defs>
</defs>
<path class="st0" d="M380.847,47.23H7.259C3.267,47.23,0,43.963,0,39.97L0,7.259C0,3.267,3.267,0,7.259,0l373.587,0
	c3.993,0,7.259,3.267,7.259,7.259V39.97C388.106,43.963,384.84,47.23,380.847,47.23z"/>
<g>
	<rect x="5.89" y="12.188" class="st1" width="376.216" height="27.854"/>
	<path class="st2" d="M60.465,34.242V12.193h7.144c2.708,0,4.472,0.11,5.294,0.331c1.263,0.331,2.321,1.051,3.173,2.158
		c0.852,1.108,1.278,2.539,1.278,4.294c0,1.354-0.246,2.491-0.737,3.414s-1.116,1.646-1.873,2.173
		c-0.757,0.526-1.526,0.875-2.309,1.046c-1.063,0.21-2.602,0.315-4.617,0.315h-2.903v8.317H60.465z M64.917,15.923v6.256h2.437
		c1.754,0,2.928-0.115,3.52-0.346c0.591-0.23,1.055-0.592,1.391-1.083c0.335-0.491,0.504-1.063,0.504-1.714
		c0-0.803-0.236-1.464-0.707-1.985c-0.472-0.521-1.068-0.848-1.79-0.978c-0.531-0.101-1.599-0.15-3.203-0.15H64.917z"/>
	<path class="st2" d="M98.607,34.242h-4.843l-1.925-5.009h-8.813l-1.82,5.009h-4.723l8.588-22.049h4.708L98.607,34.242z
		 M90.41,25.518l-3.038-8.182l-2.978,8.182H90.41z"/>
	<path class="st2" d="M115.075,26.135l4.316,1.368c-0.662,2.406-1.762,4.194-3.301,5.362s-3.492,1.752-5.858,1.752
		c-2.928,0-5.334-1-7.219-3c-1.885-2.001-2.828-4.735-2.828-8.205c0-3.67,0.947-6.52,2.842-8.55s4.387-3.046,7.475-3.046
		c2.697,0,4.888,0.797,6.573,2.392c1.002,0.942,1.754,2.296,2.256,4.061l-4.407,1.053c-0.261-1.143-0.805-2.045-1.632-2.707
		s-1.833-0.992-3.016-0.992c-1.634,0-2.96,0.586-3.978,1.759c-1.018,1.174-1.527,3.074-1.527,5.7c0,2.788,0.501,4.773,1.504,5.956
		c1.002,1.184,2.306,1.775,3.91,1.775c1.183,0,2.201-0.376,3.053-1.129C114.093,28.932,114.704,27.75,115.075,26.135z"/>
	<path class="st2" d="M123.076,34.242V12.193h4.452v22.049H123.076z"/>
	<path class="st2" d="M131.77,34.242V12.193h16.348v3.73h-11.896v4.888h11.069v3.715h-11.069v6.001h12.318v3.715H131.77z"/>
	<path class="st2" d="M152.36,34.242V12.193h4.332l9.024,14.725V12.193h4.136v22.049h-4.467l-8.889-14.378v14.378H152.36z"/>
	<path class="st2" d="M179.522,34.242V15.923h-6.542v-3.73h17.522v3.73h-6.527v18.318H179.522z"/>
	<path class="st2" d="M193.374,34.242V12.193h16.348v3.73h-11.896v4.888h11.069v3.715h-11.069v6.001h12.318v3.715H193.374z"/>
	<path class="st2" d="M222.521,34.242V12.193h4.332l9.024,14.725V12.193h4.136v22.049h-4.467l-8.889-14.378v14.378H222.521z"/>
	<path class="st2" d="M244.69,12.193h4.452v11.941c0,1.896,0.055,3.124,0.166,3.686c0.19,0.902,0.644,1.627,1.361,2.173
		c0.717,0.547,1.697,0.82,2.94,0.82c1.263,0,2.216-0.259,2.857-0.775c0.642-0.516,1.028-1.15,1.158-1.902
		c0.13-0.752,0.195-2,0.195-3.745V12.193h4.452v11.581c0,2.646-0.121,4.517-0.361,5.609c-0.241,1.094-0.684,2.016-1.331,2.768
		c-0.646,0.752-1.511,1.352-2.594,1.798c-1.083,0.445-2.497,0.669-4.241,0.669c-2.106,0-3.703-0.243-4.791-0.729
		s-1.948-1.118-2.579-1.895c-0.632-0.777-1.048-1.592-1.249-2.444c-0.291-1.264-0.436-3.129-0.436-5.595V12.193z"/>
	<path class="st2" d="M266.965,34.242V12.193h16.348v3.73h-11.896v4.888h11.069v3.715h-11.069v6.001h12.318v3.715H266.965z"/>
	<path class="st2" d="M293.134,34.242l-7.881-22.049h4.828l5.58,16.318l5.399-16.318h4.723l-7.896,22.049H293.134z"/>
	<path class="st2" d="M307.152,23.353c0-2.246,0.336-4.131,1.008-5.655c0.501-1.123,1.186-2.131,2.053-3.023
		c0.867-0.892,1.817-1.554,2.85-1.985c1.374-0.581,2.958-0.872,4.752-0.872c3.249,0,5.848,1.008,7.798,3.023
		c1.95,2.015,2.925,4.817,2.925,8.407c0,3.56-0.968,6.345-2.903,8.354c-1.935,2.011-4.522,3.016-7.761,3.016
		c-3.279,0-5.886-1-7.821-3C308.119,29.617,307.152,26.862,307.152,23.353z M311.739,23.203c0,2.496,0.577,4.389,1.729,5.678
		c1.153,1.288,2.617,1.933,4.392,1.933c1.775,0,3.231-0.64,4.369-1.918c1.138-1.278,1.708-3.196,1.708-5.753
		c0-2.526-0.554-4.412-1.662-5.655s-2.58-1.864-4.415-1.864c-1.834,0-3.314,0.629-4.437,1.887
		C312.301,18.768,311.739,20.666,311.739,23.203z"/>
</g>
</svg>